{
copyright = "Copyright (c) 2018 by Vladimir Nikolic. All rights reserved.";
designer = "Vladimir Nikolic";
designerURL = "www.coroflot.com/vladimirnikolic";
familyName = Maniac;
customParameters = (
{
name = glyphOrder;
value = (
.notdef,
NULL,
CR,
space,
E,
F,
G,
H,
I,
J,
K,
L,
M,
N,
O,
P,
Q,
R,
S,
T,
U,
V,
W,
X,
Y,
Z,
a,
b,
c,
d,
e,
f,
g,
h,
i,
j,
k,
l,
m,
n,
o,
p,
q,
r,
s,
t,
u,
v,
w,
x,
y,
z,
D,
exclam,
parenleft,
parenright,
comma,
hyphen,
period,
zero,
one,
two,
three,
four,
five,
six,
seven,
eight,
nine,
colon,
semicolon,
question,
B,
C,
A
);
},
{
name = trademark;
value = "Maniac Grunged is a trademark of Vladimir Nikolic.";
}
);
fontMaster = (
{
ascender = 750;
capHeight = 700;
custom = Grunged;
customParameters = (
{
name = typoAscender;
value = 750;
},
{
name = typoDescender;
value = -250;
},
{
name = typoLineGap;
value = 0;
},
{
name = winAscent;
value = 985;
},
{
name = winDescent;
value = 282;
},
{
name = underlineThickness;
value = 50;
},
{
name = underlinePosition;
value = -75;
},
{
name = strikeoutPosition;
value = 250;
},
{
name = strikeoutSize;
value = 50;
},
{
name = subscriptXOffset;
value = 0;
},
{
name = subscriptXSize;
value = 700;
},
{
name = subscriptYOffset;
value = 140;
},
{
name = subscriptYSize;
value = 650;
},
{
name = superscriptXOffset;
value = 0;
},
{
name = superscriptXSize;
value = 700;
},
{
name = superscriptYOffset;
value = 477;
},
{
name = superscriptYSize;
value = 650;
},
{
name = hheaAscender;
value = 750;
},
{
name = hheaDescender;
value = -250;
},
{
name = hheaLineGap;
value = 0;
}
);
descender = -250;
guideLines = (
{
position = "{0, 250}";
}
);
id = "36F87277-1639-45E8-AAA4-E82D5D969E92";
weight = ExtraBold;
widthValue = 100;
weightValue = 200;
xHeight = 500;
}
);
glyphs = (
{
glyphname = E;
layers = (
{
layerId = "36F87277-1639-45E8-AAA4-E82D5D969E92";
paths = (
{
nodes = (
"151 695 OFFCURVE",
"404 698 OFFCURVE",
"532 695 QCURVE",
"534 637 OFFCURVE",
"534 521 OFFCURVE",
"534 463 QCURVE",
"465 461 OFFCURVE",
"328 464 OFFCURVE",
"259 462 QCURVE",
"257 460 OFFCURVE",
"252 456 OFFCURVE",
"250 455 QCURVE",
"250 419 LINE",
"319 418 OFFCURVE",
"456 421 OFFCURVE",
"525 419 QCURVE",
"531 416 LINE",
"537 382 OFFCURVE",
"533 313 OFFCURVE",
"534 278 QCURVE",
"462 276 OFFCURVE",
"322 278 OFFCURVE",
"250 278 QCURVE",
"253 273 OFFCURVE",
"251 259 OFFCURVE",
"249 244 OFFCURVE",
"251 231 OFFCURVE",
"259 229 QCURVE",
"328 227 OFFCURVE",
"465 230 OFFCURVE",
"534 228 QCURVE",
"534 0 LINE",
"23 0 LINE",
"21 348 OFFCURVE",
"23 696 QCURVE"
);
},
{
nodes = (
"320 609 LINE",
"320 606 LINE",
"323 606 LINE",
"323 609 LINE"
);
},
{
nodes = (
"375 596 LINE",
"375 593 LINE",
"378 593 LINE",
"378 596 LINE"
);
},
{
nodes = (
"184 578 LINE",
"184 575 LINE",
"187 575 LINE",
"187 578 LINE"
);
},
{
nodes = (
"234 572 LINE",
"234 569 LINE",
"237 569 LINE",
"237 572 LINE"
);
},
{
nodes = (
"350 566 OFFCURVE",
"362 560 QCURVE",
"374 566 OFFCURVE",
"362 573 QCURVE"
);
},
{
nodes = (
"152 565 LINE",
"150 561 LINE",
"152 556 LINE",
"158 556 LINE",
"160 561 LINE",
"158 565 LINE"
);
},
{
nodes = (
"294 565 LINE",
"292 561 LINE",
"294 556 LINE",
"299 556 LINE",
"302 561 LINE",
"299 565 LINE"
);
},
{
nodes = (
"191 559 LINE",
"191 556 LINE",
"193 556 LINE",
"193 559 LINE"
);
},
{
nodes = (
"203 553 LINE",
"203 550 LINE",
"206 550 LINE",
"206 553 LINE"
);
},
{
nodes = (
"234 553 LINE",
"234 550 LINE",
"237 550 LINE",
"237 553 LINE"
);
},
{
nodes = (
"246 553 LINE",
"246 550 LINE",
"249 550 LINE",
"249 553 LINE"
);
},
{
nodes = (
"166 547 LINE",
"166 544 LINE",
"169 544 LINE",
"169 547 LINE"
);
},
{
nodes = (
"178 547 LINE",
"178 544 LINE",
"181 544 LINE",
"181 547 LINE"
);
},
{
nodes = (
"117 541 LINE",
"117 538 LINE",
"119 538 LINE",
"119 541 LINE"
);
},
{
nodes = (
"144 529 OFFCURVE",
"155 516 OFFCURVE",
"161 520 QCURVE",
"165 524 OFFCURVE",
"155 538 OFFCURVE",
"149 534 QCURVE"
);
},
{
nodes = (
"203 535 LINE",
"203 532 LINE",
"206 532 LINE",
"206 535 LINE"
);
},
{
nodes = (
"159 504 LINE",
"156 499 LINE",
"159 495 LINE",
"164 495 LINE",
"166 499 LINE",
"164 504 LINE"
);
},
{
nodes = (
"123 455 LINE",
"123 452 LINE",
"126 452 LINE",
"126 455 LINE"
);
},
{
nodes = (
"135 430 LINE",
"135 427 LINE",
"138 427 LINE",
"138 430 LINE"
);
},
{
nodes = (
"135 414 OFFCURVE",
"140 407 OFFCURVE",
"150 404 OFFCURVE",
"160 406 OFFCURVE",
"161 411 QCURVE",
"159 417 OFFCURVE",
"146 420 OFFCURVE",
"141 418 QCURVE"
);
},
{
nodes = (
"165 399 LINE",
"162 395 LINE",
"165 390 LINE",
"170 390 LINE",
"172 395 LINE",
"170 399 LINE"
);
},
{
nodes = (
"147 356 LINE",
"147 353 LINE",
"150 353 LINE",
"150 356 LINE"
);
},
{
nodes = (
"110 337 LINE",
"110 335 LINE",
"113 335 LINE",
"113 337 LINE"
);
},
{
nodes = (
"160 313 LINE",
"160 310 LINE",
"163 310 LINE",
"163 313 LINE"
);
},
{
nodes = (
"135 270 LINE",
"135 267 LINE",
"138 267 LINE",
"138 270 LINE"
);
},
{
nodes = (
"129 196 LINE",
"129 193 LINE",
"132 193 LINE",
"132 196 LINE"
);
},
{
nodes = (
"122 171 LINE",
"119 167 LINE",
"122 162 LINE",
"127 162 LINE",
"129 167 LINE",
"127 171 LINE"
);
},
{
nodes = (
"141 159 LINE",
"141 156 LINE",
"144 156 LINE",
"144 159 LINE"
);
},
{
nodes = (
"117 153 LINE",
"117 150 LINE",
"119 150 LINE",
"119 153 LINE"
);
},
{
nodes = (
"166 140 LINE",
"166 138 LINE",
"169 138 LINE",
"169 140 LINE"
);
},
{
nodes = (
"337 134 LINE",
"335 130 LINE",
"337 125 LINE",
"342 125 LINE",
"345 130 LINE",
"342 134 LINE"
);
},
{
nodes = (
"172 128 LINE",
"172 125 LINE",
"175 125 LINE",
"175 128 LINE"
);
},
{
nodes = (
"184 128 LINE",
"184 125 LINE",
"187 125 LINE",
"187 128 LINE"
);
},
{
nodes = (
"221 128 LINE",
"221 125 LINE",
"224 125 LINE",
"224 128 LINE"
);
},
{
nodes = (
"289 128 LINE",
"289 125 LINE",
"292 125 LINE",
"292 128 LINE"
);
},
{
nodes = (
"166 116 LINE",
"166 113 LINE",
"169 113 LINE",
"169 116 LINE"
);
},
{
nodes = (
"264 116 LINE",
"264 113 LINE",
"267 113 LINE",
"267 116 LINE"
);
},
{
nodes = (
"345 116 LINE",
"345 113 LINE",
"347 113 LINE",
"347 116 LINE"
);
},
{
nodes = (
"209 97 LINE",
"209 94 LINE",
"212 94 LINE",
"212 97 LINE"
);
},
{
nodes = (
"252 91 LINE",
"252 88 LINE",
"255 88 LINE",
"255 91 LINE"
);
}
);
width = 565;
}
);
unicode = 0045;
},
{
glyphname = F;
layers = (
{
layerId = "36F87277-1639-45E8-AAA4-E82D5D969E92";
paths = (
{
nodes = (
"155 701 OFFCURVE",
"409 699 OFFCURVE",
"537 700 QCURVE",
"537 641 OFFCURVE",
"538 525 OFFCURVE",
"537 466 QCURVE",
"467 465 OFFCURVE",
"329 467 OFFCURVE",
"260 466 QCURVE",
"260 423 LINE",
"329 422 OFFCURVE",
"467 424 OFFCURVE",
"537 422 QCURVE",
"538 351 OFFCURVE",
"537 281 QCURVE",
"468 280 OFFCURVE",
"329 282 OFFCURVE",
"260 281 QCURVE",
"259 212 OFFCURVE",
"261 73 OFFCURVE",
"260 4 QCURVE",
"143 2 OFFCURVE",
"26 4 QCURVE",
"25 144 OFFCURVE",
"26 419 OFFCURVE",
"25 558 QCURVE",
"25 593 OFFCURVE",
"25 663 OFFCURVE",
"27 698 QCURVE"
);
},
{
nodes = (
"292 606 LINE",
"292 603 LINE",
"295 603 LINE",
"295 606 LINE"
);
},
{
nodes = (
"249 600 LINE",
"249 597 LINE",
"252 597 LINE",
"252 600 LINE"
);
},
{
nodes = (
"280 594 LINE",
"280 591 LINE",
"283 591 LINE",
"283 594 LINE"
);
},
{
nodes = (
"235 581 OFFCURVE",
"233 566 OFFCURVE",
"241 566 QCURVE SMOOTH",
"247 566 OFFCURVE",
"249 581 OFFCURVE",
"242 581 QCURVE SMOOTH"
);
},
{
nodes = (
"268 581 LINE",
"268 578 LINE",
"270 578 LINE",
"270 581 LINE"
);
},
{
nodes = (
"206 576 LINE",
"206 571 LINE",
"210 569 LINE",
"215 571 LINE",
"215 576 LINE",
"210 579 LINE"
);
},
{
nodes = (
"151 570 LINE",
"151 565 LINE",
"155 562 LINE",
"159 565 LINE",
"159 570 LINE",
"155 573 LINE"
);
},
{
nodes = (
"168 569 LINE",
"165 564 LINE",
"168 560 LINE",
"173 560 LINE",
"176 564 LINE",
"173 569 LINE"
);
},
{
nodes = (
"268 569 LINE",
"268 566 LINE",
"270 566 LINE",
"270 569 LINE"
);
},
{
nodes = (
"329 569 LINE",
"329 566 LINE",
"332 566 LINE",
"332 569 LINE"
);
},
{
nodes = (
"126 557 LINE",
"126 554 LINE",
"129 554 LINE",
"129 557 LINE"
);
},
{
nodes = (
"138 526 LINE",
"136 521 LINE",
"138 516 LINE",
"143 514 LINE",
"148 516 LINE",
"150 521 LINE",
"148 526 LINE",
"143 528 LINE"
);
},
{
nodes = (
"157 507 LINE",
"157 504 LINE",
"160 504 LINE",
"160 507 LINE"
);
},
{
nodes = (
"175 501 LINE",
"175 498 LINE",
"178 498 LINE",
"178 501 LINE"
);
},
{
nodes = (
"132 489 LINE",
"132 486 LINE",
"135 486 LINE",
"135 489 LINE"
);
},
{
nodes = (
"143 476 LINE",
"141 472 LINE",
"143 468 LINE",
"148 468 LINE",
"151 472 LINE",
"148 476 LINE"
);
},
{
nodes = (
"169 470 LINE",
"169 467 LINE",
"172 467 LINE",
"172 470 LINE"
);
},
{
nodes = (
"138 391 LINE",
"138 386 LINE",
"143 384 LINE",
"147 386 LINE",
"147 391 LINE",
"143 394 LINE"
);
},
{
nodes = (
"169 384 LINE",
"169 381 LINE",
"172 381 LINE",
"172 384 LINE"
);
},
{
nodes = (
"163 268 LINE",
"163 263 LINE",
"167 261 LINE",
"172 263 LINE",
"172 268 LINE",
"167 271 LINE"
);
},
{
nodes = (
"132 181 LINE",
"132 178 LINE",
"135 178 LINE",
"135 181 LINE"
);
},
{
nodes = (
"144 150 LINE",
"144 147 LINE",
"147 147 LINE",
"147 150 LINE"
);
}
);
width = 565;
}
);
unicode = 0046;
},
{
glyphname = G;
layers = (
{
layerId = "36F87277-1639-45E8-AAA4-E82D5D969E92";
paths = (
{
nodes = (
"30 695 LINE",
"285 697 OFFCURVE",
"541 695 QCURVE",
"541 637 OFFCURVE",
"543 521 OFFCURVE",
"540 463 QCURVE",
"471 460 OFFCURVE",
"333 463 OFFCURVE",
"264 461 QCURVE",
"263 404 OFFCURVE",
"263 291 OFFCURVE",
"265 234 QCURVE",
"287 235 OFFCURVE",
"332 231 OFFCURVE",
"354 236 QCURVE",
"355 244 OFFCURVE",
"356 268 OFFCURVE",
"357 276 QCURVE",
"309 279 LINE",
"307 314 OFFCURVE",
"306 383 OFFCURVE",
"307 418 QCURVE",
"424 419 OFFCURVE",
"541 418 QCURVE",
"540 313 OFFCURVE",
"543 106 OFFCURVE",
"540 1 QCURVE",
"412 -1 OFFCURVE",
"158 0 OFFCURVE",
"30 0 QCURVE"
);
},
{
nodes = (
"266 595 LINE",
"266 592 LINE",
"268 592 LINE",
"268 595 LINE"
);
},
{
nodes = (
"302 589 LINE",
"302 586 LINE",
"305 586 LINE",
"305 589 LINE"
);
},
{
nodes = (
"198 570 OFFCURVE",
"212 575 QCURVE",
"216 587 OFFCURVE",
"203 584 QCURVE"
);
},
{
nodes = (
"272 577 LINE",
"272 574 LINE",
"275 574 LINE",
"275 577 LINE"
);
},
{
nodes = (
"241 564 LINE",
"241 562 LINE",
"244 562 LINE",
"244 564 LINE"
);
},
{
nodes = (
"161 540 LINE",
"161 537 LINE",
"164 537 LINE",
"164 540 LINE"
);
},
{
nodes = (
"172 534 OFFCURVE",
"182 520 OFFCURVE",
"188 525 QCURVE SMOOTH",
"194 530 OFFCURVE",
"184 543 OFFCURVE",
"178 538 QCURVE SMOOTH"
);
},
{
nodes = (
"198 528 LINE",
"198 525 LINE",
"201 525 LINE",
"201 528 LINE"
);
},
{
nodes = (
"142 509 LINE",
"142 506 LINE",
"145 506 LINE",
"145 509 LINE"
);
},
{
nodes = (
"130 497 LINE",
"130 494 LINE",
"133 494 LINE",
"133 497 LINE"
);
},
{
nodes = (
"167 435 LINE",
"167 432 LINE",
"170 432 LINE",
"170 435 LINE"
);
},
{
nodes = (
"142 429 LINE",
"142 426 LINE",
"145 426 LINE",
"145 429 LINE"
);
},
{
nodes = (
"124 423 LINE",
"124 420 LINE",
"127 420 LINE",
"127 423 LINE"
);
},
{
nodes = (
"118 404 LINE",
"118 401 LINE",
"121 401 LINE",
"121 404 LINE"
);
},
{
nodes = (
"130 404 LINE",
"130 401 LINE",
"133 401 LINE",
"133 404 LINE"
);
},
{
nodes = (
"155 282 LINE",
"155 277 LINE",
"159 275 LINE",
"164 277 LINE",
"164 282 LINE",
"159 285 LINE"
);
},
{
nodes = (
"148 245 OFFCURVE",
"160 239 QCURVE",
"172 245 OFFCURVE",
"160 251 QCURVE"
);
},
{
nodes = (
"161 207 LINE",
"161 204 LINE",
"164 204 LINE",
"164 207 LINE"
);
},
{
nodes = (
"148 201 LINE",
"148 198 LINE",
"151 198 LINE",
"151 201 LINE"
);
},
{
nodes = (
"124 189 LINE",
"124 186 LINE",
"127 186 LINE",
"127 189 LINE"
);
},
{
nodes = (
"185 183 LINE",
"185 180 LINE",
"188 180 LINE",
"188 183 LINE"
);
},
{
nodes = (
"124 165 LINE",
"124 160 LINE",
"128 158 LINE",
"133 160 LINE",
"133 165 LINE",
"128 168 LINE"
);
},
{
nodes = (
"173 164 LINE",
"173 161 LINE",
"176 161 LINE",
"176 164 LINE"
);
},
{
nodes = (
"426 152 LINE",
"426 149 LINE",
"429 149 LINE",
"429 152 LINE"
);
},
{
nodes = (
"154 139 LINE",
"151 135 LINE",
"154 130 LINE",
"159 130 LINE",
"161 135 LINE",
"159 139 LINE"
);
},
{
nodes = (
"247 139 LINE",
"247 137 LINE",
"250 137 LINE",
"250 139 LINE"
);
},
{
nodes = (
"222 133 LINE",
"222 130 LINE",
"225 130 LINE",
"225 133 LINE"
);
},
{
nodes = (
"215 118 OFFCURVE",
"214 114 OFFCURVE",
"213 112 QCURVE",
"216 108 LINE",
"221 105 OFFCURVE",
"226 111 OFFCURVE",
"226 119 OFFCURVE",
"221 124 OFFCURVE",
"216 120 QCURVE"
);
},
{
nodes = (
"376 121 LINE",
"376 118 LINE",
"379 118 LINE",
"379 121 LINE"
);
},
{
nodes = (
"198 115 LINE",
"198 112 LINE",
"201 112 LINE",
"201 115 LINE"
);
},
{
nodes = (
"321 115 LINE",
"321 112 LINE",
"324 112 LINE",
"324 115 LINE"
);
}
);
width = 565;
}
);
unicode = 0047;
},
{
glyphname = H;
layers = (
{
layerId = "36F87277-1639-45E8-AAA4-E82D5D969E92";
paths = (
{
nodes = (
"143 701 OFFCURVE",
"260 699 QCURVE",
"261 629 OFFCURVE",
"260 491 OFFCURVE",
"261 421 QCURVE",
"265 425 OFFCURVE",
"279 423 OFFCURVE",
"294 421 OFFCURVE",
"307 423 OFFCURVE",
"309 431 QCURVE",
"311 498 OFFCURVE",
"308 632 OFFCURVE",
"310 699 QCURVE",
"424 700 OFFCURVE",
"538 699 QCURVE",
"538 552 OFFCURVE",
"538 261 OFFCURVE",
"537 114 QCURVE",
"537 87 OFFCURVE",
"539 33 OFFCURVE",
"544 6 QCURVE",
"485 1 OFFCURVE",
"369 3 OFFCURVE",
"310 3 QCURVE",
"309 72 OFFCURVE",
"311 211 OFFCURVE",
"310 280 QCURVE",
"261 280 LINE",
"260 211 OFFCURVE",
"262 73 OFFCURVE",
"260 3 QCURVE",
"202 3 OFFCURVE",
"86 1 OFFCURVE",
"28 4 QCURVE",
"26 179 OFFCURVE",
"27 524 OFFCURVE",
"27 699 QCURVE"
);
},
{
nodes = (
"151 562 LINE",
"151 559 LINE",
"154 559 LINE",
"154 562 LINE"
);
},
{
nodes = (
"139 513 LINE",
"139 510 LINE",
"142 510 LINE",
"142 513 LINE"
);
},
{
nodes = (
"404 494 LINE",
"404 491 LINE",
"407 491 LINE",
"407 494 LINE"
);
},
{
nodes = (
"410 451 LINE",
"410 448 LINE",
"413 448 LINE",
"413 451 LINE"
);
},
{
nodes = (
"404 433 LINE",
"404 430 LINE",
"407 430 LINE",
"407 433 LINE"
);
},
{
nodes = (
"127 415 LINE",
"127 410 LINE",
"131 408 LINE",
"136 410 LINE",
"136 415 LINE",
"131 418 LINE"
);
},
{
nodes = (
"435 414 LINE",
"435 411 LINE",
"438 411 LINE",
"438 414 LINE"
);
},
{
nodes = (
"157 408 LINE",
"157 405 LINE",
"160 405 LINE",
"160 408 LINE"
);
},
{
nodes = (
"416 396 LINE",
"416 393 LINE",
"419 393 LINE",
"419 396 LINE"
);
},
{
nodes = (
"392 371 LINE",
"392 368 LINE",
"394 368 LINE",
"394 371 LINE"
);
},
{
nodes = (
"188 359 LINE",
"188 356 LINE",
"191 356 LINE",
"191 359 LINE"
);
},
{
nodes = (
"398 359 LINE",
"398 356 LINE",
"401 356 LINE",
"401 359 LINE"
);
},
{
nodes = (
"422 359 LINE",
"422 356 LINE",
"425 356 LINE",
"425 359 LINE"
);
},
{
nodes = (
"201 352 LINE",
"201 350 LINE",
"203 350 LINE",
"203 352 LINE"
);
},
{
nodes = (
"416 346 LINE",
"416 343 LINE",
"419 343 LINE",
"419 346 LINE"
);
},
{
nodes = (
"139 340 LINE",
"139 337 LINE",
"142 337 LINE",
"142 340 LINE"
);
},
{
nodes = (
"373 340 LINE",
"373 337 LINE",
"376 337 LINE",
"376 340 LINE"
);
},
{
nodes = (
"447 340 LINE",
"447 337 LINE",
"450 337 LINE",
"450 340 LINE"
);
},
{
nodes = (
"392 334 LINE",
"392 331 LINE",
"394 331 LINE",
"394 334 LINE"
);
},
{
nodes = (
"392 315 LINE",
"392 313 LINE",
"394 313 LINE",
"394 315 LINE"
);
},
{
nodes = (
"145 297 LINE",
"145 294 LINE",
"148 294 LINE",
"148 297 LINE"
);
},
{
nodes = (
"133 260 LINE",
"133 257 LINE",
"136 257 LINE",
"136 260 LINE"
);
},
{
nodes = (
"390 248 OFFCURVE",
"403 242 QCURVE",
"415 249 OFFCURVE",
"403 255 QCURVE"
);
},
{
nodes = (
"447 242 LINE",
"447 239 LINE",
"450 239 LINE",
"450 242 LINE"
);
},
{
nodes = (
"133 205 LINE",
"133 202 LINE",
"136 202 LINE",
"136 205 LINE"
);
}
);
width = 565;
}
);
unicode = 0048;
},
{
glyphname = I;
layers = (
{
layerId = "36F87277-1639-45E8-AAA4-E82D5D969E92";
paths = (
{
nodes = (
"142 704 OFFCURVE",
"259 703 QCURVE",
"260 563 OFFCURVE",
"259 289 OFFCURVE",
"259 149 QCURVE SMOOTH",
"259 112 OFFCURVE",
"260 39 OFFCURVE",
"257 2 QCURVE",
"203 1 OFFCURVE",
"94 -1 OFFCURVE",
"39 1 QCURVE",
"37 2 OFFCURVE",
"29 3 OFFCURVE",
"27 4 QCURVE",
"23 36 OFFCURVE",
"25 98 OFFCURVE",
"25 130 QCURVE",
"26 274 OFFCURVE",
"24 559 OFFCURVE",
"25 703 QCURVE"
);
},
{
nodes = (
"168 474 LINE",
"168 471 LINE",
"171 471 LINE",
"171 474 LINE"
);
},
{
nodes = (
"156 443 LINE",
"156 440 LINE",
"159 440 LINE",
"159 443 LINE"
);
},
{
nodes = (
"149 430 LINE",
"146 426 LINE",
"149 422 LINE",
"154 422 LINE",
"156 426 LINE",
"154 430 LINE"
);
},
{
nodes = (
"125 381 LINE",
"125 378 LINE",
"128 378 LINE",
"128 381 LINE"
);
},
{
nodes = (
"131 227 LINE",
"131 224 LINE",
"134 224 LINE",
"134 227 LINE"
);
}
);
width = 287;
}
);
unicode = 0049;
},
{
glyphname = J;
layers = (
{
layerId = "36F87277-1639-45E8-AAA4-E82D5D969E92";
paths = (
{
nodes = (
"420 700 OFFCURVE",
"537 699 QCURVE",
"537 3 LINE",
"409 4 OFFCURVE",
"155 2 OFFCURVE",
"27 5 QCURVE",
"24 110 OFFCURVE",
"26 317 OFFCURVE",
"26 422 QCURVE",
"142 424 OFFCURVE",
"259 422 QCURVE",
"259 376 OFFCURVE",
"260 284 OFFCURVE",
"259 238 QCURVE",
"267 238 OFFCURVE",
"295 238 OFFCURVE",
"303 237 QCURVE",
"303 353 OFFCURVE",
"302 583 OFFCURVE",
"303 699 QCURVE"
);
},
{
nodes = (
"415 501 LINE",
"415 498 LINE",
"418 498 LINE",
"418 501 LINE"
);
},
{
nodes = (
"415 433 LINE",
"415 430 LINE",
"418 430 LINE",
"418 433 LINE"
);
},
{
nodes = (
"394 366 OFFCURVE",
"406 369 QCURVE",
"410 382 OFFCURVE",
"397 378 QCURVE"
);
},
{
nodes = (
"415 341 LINE",
"415 338 LINE",
"418 338 LINE",
"418 341 LINE"
);
},
{
nodes = (
"169 273 LINE",
"169 270 LINE",
"172 270 LINE",
"172 273 LINE"
);
},
{
nodes = (
"119 254 LINE",
"119 251 LINE",
"122 251 LINE",
"122 254 LINE"
);
},
{
nodes = (
"150 205 LINE",
"150 202 LINE",
"153 202 LINE",
"153 205 LINE"
);
},
{
nodes = (
"163 192 OFFCURVE",
"177 195 QCURVE",
"181 208 OFFCURVE",
"168 204 QCURVE"
);
},
{
nodes = (
"411 192 OFFCURVE",
"423 195 QCURVE",
"427 208 OFFCURVE",
"414 204 QCURVE"
);
},
{
nodes = (
"384 200 LINE",
"384 195 LINE",
"389 192 LINE",
"393 195 LINE",
"393 200 LINE",
"389 202 LINE"
);
},
{
nodes = (
"144 194 LINE",
"144 189 LINE",
"149 186 LINE",
"153 189 LINE",
"153 194 LINE",
"149 196 LINE"
);
},
{
nodes = (
"167 174 OFFCURVE",
"165 159 OFFCURVE",
"173 159 QCURVE SMOOTH",
"179 159 OFFCURVE",
"181 174 OFFCURVE",
"174 174 QCURVE SMOOTH"
);
},
{
nodes = (
"126 168 LINE",
"126 165 LINE",
"128 165 LINE",
"128 168 LINE"
);
},
{
nodes = (
"192 168 LINE",
"190 164 LINE",
"192 159 LINE",
"197 159 LINE",
"200 164 LINE",
"197 168 LINE"
);
},
{
nodes = (
"362 156 OFFCURVE",
"373 164 QCURVE",
"371 178 OFFCURVE",
"361 169 QCURVE"
);
},
{
nodes = (
"421 168 LINE",
"421 165 LINE",
"424 165 LINE",
"424 168 LINE"
);
},
{
nodes = (
"439 162 LINE",
"436 157 LINE",
"439 153 LINE",
"444 153 LINE",
"446 157 LINE",
"444 162 LINE"
);
},
{
nodes = (
"217 156 LINE",
"214 151 LINE",
"217 147 LINE",
"222 147 LINE",
"225 151 LINE",
"222 156 LINE"
);
},
{
nodes = (
"329 156 LINE",
"329 153 LINE",
"332 153 LINE",
"332 156 LINE"
);
},
{
nodes = (
"200 150 LINE",
"200 147 LINE",
"202 147 LINE",
"202 150 LINE"
);
},
{
nodes = (
"267 150 LINE",
"267 147 LINE",
"270 147 LINE",
"270 150 LINE"
);
},
{
nodes = (
"420 149 LINE",
"418 145 LINE",
"420 141 LINE",
"425 141 LINE",
"428 145 LINE",
"425 149 LINE"
);
},
{
nodes = (
"243 143 LINE",
"243 141 LINE",
"246 141 LINE",
"246 143 LINE"
);
},
{
nodes = (
"175 137 LINE",
"175 134 LINE",
"178 134 LINE",
"178 137 LINE"
);
},
{
nodes = (
"217 131 LINE",
"214 127 LINE",
"217 122 LINE",
"222 122 LINE",
"225 127 LINE",
"222 131 LINE"
);
},
{
nodes = (
"285 131 LINE",
"282 127 LINE",
"285 122 LINE",
"290 122 LINE",
"292 127 LINE",
"290 131 LINE"
);
},
{
nodes = (
"354 131 LINE",
"354 128 LINE",
"356 128 LINE",
"356 131 LINE"
);
},
{
nodes = (
"235 119 LINE",
"233 114 LINE",
"235 110 LINE",
"240 110 LINE",
"243 114 LINE",
"240 119 LINE"
);
},
{
nodes = (
"335 119 LINE",
"335 116 LINE",
"338 116 LINE",
"338 119 LINE"
);
},
{
nodes = (
"169 113 LINE",
"169 110 LINE",
"172 110 LINE",
"172 113 LINE"
);
},
{
nodes = (
"384 113 LINE",
"384 110 LINE",
"387 110 LINE",
"387 113 LINE"
);
},
{
nodes = (
"372 106 LINE",
"372 104 LINE",
"375 104 LINE",
"375 106 LINE"
);
}
);
width = 565;
}
);
unicode = 004A;
},
{
glyphname = K;
layers = (
{
layerId = "36F87277-1639-45E8-AAA4-E82D5D969E92";
paths = (
{
nodes = (
"477 252 OFFCURVE",
"558 88 OFFCURVE",
"593 3 QCURVE",
"467 2 OFFCURVE",
"343 3 QCURVE",
"334 10 OFFCURVE",
"324 30 OFFCURVE",
"319 40 QCURVE SMOOTH",
"303 73 OFFCURVE",
"273 140 OFFCURVE",
"256 173 QCURVE",
"253 131 OFFCURVE",
"263 47 OFFCURVE",
"258 5 QCURVE",
"200 2 OFFCURVE",
"84 3 OFFCURVE",
"26 3 QCURVE",
"25 178 OFFCURVE",
"25 524 OFFCURVE",
"25 699 QCURVE",
"84 699 OFFCURVE",
"200 700 OFFCURVE",
"259 698 QCURVE",
"262 657 OFFCURVE",
"255 577 OFFCURVE",
"257 535 QCURVE",
"279 575 OFFCURVE",
"315 658 OFFCURVE",
"335 699 QCURVE",
"400 700 OFFCURVE",
"527 699 OFFCURVE",
"592 699 QCURVE",
"554 614 OFFCURVE",
"474 448 OFFCURVE",
"436 363 QCURVE",
"432 356 OFFCURVE",
"437 343 OFFCURVE",
"439 337 QCURVE"
);
},
{
nodes = (
"310 454 LINE",
"313 454 LINE",
"313 457 LINE",
"310 457 LINE"
);
},
{
nodes = (
"332 365 LINE",
"329 365 LINE",
"329 362 LINE",
"332 362 LINE"
);
},
{
nodes = (
"310 380 LINE",
"313 380 LINE",
"313 383 LINE",
"310 383 LINE"
);
},
{
nodes = (
"310 371 LINE",
"311 370 OFFCURVE",
"312 370 OFFCURVE",
"313 369 QCURVE",
"313 371 LINE"
);
},
{
nodes = (
"150 322 LINE",
"150 319 LINE",
"153 319 LINE",
"153 322 LINE"
);
},
{
nodes = (
"144 383 LINE",
"144 380 LINE",
"147 380 LINE",
"147 383 LINE"
);
},
{
nodes = (
"182 326 LINE",
"178 324 OFFCURVE",
"179 313 OFFCURVE",
"185 313 QCURVE",
"187 313 OFFCURVE",
"188 314 QCURVE"
);
},
{
nodes = (
"288 399 LINE",
"288 402 LINE",
"286 402 LINE",
"286 399 LINE"
);
},
{
nodes = (
"304 442 LINE",
"307 442 LINE",
"307 445 LINE",
"304 445 LINE"
);
},
{
nodes = (
"304 417 LINE",
"307 417 LINE",
"307 420 LINE",
"304 420 LINE"
);
},
{
nodes = (
"286 430 LINE",
"288 430 LINE",
"288 432 LINE",
"286 432 LINE"
);
},
{
nodes = (
"274 407 OFFCURVE",
"288 412 QCURVE",
"291 425 OFFCURVE",
"279 421 QCURVE"
);
},
{
nodes = (
"261 417 LINE",
"264 417 LINE",
"264 420 LINE",
"261 420 LINE"
);
},
{
nodes = (
"258 403 OFFCURVE",
"254 411 QCURVE",
"251 409 OFFCURVE",
"243 405 QCURVE",
"248 403 OFFCURVE",
"256 398 OFFCURVE",
"260 396 QCURVE"
);
},
{
nodes = (
"239 423 LINE",
"239 426 LINE",
"236 426 LINE",
"236 423 LINE"
);
},
{
nodes = (
"229 439 OFFCURVE",
"242 433 QCURVE",
"255 439 OFFCURVE",
"242 446 QCURVE"
);
},
{
nodes = (
"213 427 OFFCURVE",
"215 422 QCURVE",
"221 418 OFFCURVE",
"224 417 QCURVE",
"225 417 LINE",
"230 421 OFFCURVE",
"223 434 OFFCURVE",
"217 430 QCURVE SMOOTH"
);
},
{
nodes = (
"200 438 OFFCURVE",
"214 443 QCURVE",
"217 455 OFFCURVE",
"205 452 QCURVE"
);
},
{
nodes = (
"196 451 LINE",
"193 451 LINE",
"193 448 LINE",
"196 448 LINE"
);
},
{
nodes = (
"178 464 OFFCURVE",
"190 455 OFFCURVE",
"195 460 QCURVE SMOOTH",
"199 465 OFFCURVE",
"187 475 OFFCURVE",
"182 470 QCURVE"
);
},
{
nodes = (
"181 448 LINE",
"184 448 LINE",
"184 451 LINE",
"181 451 LINE"
);
},
{
nodes = (
"174 455 OFFCURVE",
"168 457 QCURVE",
"164 457 LINE",
"166 455 OFFCURVE",
"171 451 OFFCURVE",
"174 449 QCURVE"
);
},
{
nodes = (
"162 516 LINE",
"165 516 LINE",
"165 519 LINE",
"162 519 LINE"
);
},
{
nodes = (
"154 493 OFFCURVE",
"159 479 OFFCURVE",
"166 482 QCURVE",
"174 484 OFFCURVE",
"168 497 OFFCURVE",
"162 495 QCURVE SMOOTH"
);
},
{
nodes = (
"118 260 LINE",
"122 262 LINE",
"122 267 LINE",
"118 270 LINE",
"113 267 LINE",
"113 262 LINE"
);
},
{
nodes = (
"122 229 LINE",
"119 229 LINE",
"119 226 LINE",
"122 226 LINE"
);
},
{
nodes = (
"122 242 LINE",
"119 242 LINE",
"119 239 LINE",
"122 239 LINE"
);
},
{
nodes = (
"122 352 LINE",
"119 352 LINE",
"119 350 LINE",
"122 350 LINE"
);
},
{
nodes = (
"122 439 LINE",
"119 439 LINE",
"119 436 LINE",
"122 436 LINE"
);
},
{
nodes = (
"138 405 LINE",
"140 405 LINE",
"140 406 OFFCURVE",
"139 407 OFFCURVE",
"139 408 QCURVE",
"138 408 LINE"
);
},
{
nodes = (
"147 199 LINE",
"142 202 LINE",
"138 199 LINE",
"138 194 LINE",
"142 192 LINE",
"147 194 LINE"
);
},
{
nodes = (
"147 242 LINE",
"144 242 LINE",
"144 239 LINE",
"147 239 LINE"
);
},
{
nodes = (
"140 273 OFFCURVE",
"154 276 QCURVE",
"157 289 OFFCURVE",
"145 285 QCURVE"
);
},
{
nodes = (
"159 155 LINE",
"156 155 LINE",
"156 152 LINE",
"159 152 LINE"
);
},
{
nodes = (
"165 143 LINE",
"162 143 LINE",
"162 140 LINE",
"165 140 LINE"
);
},
{
nodes = (
"169 241 OFFCURVE",
"156 236 QCURVE",
"151 222 OFFCURVE",
"164 227 QCURVE"
);
},
{
nodes = (
"165 325 LINE",
"165 328 LINE",
"162 328 LINE",
"162 325 LINE"
);
},
{
nodes = (
"155 343 OFFCURVE",
"169 339 OFFCURVE",
"175 342 QCURVE",
"173 345 OFFCURVE",
"170 352 OFFCURVE",
"168 355 QCURVE",
"159 355 OFFCURVE",
"157 350 QCURVE SMOOTH"
);
},
{
nodes = (
"171 205 LINE",
"169 205 LINE",
"169 202 LINE",
"171 202 LINE"
);
},
{
nodes = (
"171 223 LINE",
"169 223 LINE",
"169 220 LINE",
"171 220 LINE"
);
},
{
nodes = (
"192 278 OFFCURVE",
"179 274 QCURVE",
"184 276 OFFCURVE",
"191 285 OFFCURVE",
"188 290 QCURVE",
"184 293 OFFCURVE",
"175 288 OFFCURVE",
"170 280 OFFCURVE",
"172 273 OFFCURVE",
"179 274 QCURVE",
"174 260 OFFCURVE",
"188 265 QCURVE"
);
},
{
nodes = (
"190 303 LINE",
"187 303 LINE",
"187 300 LINE",
"190 300 LINE"
);
},
{
nodes = (
"196 254 LINE",
"193 254 LINE",
"193 251 LINE",
"196 251 LINE"
);
},
{
nodes = (
"206 262 LINE",
"208 263 OFFCURVE",
"210 263 OFFCURVE",
"212 264 QCURVE",
"210 268 OFFCURVE",
"209 271 QCURVE"
);
},
{
nodes = (
"299 271 LINE",
"298 266 OFFCURVE",
"304 261 OFFCURVE",
"313 261 OFFCURVE",
"320 264 OFFCURVE",
"320 269 QCURVE",
"319 271 OFFCURVE",
"314 274 QCURVE",
"306 272 OFFCURVE",
"301 273 QCURVE"
);
},
{
nodes = (
"325 365 OFFCURVE",
"336 373 QCURVE",
"334 387 OFFCURVE",
"324 378 QCURVE"
);
},
{
nodes = (
"338 420 LINE",
"335 420 LINE",
"335 417 LINE",
"338 417 LINE"
);
},
{
nodes = (
"338 469 LINE",
"335 469 LINE",
"335 467 LINE",
"338 467 LINE"
);
},
{
nodes = (
"341 491 LINE",
"344 491 LINE",
"344 494 LINE",
"341 494 LINE"
);
},
{
nodes = (
"344 408 LINE",
"341 408 LINE",
"341 405 LINE",
"344 405 LINE"
);
},
{
nodes = (
"346 473 LINE",
"351 473 LINE",
"354 477 LINE",
"351 482 LINE",
"346 482 LINE",
"344 477 LINE"
);
},
{
nodes = (
"347 442 LINE",
"350 442 LINE",
"350 445 LINE",
"347 445 LINE"
);
},
{
nodes = (
"362 198 LINE",
"360 198 LINE",
"360 196 LINE",
"362 196 LINE"
);
},
{
nodes = (
"368 236 OFFCURVE",
"358 253 OFFCURVE",
"351 249 QCURVE SMOOTH",
"346 245 OFFCURVE",
"354 230 OFFCURVE",
"361 232 QCURVE"
);
},
{
nodes = (
"369 482 LINE",
"366 482 LINE",
"366 479 LINE",
"369 479 LINE"
);
},
{
nodes = (
"369 506 LINE",
"366 506 LINE",
"366 504 LINE",
"369 504 LINE"
);
},
{
nodes = (
"387 180 LINE",
"384 180 LINE",
"384 177 LINE",
"387 177 LINE"
);
},
{
nodes = (
"418 543 LINE",
"415 543 LINE",
"415 541 LINE",
"418 541 LINE"
);
}
);
width = 611;
}
);
unicode = 004B;
},
{
glyphname = L;
layers = (
{
layerId = "36F87277-1639-45E8-AAA4-E82D5D969E92";
paths = (
{
nodes = (
"141 696 OFFCURVE",
"255 695 QCURVE",
"256 579 OFFCURVE",
"254 349 OFFCURVE",
"255 233 QCURVE",
"314 232 OFFCURVE",
"430 234 OFFCURVE",
"489 233 QCURVE",
"489 174 OFFCURVE",
"490 58 OFFCURVE",
"489 -1 QCURVE",
"396 -2 OFFCURVE",
"213 0 OFFCURVE",
"120 -2 QCURVE",
"94 -2 OFFCURVE",
"45 0 OFFCURVE",
"20 3 QCURVE",
"29 66 OFFCURVE",
"26 193 OFFCURVE",
"27 257 QCURVE",
"27 367 OFFCURVE",
"26 585 OFFCURVE",
"27 695 QCURVE"
);
},
{
nodes = (
"164 490 LINE",
"164 487 LINE",
"167 487 LINE",
"167 490 LINE"
);
},
{
nodes = (
"115 176 LINE",
"115 173 LINE",
"118 173 LINE",
"118 176 LINE"
);
},
{
nodes = (
"152 157 LINE",
"152 155 LINE",
"155 155 LINE",
"155 157 LINE"
);
},
{
nodes = (
"245 132 OFFCURVE",
"258 137 QCURVE",
"263 151 OFFCURVE",
"250 146 QCURVE"
);
},
{
nodes = (
"152 139 LINE",
"152 136 LINE",
"155 136 LINE",
"155 139 LINE"
);
},
{
nodes = (
"287 139 LINE",
"287 136 LINE",
"290 136 LINE",
"290 139 LINE"
);
},
{
nodes = (
"213 134 LINE",
"213 129 LINE",
"218 126 LINE",
"222 129 LINE",
"222 134 LINE",
"218 136 LINE"
);
},
{
nodes = (
"263 127 LINE",
"263 124 LINE",
"266 124 LINE",
"266 127 LINE"
);
},
{
nodes = (
"176 109 OFFCURVE",
"188 103 QCURVE",
"200 109 OFFCURVE",
"188 115 QCURVE"
);
},
{
nodes = (
"170 96 LINE",
"170 93 LINE",
"173 93 LINE",
"173 96 LINE"
);
}
);
width = 518;
}
);
unicode = 004C;
},
{
glyphname = M;
layers = (
{
layerId = "36F87277-1639-45E8-AAA4-E82D5D969E92";
paths = (
{
nodes = (
"227 705 OFFCURVE",
"622 703 OFFCURVE",
"821 704 QCURVE",
"822 564 OFFCURVE",
"821 289 OFFCURVE",
"821 149 QCURVE SMOOTH",
"821 113 OFFCURVE",
"822 40 OFFCURVE",
"819 3 QCURVE",
"761 1 OFFCURVE",
"646 1 OFFCURVE",
"587 2 QCURVE",
"586 120 OFFCURVE",
"588 352 OFFCURVE",
"587 470 QCURVE",
"544 470 LINE",
"543 355 OFFCURVE",
"545 125 OFFCURVE",
"544 10 QCURVE",
"542 8 OFFCURVE",
"537 4 OFFCURVE",
"535 2 QCURVE",
"478 0 OFFCURVE",
"367 2 OFFCURVE",
"310 2 QCURVE",
"309 120 OFFCURVE",
"311 352 OFFCURVE",
"310 470 QCURVE",
"260 470 LINE",
"260 352 OFFCURVE",
"261 120 OFFCURVE",
"260 2 QCURVE",
"202 2 OFFCURVE",
"86 0 OFFCURVE",
"28 3 QCURVE",
"25 113 OFFCURVE",
"27 330 OFFCURVE",
"26 439 QCURVE",
"28 505 OFFCURVE",
"24 637 OFFCURVE",
"28 703 QCURVE"
);
},
{
nodes = (
"318 616 LINE",
"318 613 LINE",
"320 613 LINE",
"320 616 LINE"
);
},
{
nodes = (
"367 616 LINE",
"367 613 LINE",
"370 613 LINE",
"370 616 LINE"
);
},
{
nodes = (
"513 607 OFFCURVE",
"515 601 OFFCURVE",
"522 598 OFFCURVE",
"529 599 OFFCURVE",
"531 603 QCURVE SMOOTH",
"533 610 OFFCURVE",
"520 615 OFFCURVE",
"516 611 QCURVE SMOOTH"
);
},
{
nodes = (
"558 610 LINE",
"558 607 LINE",
"561 607 LINE",
"561 610 LINE"
);
},
{
nodes = (
"336 604 LINE",
"336 601 LINE",
"339 601 LINE",
"339 604 LINE"
);
},
{
nodes = (
"274 598 LINE",
"274 595 LINE",
"277 595 LINE",
"277 598 LINE"
);
},
{
nodes = (
"472 598 LINE",
"472 595 LINE",
"474 595 LINE",
"474 598 LINE"
);
},
{
nodes = (
"558 598 OFFCURVE",
"547 593 OFFCURVE",
"545 587 QCURVE",
"546 582 OFFCURVE",
"556 582 OFFCURVE",
"565 587 OFFCURVE",
"568 594 OFFCURVE",
"564 597 QCURVE"
);
},
{
nodes = (
"724 598 LINE",
"724 595 LINE",
"727 595 LINE",
"727 598 LINE"
);
},
{
nodes = (
"194 591 LINE",
"194 589 LINE",
"197 589 LINE",
"197 591 LINE"
);
},
{
nodes = (
"237 591 LINE",
"237 589 LINE",
"240 589 LINE",
"240 591 LINE"
);
},
{
nodes = (
"632 591 LINE",
"632 589 LINE",
"635 589 LINE",
"635 591 LINE"
);
},
{
nodes = (
"675 591 LINE",
"675 589 LINE",
"678 589 LINE",
"678 591 LINE"
);
},
{
nodes = (
"206 580 OFFCURVE",
"218 574 QCURVE",
"230 580 OFFCURVE",
"218 586 QCURVE"
);
},
{
nodes = (
"293 585 LINE",
"293 582 LINE",
"296 582 LINE",
"296 585 LINE"
);
},
{
nodes = (
"342 585 LINE",
"342 582 LINE",
"345 582 LINE",
"345 585 LINE"
);
},
{
nodes = (
"509 585 LINE",
"509 582 LINE",
"511 582 LINE",
"511 585 LINE"
);
},
{
nodes = (
"607 585 LINE",
"607 582 LINE",
"610 582 LINE",
"610 585 LINE"
);
},
{
nodes = (
"644 585 LINE",
"644 582 LINE",
"647 582 LINE",
"647 585 LINE"
);
},
{
nodes = (
"699 585 LINE",
"699 582 LINE",
"702 582 LINE",
"702 585 LINE"
);
},
{
nodes = (
"164 579 LINE",
"164 576 LINE",
"166 576 LINE",
"166 579 LINE"
);
},
{
nodes = (
"398 579 LINE",
"398 576 LINE",
"400 576 LINE",
"400 579 LINE"
);
},
{
nodes = (
"435 580 LINE",
"435 575 LINE",
"439 573 LINE",
"444 575 LINE",
"444 580 LINE",
"439 583 LINE"
);
},
{
nodes = (
"453 580 LINE",
"453 575 LINE",
"458 573 LINE",
"462 575 LINE",
"462 580 LINE",
"458 583 LINE"
);
},
{
nodes = (
"478 579 LINE",
"478 576 LINE",
"481 576 LINE",
"481 579 LINE"
);
},
{
nodes = (
"656 579 LINE",
"656 576 LINE",
"659 576 LINE",
"659 579 LINE"
);
},
{
nodes = (
"250 573 LINE",
"250 570 LINE",
"253 570 LINE",
"253 573 LINE"
);
},
{
nodes = (
"336 573 LINE",
"336 570 LINE",
"339 570 LINE",
"339 573 LINE"
);
},
{
nodes = (
"558 574 LINE",
"558 569 LINE",
"562 567 LINE",
"567 569 LINE",
"567 574 LINE",
"562 577 LINE"
);
},
{
nodes = (
"576 573 LINE",
"576 570 LINE",
"579 570 LINE",
"579 573 LINE"
);
},
{
nodes = (
"661 573 OFFCURVE",
"661 558 OFFCURVE",
"668 558 QCURVE SMOOTH",
"675 558 OFFCURVE",
"675 573 OFFCURVE",
"668 573 QCURVE SMOOTH"
);
},
{
nodes = (
"213 567 LINE",
"213 564 LINE",
"216 564 LINE",
"216 567 LINE"
);
},
{
nodes = (
"416 561 LINE",
"416 558 LINE",
"419 558 LINE",
"419 561 LINE"
);
},
{
nodes = (
"423 548 OFFCURVE",
"436 553 QCURVE",
"441 566 OFFCURVE",
"428 561 QCURVE"
);
},
{
nodes = (
"490 561 LINE",
"490 558 LINE",
"493 558 LINE",
"493 561 LINE"
);
},
{
nodes = (
"502 561 LINE",
"502 558 LINE",
"505 558 LINE",
"505 561 LINE"
);
},
{
nodes = (
"558 561 LINE",
"558 558 LINE",
"561 558 LINE",
"561 561 LINE"
);
},
{
nodes = (
"601 561 LINE",
"601 558 LINE",
"604 558 LINE",
"604 561 LINE"
);
},
{
nodes = (
"632 562 LINE",
"632 557 LINE",
"636 554 LINE",
"641 557 LINE",
"641 562 LINE",
"636 564 LINE"
);
},
{
nodes = (
"391 555 LINE",
"391 552 LINE",
"394 552 LINE",
"394 555 LINE"
);
},
{
nodes = (
"465 555 LINE",
"465 552 LINE",
"468 552 LINE",
"468 555 LINE"
);
},
{
nodes = (
"619 555 LINE",
"619 552 LINE",
"622 552 LINE",
"622 555 LINE"
);
},
{
nodes = (
"655 554 LINE",
"653 550 LINE",
"655 546 LINE",
"660 546 LINE",
"663 550 LINE",
"660 554 LINE"
);
},
{
nodes = (
"188 548 LINE",
"188 546 LINE",
"191 546 LINE",
"191 548 LINE"
);
},
{
nodes = (
"433 549 OFFCURVE",
"431 534 OFFCURVE",
"438 533 QCURVE",
"445 533 OFFCURVE",
"447 548 OFFCURVE",
"440 548 QCURVE"
);
},
{
nodes = (
"133 542 LINE",
"133 539 LINE",
"136 539 LINE",
"136 542 LINE"
);
},
{
nodes = (
"712 542 LINE",
"712 539 LINE",
"715 539 LINE",
"715 542 LINE"
);
},
{
nodes = (
"151 536 LINE",
"151 533 LINE",
"154 533 LINE",
"154 536 LINE"
);
},
{
nodes = (
"373 536 LINE",
"373 533 LINE",
"376 533 LINE",
"376 536 LINE"
);
},
{
nodes = (
"450 532 OFFCURVE",
"457 519 OFFCURVE",
"463 523 QCURVE SMOOTH",
"468 527 OFFCURVE",
"460 540 OFFCURVE",
"455 536 QCURVE SMOOTH"
);
},
{
nodes = (
"650 536 LINE",
"650 533 LINE",
"653 533 LINE",
"653 536 LINE"
);
},
{
nodes = (
"668 536 LINE",
"665 532 LINE",
"668 527 LINE",
"673 527 LINE",
"675 532 LINE",
"673 536 LINE"
);
},
{
nodes = (
"417 515 OFFCURVE",
"430 520 QCURVE",
"435 534 OFFCURVE",
"422 529 QCURVE"
);
},
{
nodes = (
"718 530 LINE",
"718 527 LINE",
"721 527 LINE",
"721 530 LINE"
);
},
{
nodes = (
"441 525 LINE",
"441 520 LINE",
"445 517 LINE",
"450 520 LINE",
"450 525 LINE",
"445 527 LINE"
);
},
{
nodes = (
"379 518 LINE",
"379 515 LINE",
"382 515 LINE",
"382 518 LINE"
);
},
{
nodes = (
"708 506 OFFCURVE",
"722 509 QCURVE",
"725 522 OFFCURVE",
"713 518 QCURVE"
);
},
{
nodes = (
"422 512 LINE",
"422 507 LINE",
"427 505 LINE",
"431 507 LINE",
"431 512 LINE",
"427 515 LINE"
);
},
{
nodes = (
"434 506 OFFCURVE",
"446 500 QCURVE",
"458 506 OFFCURVE",
"446 512 QCURVE"
);
},
{
nodes = (
"453 493 LINE",
"453 490 LINE",
"456 490 LINE",
"456 493 LINE"
);
},
{
nodes = (
"133 487 LINE",
"133 484 LINE",
"136 484 LINE",
"136 487 LINE"
);
},
{
nodes = (
"675 481 LINE",
"675 478 LINE",
"678 478 LINE",
"678 481 LINE"
);
},
{
nodes = (
"170 476 LINE",
"170 470 LINE",
"174 468 LINE",
"179 470 LINE",
"179 476 LINE",
"174 478 LINE"
);
},
{
nodes = (
"428 474 LINE",
"428 472 LINE",
"431 472 LINE",
"431 474 LINE"
);
},
{
nodes = (
"441 474 LINE",
"441 472 LINE",
"444 472 LINE",
"444 474 LINE"
);
},
{
nodes = (
"151 468 LINE",
"151 465 LINE",
"154 465 LINE",
"154 468 LINE"
);
},
{
nodes = (
"127 462 LINE",
"127 459 LINE",
"129 459 LINE",
"129 462 LINE"
);
},
{
nodes = (
"422 462 LINE",
"422 459 LINE",
"425 459 LINE",
"425 462 LINE"
);
},
{
nodes = (
"144 450 LINE",
"141 445 LINE",
"144 441 LINE",
"149 441 LINE",
"151 445 LINE",
"149 450 LINE"
);
},
{
nodes = (
"164 437 LINE",
"164 435 LINE",
"166 435 LINE",
"166 437 LINE"
);
},
{
nodes = (
"151 419 LINE",
"151 416 LINE",
"154 416 LINE",
"154 419 LINE"
);
},
{
nodes = (
"428 414 OFFCURVE",
"440 407 QCURVE",
"452 414 OFFCURVE",
"440 420 QCURVE"
);
},
{
nodes = (
"675 419 LINE",
"675 416 LINE",
"678 416 LINE",
"678 419 LINE"
);
},
{
nodes = (
"120 407 LINE",
"120 404 LINE",
"123 404 LINE",
"123 407 LINE"
);
},
{
nodes = (
"416 407 LINE",
"416 404 LINE",
"419 404 LINE",
"419 407 LINE"
);
},
{
nodes = (
"730 394 LINE",
"730 392 LINE",
"733 392 LINE",
"733 394 LINE"
);
},
{
nodes = (
"133 345 LINE",
"133 342 LINE",
"136 342 LINE",
"136 345 LINE"
);
},
{
nodes = (
"145 259 LINE",
"145 256 LINE",
"148 256 LINE",
"148 259 LINE"
);
},
{
nodes = (
"724 259 LINE",
"724 256 LINE",
"727 256 LINE",
"727 259 LINE"
);
},
{
nodes = (
"151 235 OFFCURVE",
"163 229 QCURVE",
"175 235 OFFCURVE",
"163 241 QCURVE"
);
},
{
nodes = (
"681 191 LINE",
"681 188 LINE",
"684 188 LINE",
"684 191 LINE"
);
},
{
nodes = (
"699 191 LINE",
"699 188 LINE",
"702 188 LINE",
"702 191 LINE"
);
},
{
nodes = (
"699 173 LINE",
"699 170 LINE",
"702 170 LINE",
"702 173 LINE"
);
},
{
nodes = (
"398 154 LINE",
"398 151 LINE",
"400 151 LINE",
"400 154 LINE"
);
},
{
nodes = (
"428 154 LINE",
"428 151 LINE",
"431 151 LINE",
"431 154 LINE"
);
}
);
width = 842;
}
);
unicode = 004D;
},
{
glyphname = N;
layers = (
{
layerId = "36F87277-1639-45E8-AAA4-E82D5D969E92";
paths = (
{
nodes = (
"540 521 OFFCURVE",
"540 173 OFFCURVE",
"539 -4 QCURVE",
"494 -4 OFFCURVE",
"404 -6 OFFCURVE",
"359 -4 QCURVE",
"355 0 OFFCURVE",
"351 2 QCURVE",
"326 41 OFFCURVE",
"286 122 OFFCURVE",
"266 163 QCURVE",
"261 122 OFFCURVE",
"265 40 OFFCURVE",
"260 -1 QCURVE",
"202 -7 OFFCURVE",
"87 -3 OFFCURVE",
"29 -4 QCURVE",
"27 347 OFFCURVE",
"29 698 QCURVE",
"120 699 OFFCURVE",
"212 698 QCURVE",
"238 657 OFFCURVE",
"280 573 OFFCURVE",
"303 531 QCURVE",
"308 573 OFFCURVE",
"305 655 OFFCURVE",
"306 697 QCURVE",
"365 699 OFFCURVE",
"481 698 OFFCURVE",
"540 698 QCURVE"
);
},
{
nodes = (
"119 308 LINE",
"116 308 LINE",
"116 305 LINE",
"119 305 LINE"
);
},
{
nodes = (
"443 262 LINE",
"446 262 LINE",
"446 265 LINE",
"443 265 LINE"
);
},
{
nodes = (
"430 410 LINE",
"433 410 LINE",
"433 413 LINE",
"430 413 LINE"
);
},
{
nodes = (
"430 398 LINE",
"433 398 LINE",
"433 401 LINE",
"430 401 LINE"
);
},
{
nodes = (
"418 472 LINE",
"421 472 LINE",
"421 475 LINE",
"418 475 LINE"
);
},
{
nodes = (
"412 441 OFFCURVE",
"413 436 OFFCURVE",
"418 433 OFFCURVE",
"424 432 OFFCURVE",
"426 435 QCURVE SMOOTH",
"430 440 OFFCURVE",
"418 449 OFFCURVE",
"414 444 QCURVE SMOOTH"
);
},
{
nodes = (
"424 388 LINE",
"424 385 LINE",
"427 385 LINE",
"427 388 LINE"
);
},
{
nodes = (
"399 374 OFFCURVE",
"401 369 OFFCURVE",
"405 366 OFFCURVE",
"411 366 OFFCURVE",
"413 369 QCURVE SMOOTH",
"417 374 OFFCURVE",
"405 382 OFFCURVE",
"401 377 QCURVE SMOOTH"
);
},
{
nodes = (
"397 396 OFFCURVE",
"409 387 OFFCURVE",
"413 392 QCURVE SMOOTH",
"417 397 OFFCURVE",
"405 406 OFFCURVE",
"401 401 QCURVE SMOOTH"
);
},
{
nodes = (
"413 323 OFFCURVE",
"405 311 OFFCURVE",
"408 305 QCURVE",
"412 303 OFFCURVE",
"419 308 OFFCURVE",
"424 315 OFFCURVE",
"423 323 OFFCURVE",
"419 325 QCURVE"
);
},
{
nodes = (
"397 420 OFFCURVE",
"409 423 QCURVE",
"413 436 OFFCURVE",
"400 432 QCURVE"
);
},
{
nodes = (
"403 358 OFFCURVE",
"399 356 OFFCURVE",
"397 356 QCURVE",
"395 352 LINE",
"395 346 OFFCURVE",
"403 345 OFFCURVE",
"409 349 OFFCURVE",
"411 356 OFFCURVE",
"405 358 QCURVE"
);
},
{
nodes = (
"400 333 LINE",
"400 330 LINE",
"402 330 LINE",
"402 333 LINE"
);
},
{
nodes = (
"381 316 OFFCURVE",
"387 314 OFFCURVE",
"394 316 OFFCURVE",
"398 321 OFFCURVE",
"395 325 QCURVE",
"393 326 OFFCURVE",
"388 327 OFFCURVE",
"386 328 QCURVE",
"384 324 OFFCURVE",
"381 321 QCURVE"
);
},
{
nodes = (
"387 302 LINE",
"387 299 LINE",
"390 299 LINE",
"390 302 LINE"
);
},
{
nodes = (
"349 314 OFFCURVE",
"352 308 OFFCURVE",
"354 306 QCURVE",
"357 317 OFFCURVE",
"347 316 QCURVE"
);
},
{
nodes = (
"386 303 OFFCURVE",
"374 309 QCURVE",
"362 303 OFFCURVE",
"374 297 QCURVE"
);
},
{
nodes = (
"375 277 LINE",
"375 275 LINE",
"378 275 LINE",
"378 277 LINE"
);
},
{
nodes = (
"367 313 OFFCURVE",
"372 320 OFFCURVE",
"372 330 OFFCURVE",
"367 337 OFFCURVE",
"363 336 QCURVE",
"359 331 OFFCURVE",
"359 319 OFFCURVE",
"363 315 QCURVE"
);
},
{
nodes = (
"394 466 LINE",
"396 466 LINE",
"396 468 LINE",
"394 468 LINE"
);
},
{
nodes = (
"387 478 LINE",
"390 478 LINE",
"390 481 LINE",
"387 481 LINE"
);
},
{
nodes = (
"382 406 OFFCURVE",
"395 411 QCURVE",
"400 425 OFFCURVE",
"387 420 QCURVE"
);
},
{
nodes = (
"381 429 LINE",
"384 429 LINE",
"384 431 LINE",
"381 431 LINE"
);
},
{
nodes = (
"384 344 OFFCURVE",
"380 346 QCURVE",
"379 344 OFFCURVE",
"376 341 OFFCURVE",
"375 339 QCURVE",
"375 334 OFFCURVE",
"381 332 OFFCURVE",
"388 334 OFFCURVE",
"392 340 OFFCURVE",
"389 344 QCURVE"
);
},
{
nodes = (
"378 367 LINE",
"378 370 LINE",
"375 370 LINE",
"375 367 LINE"
);
},
{
nodes = (
"382 399 OFFCURVE",
"370 395 QCURVE",
"365 383 OFFCURVE",
"379 386 QCURVE"
);
},
{
nodes = (
"375 466 LINE",
"378 466 LINE",
"378 468 LINE",
"375 468 LINE"
);
},
{
nodes = (
"354 417 OFFCURVE",
"359 401 OFFCURVE",
"366 402 QCURVE SMOOTH",
"370 403 OFFCURVE",
"372 409 OFFCURVE",
"370 415 OFFCURVE",
"365 420 OFFCURVE",
"362 419 QCURVE SMOOTH"
);
},
{
nodes = (
"350 383 OFFCURVE",
"358 370 OFFCURVE",
"364 375 QCURVE SMOOTH",
"369 379 OFFCURVE",
"361 391 OFFCURVE",
"356 387 QCURVE SMOOTH"
);
},
{
nodes = (
"350 355 LINE",
"353 355 LINE",
"353 357 LINE",
"350 357 LINE"
);
},
{
nodes = (
"362 334 OFFCURVE",
"350 340 QCURVE",
"337 334 OFFCURVE",
"349 327 QCURVE"
);
},
{
nodes = (
"338 429 LINE",
"341 429 LINE",
"341 431 LINE",
"338 431 LINE"
);
},
{
nodes = (
"329 414 OFFCURVE",
"341 405 OFFCURVE",
"346 410 QCURVE SMOOTH",
"350 415 OFFCURVE",
"338 424 OFFCURVE",
"333 419 QCURVE SMOOTH"
);
},
{
nodes = (
"322 363 OFFCURVE",
"336 351 OFFCURVE",
"341 356 QCURVE SMOOTH",
"346 362 OFFCURVE",
"332 374 OFFCURVE",
"327 369 QCURVE SMOOTH"
);
},
{
nodes = (
"311 406 OFFCURVE",
"323 411 QCURVE",
"327 424 OFFCURVE",
"314 420 QCURVE"
);
},
{
nodes = (
"209 293 LINE",
"212 293 LINE",
"210 295 OFFCURVE",
"210 296 QCURVE",
"209 296 LINE"
);
},
{
nodes = (
"192 343 LINE",
"190 349 OFFCURVE",
"176 355 OFFCURVE",
"172 349 QCURVE",
"170 342 OFFCURVE",
"185 333 OFFCURVE",
"191 337 QCURVE",
"192 339 OFFCURVE",
"192 342 QCURVE"
);
},
{
nodes = (
"177 286 OFFCURVE",
"165 295 OFFCURVE",
"161 290 QCURVE SMOOTH",
"159 287 OFFCURVE",
"161 282 OFFCURVE",
"165 279 OFFCURVE",
"171 278 OFFCURVE",
"173 281 QCURVE SMOOTH"
);
},
{
nodes = (
"168 324 LINE",
"168 327 LINE",
"166 327 LINE",
"166 324 LINE"
);
},
{
nodes = (
"175 299 LINE",
"175 302 LINE",
"172 302 LINE",
"172 299 LINE"
);
},
{
nodes = (
"180 384 LINE",
"183 379 LINE",
"186 379 LINE",
"183 388 LINE"
);
},
{
nodes = (
"189 365 OFFCURVE",
"177 371 QCURVE",
"164 364 OFFCURVE",
"177 358 QCURVE"
);
},
{
nodes = (
"163 468 OFFCURVE",
"175 473 QCURVE",
"180 486 OFFCURVE",
"166 481 QCURVE"
);
},
{
nodes = (
"159 515 LINE",
"162 515 LINE",
"162 518 LINE",
"159 518 LINE"
);
},
{
nodes = (
"153 496 LINE",
"156 496 LINE",
"156 499 LINE",
"153 499 LINE"
);
},
{
nodes = (
"154 428 OFFCURVE",
"146 416 OFFCURVE",
"153 414 QCURVE SMOOTH",
"157 412 OFFCURVE",
"165 416 OFFCURVE",
"168 422 OFFCURVE",
"165 428 OFFCURVE",
"159 427 QCURVE"
);
},
{
nodes = (
"159 367 OFFCURVE",
"146 363 QCURVE",
"143 349 OFFCURVE",
"155 354 QCURVE"
);
},
{
nodes = (
"150 450 LINE",
"147 450 LINE",
"147 447 LINE",
"150 447 LINE"
);
},
{
nodes = (
"141 464 LINE",
"145 462 LINE",
"150 464 LINE",
"150 469 LINE",
"145 472 LINE",
"141 469 LINE"
);
},
{
nodes = (
"122 471 LINE",
"127 468 LINE",
"131 471 LINE",
"131 476 LINE",
"127 478 LINE",
"122 476 LINE"
);
},
{
nodes = (
"117 374 OFFCURVE",
"131 379 QCURVE",
"134 392 OFFCURVE",
"122 387 QCURVE"
);
},
{
nodes = (
"138 266 LINE",
"133 269 LINE",
"129 266 LINE",
"129 261 LINE",
"133 259 LINE",
"138 261 LINE"
);
},
{
nodes = (
"144 148 LINE",
"141 148 LINE",
"141 145 LINE",
"144 145 LINE"
);
},
{
nodes = (
"144 438 LINE",
"141 438 LINE",
"141 435 LINE",
"144 435 LINE"
);
},
{
nodes = (
"143 333 OFFCURVE",
"155 337 QCURVE",
"159 350 OFFCURVE",
"146 346 QCURVE"
);
},
{
nodes = (
"147 247 LINE",
"147 244 LINE",
"150 244 LINE",
"150 247 LINE"
);
},
{
nodes = (
"161 196 OFFCURVE",
"148 192 QCURVE",
"143 178 OFFCURVE",
"157 183 QCURVE"
);
},
{
nodes = (
"158 385 OFFCURVE",
"166 391 OFFCURVE",
"169 399 OFFCURVE",
"166 406 OFFCURVE",
"160 405 QCURVE",
"155 403 OFFCURVE",
"150 392 OFFCURVE",
"154 388 QCURVE SMOOTH"
);
},
{
nodes = (
"162 216 LINE",
"159 216 LINE",
"159 213 LINE",
"162 213 LINE"
);
},
{
nodes = (
"175 191 LINE",
"172 191 LINE",
"172 188 LINE",
"175 188 LINE"
);
},
{
nodes = (
"177 276 OFFCURVE",
"165 272 QCURVE",
"160 258 OFFCURVE",
"174 263 QCURVE"
);
},
{
nodes = (
"170 324 OFFCURVE",
"173 307 OFFCURVE",
"181 311 QCURVE",
"189 313 OFFCURVE",
"185 329 OFFCURVE",
"177 326 QCURVE SMOOTH"
);
},
{
nodes = (
"204 289 LINE",
"198 289 OFFCURVE",
"186 290 OFFCURVE",
"180 291 QCURVE",
"187 284 OFFCURVE",
"200 272 OFFCURVE",
"207 265 QCURVE"
);
},
{
nodes = (
"187 259 LINE",
"184 259 LINE",
"184 256 LINE",
"187 256 LINE"
);
},
{
nodes = (
"205 240 LINE",
"203 240 LINE",
"203 238 LINE",
"205 238 LINE"
);
},
{
nodes = (
"206 249 OFFCURVE",
"214 251 OFFCURVE",
"218 257 OFFCURVE",
"218 263 OFFCURVE",
"214 265 QCURVE",
"209 266 OFFCURVE",
"199 257 OFFCURVE",
"203 252 QCURVE SMOOTH"
);
},
{
nodes = (
"366 179 LINE",
"363 179 LINE",
"363 176 LINE",
"366 176 LINE"
);
},
{
nodes = (
"372 192 LINE",
"367 195 LINE",
"363 192 LINE",
"363 187 LINE",
"367 185 LINE",
"372 187 LINE"
);
},
{
nodes = (
"378 167 LINE",
"375 167 LINE",
"375 164 LINE",
"378 164 LINE"
);
},
{
nodes = (
"384 197 LINE",
"381 197 LINE",
"381 194 LINE",
"384 194 LINE"
);
},
{
nodes = (
"390 148 LINE",
"387 148 LINE",
"387 145 LINE",
"390 145 LINE"
);
},
{
nodes = (
"395 236 OFFCURVE",
"388 241 QCURVE",
"390 233 OFFCURVE",
"390 229 QCURVE"
);
},
{
nodes = (
"403 251 OFFCURVE",
"401 267 OFFCURVE",
"393 265 QCURVE SMOOTH",
"385 264 OFFCURVE",
"387 247 OFFCURVE",
"395 250 QCURVE"
);
},
{
nodes = (
"409 186 LINE",
"404 189 LINE",
"400 186 LINE",
"400 181 LINE",
"404 179 LINE",
"409 181 LINE"
);
},
{
nodes = (
"418 286 OFFCURVE",
"405 283 QCURVE",
"400 269 OFFCURVE",
"414 274 QCURVE"
);
},
{
nodes = (
"421 167 LINE",
"418 167 LINE",
"418 164 LINE",
"421 164 LINE"
);
},
{
nodes = (
"419 272 OFFCURVE",
"432 275 QCURVE",
"437 289 OFFCURVE",
"424 284 QCURVE"
);
},
{
nodes = (
"424 231 LINE",
"427 231 LINE",
"427 234 LINE",
"424 234 LINE"
);
},
{
nodes = (
"433 223 LINE",
"429 226 LINE",
"424 223 LINE",
"424 218 LINE",
"429 215 LINE",
"433 218 LINE"
);
},
{
nodes = (
"437 248 LINE",
"434 253 LINE",
"429 253 LINE",
"427 248 LINE",
"429 244 LINE",
"434 244 LINE"
);
},
{
nodes = (
"449 242 LINE",
"447 247 LINE",
"442 247 LINE",
"439 242 LINE",
"442 238 LINE",
"447 238 LINE"
);
},
{
nodes = (
"452 302 LINE",
"449 302 LINE",
"449 299 LINE",
"452 299 LINE"
);
}
);
width = 569;
}
);
unicode = 004E;
},
{
glyphname = O;
layers = (
{
layerId = "36F87277-1639-45E8-AAA4-E82D5D969E92";
paths = (
{
nodes = (
"153 696 OFFCURVE",
"409 697 OFFCURVE",
"540 696 QCURVE",
"540 556 OFFCURVE",
"539 282 OFFCURVE",
"540 142 QCURVE",
"541 107 OFFCURVE",
"540 37 OFFCURVE",
"538 2 QCURVE",
"467 -1 OFFCURVE",
"327 1 OFFCURVE",
"256 0 QCURVE",
"198 1 OFFCURVE",
"82 -2 OFFCURVE",
"24 2 QCURVE",
"21 176 OFFCURVE",
"23 522 OFFCURVE",
"23 696 QCURVE"
);
},
{
nodes = (
"314 608 LINE",
"314 606 LINE",
"316 606 LINE",
"316 608 LINE"
);
},
{
nodes = (
"240 596 LINE",
"240 593 LINE",
"242 593 LINE",
"242 596 LINE"
);
},
{
nodes = (
"251 591 OFFCURVE",
"263 585 QCURVE",
"275 591 OFFCURVE",
"263 597 QCURVE"
);
},
{
nodes = (
"301 596 LINE",
"301 593 LINE",
"304 593 LINE",
"304 596 LINE"
);
},
{
nodes = (
"314 596 LINE",
"314 593 LINE",
"316 593 LINE",
"316 596 LINE"
);
},
{
nodes = (
"326 590 LINE",
"326 587 LINE",
"329 587 LINE",
"329 590 LINE"
);
},
{
nodes = (
"166 584 LINE",
"166 581 LINE",
"169 581 LINE",
"169 584 LINE"
);
},
{
nodes = (
"217 563 OFFCURVE",
"229 568 QCURVE",
"234 582 OFFCURVE",
"220 577 QCURVE"
);
},
{
nodes = (
"443 571 LINE",
"443 569 LINE",
"446 569 LINE",
"446 571 LINE"
);
},
{
nodes = (
"184 565 LINE",
"184 562 LINE",
"187 562 LINE",
"187 565 LINE"
);
},
{
nodes = (
"128 554 OFFCURVE",
"140 548 QCURVE",
"152 554 OFFCURVE",
"140 560 QCURVE"
);
},
{
nodes = (
"363 553 LINE",
"363 550 LINE",
"366 550 LINE",
"366 553 LINE"
);
},
{
nodes = (
"443 547 LINE",
"443 544 LINE",
"446 544 LINE",
"446 547 LINE"
);
},
{
nodes = (
"412 510 LINE",
"412 507 LINE",
"415 507 LINE",
"415 510 LINE"
);
},
{
nodes = (
"153 485 LINE",
"153 482 LINE",
"156 482 LINE",
"156 485 LINE"
);
},
{
nodes = (
"387 485 LINE",
"387 482 LINE",
"390 482 LINE",
"390 485 LINE"
);
},
{
nodes = (
"160 473 LINE",
"160 470 LINE",
"162 470 LINE",
"162 473 LINE"
);
},
{
nodes = (
"255 394 OFFCURVE",
"257 288 OFFCURVE",
"257 234 QCURVE",
"306 234 LINE",
"305 291 OFFCURVE",
"307 402 OFFCURVE",
"305 459 QCURVE",
"301 465 OFFCURVE",
"299 469 QCURVE",
"293 470 LINE",
"277 482 OFFCURVE",
"254 462 OFFCURVE",
"256 448 QCURVE"
);
},
{
nodes = (
"424 467 LINE",
"424 464 LINE",
"427 464 LINE",
"427 467 LINE"
);
},
{
nodes = (
"160 462 LINE",
"160 457 LINE",
"164 454 LINE",
"168 457 LINE",
"168 462 LINE",
"164 464 LINE"
);
},
{
nodes = (
"141 436 LINE",
"141 433 LINE",
"144 433 LINE",
"144 436 LINE"
);
},
{
nodes = (
"166 436 LINE",
"166 433 LINE",
"169 433 LINE",
"169 436 LINE"
);
},
{
nodes = (
"431 350 LINE",
"431 347 LINE",
"433 347 LINE",
"433 350 LINE"
);
},
{
nodes = (
"406 307 LINE",
"406 304 LINE",
"409 304 LINE",
"409 307 LINE"
);
},
{
nodes = (
"160 239 LINE",
"160 236 LINE",
"162 236 LINE",
"162 239 LINE"
);
},
{
nodes = (
"160 226 LINE",
"160 224 LINE",
"162 224 LINE",
"162 226 LINE"
);
},
{
nodes = (
"412 220 LINE",
"412 217 LINE",
"415 217 LINE",
"415 220 LINE"
);
},
{
nodes = (
"141 215 LINE",
"141 210 LINE",
"146 208 LINE",
"150 210 LINE",
"150 215 LINE",
"146 218 LINE"
);
},
{
nodes = (
"431 202 LINE",
"431 199 LINE",
"433 199 LINE",
"433 202 LINE"
);
},
{
nodes = (
"123 196 LINE",
"123 193 LINE",
"125 193 LINE",
"125 196 LINE"
);
},
{
nodes = (
"400 196 LINE",
"400 193 LINE",
"403 193 LINE",
"403 196 LINE"
);
},
{
nodes = (
"381 189 LINE",
"381 187 LINE",
"384 187 LINE",
"384 189 LINE"
);
},
{
nodes = (
"160 146 OFFCURVE",
"174 151 QCURVE",
"179 164 OFFCURVE",
"165 159 QCURVE"
);
},
{
nodes = (
"184 159 LINE",
"184 156 LINE",
"187 156 LINE",
"187 159 LINE"
);
},
{
nodes = (
"320 141 OFFCURVE",
"334 144 QCURVE",
"338 157 OFFCURVE",
"325 153 QCURVE"
);
},
{
nodes = (
"396 141 OFFCURVE",
"410 144 QCURVE",
"413 157 OFFCURVE",
"401 153 QCURVE"
);
},
{
nodes = (
"184 146 LINE",
"184 144 LINE",
"187 144 LINE",
"187 146 LINE"
);
},
{
nodes = (
"226 144 OFFCURVE",
"225 139 OFFCURVE",
"224 137 QCURVE",
"227 134 LINE",
"232 131 OFFCURVE",
"237 137 OFFCURVE",
"237 144 OFFCURVE",
"232 149 OFFCURVE",
"227 146 QCURVE"
);
},
{
nodes = (
"194 135 OFFCURVE",
"206 123 OFFCURVE",
"212 127 QCURVE",
"216 132 OFFCURVE",
"204 145 OFFCURVE",
"199 140 QCURVE SMOOTH"
);
},
{
nodes = (
"307 140 LINE",
"307 137 LINE",
"310 137 LINE",
"310 140 LINE"
);
},
{
nodes = (
"344 128 LINE",
"344 125 LINE",
"347 125 LINE",
"347 128 LINE"
);
},
{
nodes = (
"375 128 LINE",
"375 125 LINE",
"378 125 LINE",
"378 128 LINE"
);
},
{
nodes = (
"174 107 OFFCURVE",
"186 112 QCURVE",
"190 125 OFFCURVE",
"177 121 QCURVE"
);
},
{
nodes = (
"369 116 LINE",
"369 113 LINE",
"372 113 LINE",
"372 116 LINE"
);
},
{
nodes = (
"252 109 LINE",
"252 107 LINE",
"255 107 LINE",
"255 109 LINE"
);
},
{
nodes = (
"320 109 LINE",
"320 107 LINE",
"323 107 LINE",
"323 109 LINE"
);
},
{
nodes = (
"215 103 LINE",
"215 100 LINE",
"218 100 LINE",
"218 103 LINE"
);
},
{
nodes = (
"301 97 LINE",
"301 94 LINE",
"304 94 LINE",
"304 97 LINE"
);
}
);
width = 565;
}
);
unicode = 004F;
},
{
glyphname = P;
layers = (
{
layerId = "36F87277-1639-45E8-AAA4-E82D5D969E92";
paths = (
{
nodes = (
"284 694 OFFCURVE",
"540 693 QCURVE",
"540 182 LINE",
"470 181 OFFCURVE",
"332 183 OFFCURVE",
"263 182 QCURVE",
"263 -2 LINE",
"146 -4 OFFCURVE",
"29 -2 QCURVE",
"27 207 OFFCURVE",
"29 416 QCURVE",
"145 417 OFFCURVE",
"262 416 QCURVE",
"262 407 OFFCURVE",
"263 383 OFFCURVE",
"263 357 OFFCURVE",
"263 333 OFFCURVE",
"263 324 QCURVE",
"306 324 LINE",
"306 459 LINE",
"236 460 OFFCURVE",
"98 459 OFFCURVE",
"29 460 QCURVE",
"28 576 OFFCURVE",
"29 693 QCURVE"
);
},
{
nodes = (
"357 606 LINE",
"357 603 LINE",
"360 603 LINE",
"360 606 LINE"
);
},
{
nodes = (
"400 594 LINE",
"400 589 LINE",
"404 587 LINE",
"409 589 LINE",
"409 594 LINE",
"404 597 LINE"
);
},
{
nodes = (
"258 587 LINE",
"258 584 LINE",
"261 584 LINE",
"261 587 LINE"
);
},
{
nodes = (
"388 556 LINE",
"388 554 LINE",
"390 554 LINE",
"390 556 LINE"
);
},
{
nodes = (
"418 476 LINE",
"418 473 LINE",
"421 473 LINE",
"421 476 LINE"
);
},
{
nodes = (
"399 461 OFFCURVE",
"397 457 OFFCURVE",
"397 455 QCURVE",
"399 451 LINE",
"404 448 OFFCURVE",
"409 454 OFFCURVE",
"409 462 OFFCURVE",
"404 467 OFFCURVE",
"399 463 QCURVE"
);
},
{
nodes = (
"443 464 LINE",
"443 461 LINE",
"446 461 LINE",
"446 464 LINE"
);
},
{
nodes = (
"437 384 LINE",
"437 381 LINE",
"440 381 LINE",
"440 384 LINE"
);
},
{
nodes = (
"147 218 LINE",
"147 215 LINE",
"150 215 LINE",
"150 218 LINE"
);
}
);
width = 565;
}
);
unicode = 0050;
},
{
glyphname = Q;
layers = (
{
layerId = "36F87277-1639-45E8-AAA4-E82D5D969E92";
paths = (
{
nodes = (
"280 708 OFFCURVE",
"536 706 QCURVE",
"537 551 OFFCURVE",
"535 245 OFFCURVE",
"537 90 QCURVE",
"536 70 OFFCURVE",
"537 31 OFFCURVE",
"534 11 QCURVE",
"475 11 LINE",
"486 -5 OFFCURVE",
"504 -40 OFFCURVE",
"513 -57 QCURVE",
"442 -58 OFFCURVE",
"301 -57 OFFCURVE",
"230 -58 QCURVE",
"218 -41 OFFCURVE",
"197 -2 OFFCURVE",
"180 10 QCURVE",
"142 12 OFFCURVE",
"64 10 OFFCURVE",
"26 10 QCURVE",
"24 185 OFFCURVE",
"25 531 OFFCURVE",
"25 706 QCURVE"
);
},
{
nodes = (
"243 593 OFFCURVE",
"256 598 QCURVE",
"261 612 OFFCURVE",
"248 607 QCURVE"
);
},
{
nodes = (
"125 600 LINE",
"125 597 LINE",
"128 597 LINE",
"128 600 LINE"
);
},
{
nodes = (
"218 594 LINE",
"218 591 LINE",
"220 591 LINE",
"220 594 LINE"
);
},
{
nodes = (
"137 588 LINE",
"137 585 LINE",
"140 585 LINE",
"140 588 LINE"
);
},
{
nodes = (
"205 588 LINE",
"205 585 LINE",
"208 585 LINE",
"208 588 LINE"
);
},
{
nodes = (
"241 588 LINE",
"239 583 LINE",
"241 579 LINE",
"246 579 LINE",
"249 583 LINE",
"246 588 LINE"
);
},
{
nodes = (
"291 588 LINE",
"291 585 LINE",
"294 585 LINE",
"294 588 LINE"
);
},
{
nodes = (
"316 582 LINE",
"316 579 LINE",
"319 579 LINE",
"319 582 LINE"
);
},
{
nodes = (
"285 575 LINE",
"285 573 LINE",
"288 573 LINE",
"288 575 LINE"
);
},
{
nodes = (
"230 569 LINE",
"230 566 LINE",
"233 566 LINE",
"233 569 LINE"
);
},
{
nodes = (
"162 563 LINE",
"162 560 LINE",
"165 560 LINE",
"165 563 LINE"
);
},
{
nodes = (
"168 551 LINE",
"168 548 LINE",
"171 548 LINE",
"171 551 LINE"
);
},
{
nodes = (
"427 551 LINE",
"427 548 LINE",
"430 548 LINE",
"430 551 LINE"
);
},
{
nodes = (
"409 545 LINE",
"409 542 LINE",
"411 542 LINE",
"411 545 LINE"
);
},
{
nodes = (
"181 538 LINE",
"181 536 LINE",
"183 536 LINE",
"183 538 LINE"
);
},
{
nodes = (
"193 538 LINE",
"193 536 LINE",
"196 536 LINE",
"196 538 LINE"
);
},
{
nodes = (
"168 514 LINE",
"168 511 LINE",
"171 511 LINE",
"171 514 LINE"
);
},
{
nodes = (
"433 508 LINE",
"433 505 LINE",
"436 505 LINE",
"436 508 LINE"
);
},
{
nodes = (
"125 502 LINE",
"125 499 LINE",
"128 499 LINE",
"128 502 LINE"
);
},
{
nodes = (
"421 495 LINE",
"421 493 LINE",
"424 493 LINE",
"424 495 LINE"
);
},
{
nodes = (
"162 489 LINE",
"162 486 LINE",
"165 486 LINE",
"165 489 LINE"
);
},
{
nodes = (
"113 483 LINE",
"113 480 LINE",
"116 480 LINE",
"116 483 LINE"
);
},
{
nodes = (
"427 483 LINE",
"427 480 LINE",
"430 480 LINE",
"430 483 LINE"
);
},
{
nodes = (
"259 472 LINE",
"259 244 LINE",
"267 244 OFFCURVE",
"294 245 OFFCURVE",
"302 245 QCURVE",
"304 358 OFFCURVE",
"302 472 QCURVE"
);
},
{
nodes = (
"409 471 LINE",
"409 468 LINE",
"411 468 LINE",
"411 471 LINE"
);
},
{
nodes = (
"421 471 LINE",
"421 468 LINE",
"424 468 LINE",
"424 471 LINE"
);
},
{
nodes = (
"421 409 LINE",
"421 406 LINE",
"424 406 LINE",
"424 409 LINE"
);
},
{
nodes = (
"409 397 LINE",
"409 394 LINE",
"411 394 LINE",
"411 397 LINE"
);
},
{
nodes = (
"415 348 LINE",
"415 345 LINE",
"418 345 LINE",
"418 348 LINE"
);
},
{
nodes = (
"162 311 LINE",
"162 308 LINE",
"165 308 LINE",
"165 311 LINE"
);
},
{
nodes = (
"396 280 LINE",
"396 277 LINE",
"399 277 LINE",
"399 280 LINE"
);
},
{
nodes = (
"144 274 LINE",
"144 271 LINE",
"146 271 LINE",
"146 274 LINE"
);
},
{
nodes = (
"409 249 LINE",
"409 246 LINE",
"411 246 LINE",
"411 249 LINE"
);
},
{
nodes = (
"433 249 LINE",
"433 246 LINE",
"436 246 LINE",
"436 249 LINE"
);
},
{
nodes = (
"429 219 OFFCURVE",
"443 222 QCURVE",
"447 235 OFFCURVE",
"434 231 QCURVE"
);
},
{
nodes = (
"174 224 LINE",
"174 221 LINE",
"177 221 LINE",
"177 224 LINE"
);
},
{
nodes = (
"402 200 LINE",
"402 197 LINE",
"405 197 LINE",
"405 200 LINE"
);
},
{
nodes = (
"156 187 LINE",
"156 184 LINE",
"159 184 LINE",
"159 187 LINE"
);
},
{
nodes = (
"421 187 LINE",
"421 184 LINE",
"424 184 LINE",
"424 187 LINE"
);
},
{
nodes = (
"433 181 LINE",
"433 178 LINE",
"436 178 LINE",
"436 181 LINE"
);
},
{
nodes = (
"150 176 LINE",
"150 171 LINE",
"154 169 LINE",
"159 171 LINE",
"159 176 LINE",
"154 179 LINE"
);
},
{
nodes = (
"179 175 OFFCURVE",
"179 160 OFFCURVE",
"186 160 QCURVE SMOOTH",
"193 160 OFFCURVE",
"193 175 OFFCURVE",
"186 175 QCURVE SMOOTH"
);
},
{
nodes = (
"402 175 LINE",
"402 172 LINE",
"405 172 LINE",
"405 175 LINE"
);
},
{
nodes = (
"364 158 OFFCURVE",
"377 150 OFFCURVE",
"381 155 QCURVE SMOOTH",
"385 161 OFFCURVE",
"372 169 OFFCURVE",
"368 163 QCURVE SMOOTH"
);
},
{
nodes = (
"439 163 LINE",
"439 160 LINE",
"442 160 LINE",
"442 163 LINE"
);
},
{
nodes = (
"255 158 LINE",
"255 153 LINE",
"259 150 LINE",
"263 153 LINE",
"263 158 LINE",
"259 160 LINE"
);
},
{
nodes = (
"269 145 OFFCURVE",
"281 148 QCURVE",
"285 161 OFFCURVE",
"272 157 QCURVE"
);
},
{
nodes = (
"341 157 LINE",
"341 154 LINE",
"344 154 LINE",
"344 157 LINE"
);
},
{
nodes = (
"156 150 LINE",
"156 148 LINE",
"159 148 LINE",
"159 150 LINE"
);
},
{
nodes = (
"187 151 LINE",
"187 146 LINE",
"191 144 LINE",
"196 146 LINE",
"196 151 LINE",
"191 154 LINE"
);
},
{
nodes = (
"144 144 LINE",
"144 141 LINE",
"146 141 LINE",
"146 144 LINE"
);
},
{
nodes = (
"353 144 LINE",
"353 141 LINE",
"356 141 LINE",
"356 144 LINE"
);
},
{
nodes = (
"362 128 LINE",
"370 129 OFFCURVE",
"383 129 OFFCURVE",
"390 130 QCURVE",
"392 133 OFFCURVE",
"394 143 OFFCURVE",
"395 146 QCURVE"
);
},
{
nodes = (
"439 144 LINE",
"439 141 LINE",
"442 141 LINE",
"442 144 LINE"
);
},
{
nodes = (
"199 139 LINE",
"199 134 LINE",
"204 132 LINE",
"208 134 LINE",
"208 139 LINE",
"204 142 LINE"
);
},
{
nodes = (
"216 138 LINE",
"214 134 LINE",
"216 129 LINE",
"222 129 LINE",
"224 134 LINE",
"222 138 LINE"
);
},
{
nodes = (
"316 139 LINE",
"316 134 LINE",
"321 132 LINE",
"325 134 LINE",
"325 139 LINE",
"321 142 LINE"
);
},
{
nodes = (
"427 138 LINE",
"427 135 LINE",
"430 135 LINE",
"430 138 LINE"
);
},
{
nodes = (
"279 132 LINE",
"279 129 LINE",
"282 129 LINE",
"282 132 LINE"
);
},
{
nodes = (
"396 126 LINE",
"396 123 LINE",
"399 123 LINE",
"399 126 LINE"
);
},
{
nodes = (
"192 114 OFFCURVE",
"204 108 QCURVE",
"216 114 OFFCURVE",
"204 121 QCURVE"
);
},
{
nodes = (
"150 113 LINE",
"150 111 LINE",
"153 111 LINE",
"153 113 LINE"
);
},
{
nodes = (
"295 102 OFFCURVE",
"307 105 QCURVE",
"311 118 OFFCURVE",
"298 114 QCURVE"
);
},
{
nodes = (
"372 113 LINE",
"372 111 LINE",
"374 111 LINE",
"374 113 LINE"
);
},
{
nodes = (
"281 110 OFFCURVE",
"282 101 OFFCURVE",
"282 99 QCURVE",
"277 96 OFFCURVE",
"267 91 OFFCURVE",
"262 88 QCURVE",
"286 85 LINE",
"287 89 OFFCURVE",
"288 97 OFFCURVE",
"289 102 QCURVE",
"285 106 OFFCURVE",
"281 112 QCURVE"
);
},
{
nodes = (
"322 107 LINE",
"322 104 LINE",
"325 104 LINE",
"325 107 LINE"
);
},
{
nodes = (
"218 101 LINE",
"218 98 LINE",
"220 98 LINE",
"220 101 LINE"
);
},
{
nodes = (
"329 88 OFFCURVE",
"343 93 QCURVE",
"347 106 OFFCURVE",
"334 102 QCURVE"
);
},
{
nodes = (
"310 95 LINE",
"310 92 LINE",
"313 92 LINE",
"313 95 LINE"
);
},
{
nodes = (
"347 89 LINE",
"347 86 LINE",
"350 86 LINE",
"350 89 LINE"
);
},
{
nodes = (
"285 78 LINE",
"285 72 LINE",
"290 70 LINE",
"294 72 LINE",
"294 78 LINE",
"290 80 LINE"
);
},
{
nodes = (
"383 71 OFFCURVE",
"395 65 QCURVE",
"407 71 OFFCURVE",
"395 77 QCURVE"
);
},
{
nodes = (
"372 46 LINE",
"372 43 LINE",
"374 43 LINE",
"374 46 LINE"
);
}
);
width = 565;
}
);
unicode = 0051;
},
{
glyphname = R;
layers = (
{
layerId = "36F87277-1639-45E8-AAA4-E82D5D969E92";
paths = (
{
nodes = (
"537 697 LINE",
"538 603 OFFCURVE",
"536 420 OFFCURVE",
"537 327 QCURVE",
"537 292 OFFCURVE",
"538 222 OFFCURVE",
"535 187 QCURVE",
"523 187 OFFCURVE",
"500 186 OFFCURVE",
"489 186 QCURVE",
"501 140 OFFCURVE",
"524 49 OFFCURVE",
"532 2 QCURVE",
"475 0 OFFCURVE",
"361 0 OFFCURVE",
"304 1 QCURVE",
"290 43 OFFCURVE",
"274 128 OFFCURVE",
"258 170 QCURVE",
"251 128 OFFCURVE",
"255 43 OFFCURVE",
"254 1 QCURVE",
"140 -1 OFFCURVE",
"26 1 QCURVE",
"26 419 LINE",
"139 420 OFFCURVE",
"253 419 QCURVE",
"253 396 OFFCURVE",
"253 352 OFFCURVE",
"255 329 QCURVE",
"267 328 OFFCURVE",
"291 328 OFFCURVE",
"303 327 QCURVE",
"304 361 OFFCURVE",
"303 428 OFFCURVE",
"303 462 QCURVE",
"234 464 OFFCURVE",
"95 462 OFFCURVE",
"26 463 QCURVE",
"24 580 OFFCURVE",
"26 697 QCURVE"
);
},
{
nodes = (
"292 609 LINE",
"292 606 LINE",
"295 606 LINE",
"295 609 LINE"
);
},
{
nodes = (
"311 603 LINE",
"311 600 LINE",
"314 600 LINE",
"314 603 LINE"
);
},
{
nodes = (
"274 578 LINE",
"274 575 LINE",
"277 575 LINE",
"277 578 LINE"
);
},
{
nodes = (
"385 579 LINE",
"385 574 LINE",
"389 572 LINE",
"394 574 LINE",
"394 579 LINE",
"389 582 LINE"
);
},
{
nodes = (
"416 578 LINE",
"416 575 LINE",
"418 575 LINE",
"418 578 LINE"
);
},
{
nodes = (
"200 560 LINE",
"200 557 LINE",
"203 557 LINE",
"203 560 LINE"
);
},
{
nodes = (
"323 560 LINE",
"323 557 LINE",
"326 557 LINE",
"326 560 LINE"
);
},
{
nodes = (
"403 541 LINE",
"403 538 LINE",
"406 538 LINE",
"406 541 LINE"
);
},
{
nodes = (
"371 529 LINE",
"369 524 LINE",
"371 520 LINE",
"376 520 LINE",
"379 524 LINE",
"376 529 LINE"
);
},
{
nodes = (
"422 529 LINE",
"422 526 LINE",
"425 526 LINE",
"425 529 LINE"
);
},
{
nodes = (
"385 505 LINE",
"385 500 LINE",
"389 498 LINE",
"394 500 LINE",
"394 505 LINE",
"389 508 LINE"
);
},
{
nodes = (
"409 504 LINE",
"409 501 LINE",
"412 501 LINE",
"412 504 LINE"
);
},
{
nodes = (
"410 454 OFFCURVE",
"424 457 QCURVE",
"427 470 OFFCURVE",
"415 466 QCURVE"
);
},
{
nodes = (
"416 362 LINE",
"416 360 LINE",
"418 360 LINE",
"418 362 LINE"
);
},
{
nodes = (
"422 325 LINE",
"422 323 LINE",
"425 323 LINE",
"425 325 LINE"
);
},
{
nodes = (
"409 301 LINE",
"409 298 LINE",
"412 298 LINE",
"412 301 LINE"
);
},
{
nodes = (
"427 295 LINE",
"424 290 LINE",
"427 286 LINE",
"432 286 LINE",
"434 290 LINE",
"432 295 LINE"
);
},
{
nodes = (
"379 289 LINE",
"379 286 LINE",
"381 286 LINE",
"381 289 LINE"
);
},
{
nodes = (
"403 277 LINE",
"403 272 LINE",
"408 270 LINE",
"412 272 LINE",
"412 277 LINE",
"408 280 LINE"
);
},
{
nodes = (
"166 258 OFFCURVE",
"181 252 QCURVE",
"193 259 OFFCURVE",
"181 265 QCURVE"
);
},
{
nodes = (
"409 265 LINE",
"409 260 LINE",
"414 257 LINE",
"418 260 LINE",
"418 265 LINE",
"414 268 LINE"
);
},
{
nodes = (
"397 258 LINE",
"397 255 LINE",
"400 255 LINE",
"400 258 LINE"
);
},
{
nodes = (
"422 252 LINE",
"422 249 LINE",
"425 249 LINE",
"425 252 LINE"
);
},
{
nodes = (
"397 245 LINE",
"397 243 LINE",
"400 243 LINE",
"400 245 LINE"
);
},
{
nodes = (
"379 220 OFFCURVE",
"393 223 QCURVE",
"397 236 OFFCURVE",
"384 232 QCURVE"
);
},
{
nodes = (
"336 221 LINE",
"336 218 LINE",
"338 218 LINE",
"338 221 LINE"
);
},
{
nodes = (
"367 206 OFFCURVE",
"381 211 QCURVE",
"384 224 OFFCURVE",
"372 220 QCURVE"
);
},
{
nodes = (
"360 178 LINE",
"360 175 LINE",
"363 175 LINE",
"363 178 LINE"
);
}
);
width = 565;
}
);
unicode = 0052;
},
{
glyphname = S;
layers = (
{
layerId = "36F87277-1639-45E8-AAA4-E82D5D969E92";
paths = (
{
nodes = (
"86 704 OFFCURVE",
"195 700 OFFCURVE",
"250 701 QCURVE",
"324 699 OFFCURVE",
"465 703 OFFCURVE",
"539 699 QCURVE",
"541 645 OFFCURVE",
"543 536 OFFCURVE",
"541 481 QCURVE",
"540 479 OFFCURVE",
"539 471 OFFCURVE",
"538 469 QCURVE",
"468 464 OFFCURVE",
"333 469 OFFCURVE",
"263 467 QCURVE",
"263 459 OFFCURVE",
"262 432 OFFCURVE",
"262 424 QCURVE",
"331 422 OFFCURVE",
"463 426 OFFCURVE",
"532 424 QCURVE",
"534 422 OFFCURVE",
"539 417 OFFCURVE",
"541 415 QCURVE",
"543 338 OFFCURVE",
"539 187 OFFCURVE",
"541 110 QCURVE",
"539 84 OFFCURVE",
"544 32 OFFCURVE",
"538 7 QCURVE",
"483 2 OFFCURVE",
"379 6 OFFCURVE",
"324 5 QCURVE",
"250 6 OFFCURVE",
"104 3 OFFCURVE",
"30 6 QCURVE",
"28 61 OFFCURVE",
"27 170 OFFCURVE",
"29 225 QCURVE",
"29 231 OFFCURVE",
"31 237 QCURVE",
"101 242 OFFCURVE",
"241 237 OFFCURVE",
"312 239 QCURVE",
"312 282 LINE",
"243 284 OFFCURVE",
"106 280 OFFCURVE",
"37 282 QCURVE",
"35 284 OFFCURVE",
"31 289 OFFCURVE",
"29 291 QCURVE",
"27 367 OFFCURVE",
"30 519 OFFCURVE",
"28 596 QCURVE",
"30 622 OFFCURVE",
"25 674 OFFCURVE",
"31 699 QCURVE"
);
},
{
nodes = (
"246 582 LINE",
"246 579 LINE",
"249 579 LINE",
"249 582 LINE"
);
},
{
nodes = (
"306 582 LINE",
"304 578 LINE",
"306 573 LINE",
"311 573 LINE",
"314 578 LINE",
"311 582 LINE"
);
},
{
nodes = (
"221 576 LINE",
"221 573 LINE",
"224 573 LINE",
"224 576 LINE"
);
},
{
nodes = (
"153 545 LINE",
"153 542 LINE",
"156 542 LINE",
"156 545 LINE"
);
},
{
nodes = (
"128 539 LINE",
"125 535 LINE",
"128 530 LINE",
"133 530 LINE",
"135 535 LINE",
"133 539 LINE"
);
},
{
nodes = (
"166 539 LINE",
"166 536 LINE",
"168 536 LINE",
"168 539 LINE"
);
},
{
nodes = (
"144 521 OFFCURVE",
"140 519 OFFCURVE",
"138 519 QCURVE",
"136 515 LINE",
"136 509 OFFCURVE",
"144 508 OFFCURVE",
"150 512 OFFCURVE",
"152 519 OFFCURVE",
"146 521 QCURVE"
);
},
{
nodes = (
"159 465 LINE",
"159 462 LINE",
"162 462 LINE",
"162 465 LINE"
);
},
{
nodes = (
"406 213 LINE",
"406 210 LINE",
"409 210 LINE",
"409 213 LINE"
);
},
{
nodes = (
"424 200 LINE",
"424 197 LINE",
"427 197 LINE",
"427 200 LINE"
);
},
{
nodes = (
"424 188 LINE",
"424 185 LINE",
"427 185 LINE",
"427 188 LINE"
);
},
{
nodes = (
"388 176 LINE",
"393 169 OFFCURVE",
"411 169 OFFCURVE",
"418 173 QCURVE",
"416 180 OFFCURVE",
"398 182 OFFCURVE",
"392 180 QCURVE"
);
},
{
nodes = (
"328 138 OFFCURVE",
"342 143 QCURVE",
"345 156 OFFCURVE",
"333 152 QCURVE"
);
},
{
nodes = (
"344 146 OFFCURVE",
"356 139 QCURVE",
"368 146 OFFCURVE",
"356 152 QCURVE"
);
},
{
nodes = (
"375 151 LINE",
"375 148 LINE",
"378 148 LINE",
"378 151 LINE"
);
},
{
nodes = (
"406 151 LINE",
"406 148 LINE",
"409 148 LINE",
"409 151 LINE"
);
},
{
nodes = (
"420 132 OFFCURVE",
"434 137 QCURVE",
"438 149 OFFCURVE",
"425 146 QCURVE"
);
},
{
nodes = (
"270 126 LINE",
"270 124 LINE",
"273 124 LINE",
"273 126 LINE"
);
},
{
nodes = (
"307 114 LINE",
"307 111 LINE",
"310 111 LINE",
"310 114 LINE"
);
},
{
nodes = (
"270 102 LINE",
"270 99 LINE",
"273 99 LINE",
"273 102 LINE"
);
},
{
nodes = (
"412 96 LINE",
"412 93 LINE",
"415 93 LINE",
"415 96 LINE"
);
}
);
width = 565;
}
);
unicode = 0053;
},
{
glyphname = T;
layers = (
{
layerId = "36F87277-1639-45E8-AAA4-E82D5D969E92";
paths = (
{
nodes = (
"525 699 LINE",
"525 640 OFFCURVE",
"525 524 OFFCURVE",
"524 465 QCURVE",
"383 465 LINE",
"382 349 OFFCURVE",
"384 119 OFFCURVE",
"383 3 QCURVE",
"266 1 OFFCURVE",
"149 3 QCURVE",
"148 119 OFFCURVE",
"150 349 OFFCURVE",
"149 464 QCURVE",
"115 465 OFFCURVE",
"48 465 OFFCURVE",
"14 465 QCURVE",
"12 582 OFFCURVE",
"14 699 QCURVE"
);
},
{
nodes = (
"251 599 LINE",
"251 596 LINE",
"254 596 LINE",
"254 599 LINE"
);
},
{
nodes = (
"362 600 LINE",
"362 595 LINE",
"367 592 LINE",
"371 595 LINE",
"371 600 LINE",
"367 602 LINE"
);
},
{
nodes = (
"219 592 LINE",
"217 588 LINE",
"219 583 LINE",
"224 583 LINE",
"227 588 LINE",
"224 592 LINE"
);
},
{
nodes = (
"251 586 LINE",
"251 583 LINE",
"254 583 LINE",
"254 586 LINE"
);
},
{
nodes = (
"368 586 LINE",
"368 583 LINE",
"371 583 LINE",
"371 586 LINE"
);
},
{
nodes = (
"239 580 LINE",
"239 577 LINE",
"242 577 LINE",
"242 580 LINE"
);
},
{
nodes = (
"272 567 OFFCURVE",
"286 572 QCURVE",
"289 585 OFFCURVE",
"277 581 QCURVE"
);
},
{
nodes = (
"202 574 LINE",
"202 571 LINE",
"205 571 LINE",
"205 574 LINE"
);
},
{
nodes = (
"190 568 LINE",
"190 565 LINE",
"193 565 LINE",
"193 568 LINE"
);
},
{
nodes = (
"159 562 LINE",
"159 559 LINE",
"162 559 LINE",
"162 562 LINE"
);
},
{
nodes = (
"350 562 LINE",
"350 559 LINE",
"353 559 LINE",
"353 562 LINE"
);
},
{
nodes = (
"327 544 OFFCURVE",
"339 547 QCURVE",
"344 561 OFFCURVE",
"331 556 QCURVE"
);
},
{
nodes = (
"245 549 LINE",
"245 546 LINE",
"248 546 LINE",
"248 549 LINE"
);
},
{
nodes = (
"270 549 LINE",
"270 546 LINE",
"273 546 LINE",
"273 549 LINE"
);
},
{
nodes = (
"190 543 LINE",
"190 540 LINE",
"193 540 LINE",
"193 543 LINE"
);
},
{
nodes = (
"202 543 LINE",
"202 540 LINE",
"205 540 LINE",
"205 543 LINE"
);
},
{
nodes = (
"307 543 LINE",
"307 540 LINE",
"310 540 LINE",
"310 543 LINE"
);
},
{
nodes = (
"213 537 LINE",
"211 532 LINE",
"213 528 LINE",
"218 528 LINE",
"221 532 LINE",
"218 537 LINE"
);
},
{
nodes = (
"234 535 OFFCURVE",
"231 522 OFFCURVE",
"238 521 QCURVE SMOOTH",
"242 520 OFFCURVE",
"247 527 OFFCURVE",
"248 534 OFFCURVE",
"244 539 OFFCURVE",
"239 537 QCURVE SMOOTH"
);
},
{
nodes = (
"285 536 OFFCURVE",
"287 519 OFFCURVE",
"294 521 QCURVE SMOOTH",
"302 523 OFFCURVE",
"299 540 OFFCURVE",
"291 538 QCURVE SMOOTH"
);
},
{
nodes = (
"313 531 LINE",
"313 528 LINE",
"316 528 LINE",
"316 531 LINE"
);
},
{
nodes = (
"227 513 LINE",
"227 508 LINE",
"231 506 LINE",
"236 508 LINE",
"236 513 LINE",
"231 516 LINE"
);
},
{
nodes = (
"256 512 LINE",
"254 508 LINE",
"256 503 LINE",
"261 503 LINE",
"264 508 LINE",
"261 512 LINE"
);
},
{
nodes = (
"247 459 OFFCURVE",
"270 459 OFFCURVE",
"279 468 QCURVE",
"268 468 OFFCURVE",
"247 466 OFFCURVE",
"236 463 QCURVE"
);
},
{
nodes = (
"288 463 LINE",
"288 460 LINE",
"291 460 LINE",
"291 463 LINE"
);
},
{
nodes = (
"233 445 LINE",
"233 442 LINE",
"236 442 LINE",
"236 445 LINE"
);
},
{
nodes = (
"245 420 LINE",
"245 417 LINE",
"248 417 LINE",
"248 420 LINE"
);
},
{
nodes = (
"282 408 LINE",
"282 405 LINE",
"285 405 LINE",
"285 408 LINE"
);
},
{
nodes = (
"282 352 LINE",
"282 349 LINE",
"285 349 LINE",
"285 352 LINE"
);
},
{
nodes = (
"245 266 LINE",
"245 263 LINE",
"248 263 LINE",
"248 266 LINE"
);
},
{
nodes = (
"239 254 LINE",
"239 251 LINE",
"242 251 LINE",
"242 254 LINE"
);
}
);
width = 540;
}
);
unicode = 0054;
},
{
glyphname = U;
layers = (
{
layerId = "36F87277-1639-45E8-AAA4-E82D5D969E92";
paths = (
{
nodes = (
"139 694 OFFCURVE",
"253 693 QCURVE",
"255 578 OFFCURVE",
"252 349 OFFCURVE",
"254 234 QCURVE",
"258 230 OFFCURVE",
"260 224 QCURVE",
"296 224 LINE",
"298 230 OFFCURVE",
"302 234 QCURVE",
"304 349 OFFCURVE",
"301 578 OFFCURVE",
"303 693 QCURVE",
"420 694 OFFCURVE",
"537 693 QCURVE",
"537 -2 LINE",
"281 -3 OFFCURVE",
"26 -2 QCURVE",
"25 345 OFFCURVE",
"26 693 QCURVE"
);
},
{
nodes = (
"428 513 LINE",
"428 510 LINE",
"430 510 LINE",
"430 513 LINE"
);
},
{
nodes = (
"434 365 LINE",
"434 363 LINE",
"437 363 LINE",
"437 365 LINE"
);
},
{
nodes = (
"397 328 LINE",
"397 326 LINE",
"400 326 LINE",
"400 328 LINE"
);
},
{
nodes = (
"138 317 LINE",
"138 312 LINE",
"143 310 LINE",
"147 312 LINE",
"147 317 LINE",
"143 320 LINE"
);
},
{
nodes = (
"434 298 LINE",
"434 295 LINE",
"437 295 LINE",
"437 298 LINE"
);
},
{
nodes = (
"409 291 LINE",
"409 289 LINE",
"412 289 LINE",
"412 291 LINE"
);
},
{
nodes = (
"169 224 LINE",
"169 221 LINE",
"172 221 LINE",
"172 224 LINE"
);
},
{
nodes = (
"405 212 OFFCURVE",
"417 216 QCURVE",
"422 229 OFFCURVE",
"408 224 QCURVE"
);
},
{
nodes = (
"163 211 LINE",
"163 209 LINE",
"166 209 LINE",
"166 211 LINE"
);
},
{
nodes = (
"421 205 LINE",
"421 202 LINE",
"424 202 LINE",
"424 205 LINE"
);
},
{
nodes = (
"126 180 OFFCURVE",
"140 185 QCURVE",
"144 197 OFFCURVE",
"131 194 QCURVE"
);
},
{
nodes = (
"146 180 OFFCURVE",
"160 185 QCURVE",
"164 197 OFFCURVE",
"151 194 QCURVE"
);
},
{
nodes = (
"144 181 LINE",
"144 178 LINE",
"147 178 LINE",
"147 181 LINE"
);
},
{
nodes = (
"169 181 LINE",
"169 178 LINE",
"172 178 LINE",
"172 181 LINE"
);
},
{
nodes = (
"378 182 LINE",
"378 177 LINE",
"383 174 LINE",
"387 177 LINE",
"387 182 LINE",
"383 184 LINE"
);
},
{
nodes = (
"366 174 LINE",
"366 172 LINE",
"369 172 LINE",
"369 174 LINE"
);
},
{
nodes = (
"421 174 LINE",
"421 172 LINE",
"424 172 LINE",
"424 174 LINE"
);
},
{
nodes = (
"434 174 LINE",
"434 172 LINE",
"437 172 LINE",
"437 174 LINE"
);
},
{
nodes = (
"341 150 LINE",
"341 147 LINE",
"344 147 LINE",
"344 150 LINE"
);
},
{
nodes = (
"206 145 LINE",
"206 140 LINE",
"210 137 LINE",
"215 140 LINE",
"215 145 LINE",
"210 147 LINE"
);
},
{
nodes = (
"384 144 LINE",
"384 141 LINE",
"387 141 LINE",
"387 144 LINE"
);
},
{
nodes = (
"261 137 LINE",
"261 135 LINE",
"264 135 LINE",
"264 137 LINE"
);
},
{
nodes = (
"157 131 LINE",
"157 128 LINE",
"159 128 LINE",
"159 131 LINE"
);
},
{
nodes = (
"360 131 LINE",
"360 128 LINE",
"363 128 LINE",
"363 131 LINE"
);
},
{
nodes = (
"249 125 LINE",
"249 122 LINE",
"252 122 LINE",
"252 125 LINE"
);
},
{
nodes = (
"304 125 LINE",
"304 122 LINE",
"307 122 LINE",
"307 125 LINE"
);
},
{
nodes = (
"384 125 LINE",
"384 122 LINE",
"387 122 LINE",
"387 125 LINE"
);
},
{
nodes = (
"132 119 LINE",
"132 116 LINE",
"135 116 LINE",
"135 119 LINE"
);
},
{
nodes = (
"200 119 LINE",
"200 116 LINE",
"202 116 LINE",
"202 119 LINE"
);
},
{
nodes = (
"339 113 OFFCURVE",
"337 109 OFFCURVE",
"335 108 QCURVE",
"337 104 LINE",
"341 100 OFFCURVE",
"348 103 OFFCURVE",
"350 110 OFFCURVE",
"347 116 OFFCURVE",
"341 115 QCURVE"
);
},
{
nodes = (
"378 113 LINE",
"378 110 LINE",
"381 110 LINE",
"381 113 LINE"
);
},
{
nodes = (
"280 94 LINE",
"280 91 LINE",
"283 91 LINE",
"283 94 LINE"
);
}
);
width = 565;
}
);
unicode = 0055;
},
{
glyphname = V;
layers = (
{
layerId = "36F87277-1639-45E8-AAA4-E82D5D969E92";
paths = (
{
nodes = (
"25 697 LINE",
"142 698 OFFCURVE",
"259 697 QCURVE",
"259 604 OFFCURVE",
"259 421 OFFCURVE",
"258 327 QCURVE",
"260 303 OFFCURVE",
"254 251 OFFCURVE",
"262 228 QCURVE",
"272 250 OFFCURVE",
"292 292 OFFCURVE",
"299 315 QCURVE",
"302 363 OFFCURVE",
"303 458 OFFCURVE",
"302 553 OFFCURVE",
"301 648 OFFCURVE",
"304 696 QCURVE",
"362 698 OFFCURVE",
"477 698 OFFCURVE",
"536 697 QCURVE",
"537 612 OFFCURVE",
"536 444 OFFCURVE",
"536 359 QCURVE",
"540 333 OFFCURVE",
"521 284 OFFCURVE",
"511 260 QCURVE SMOOTH",
"482 195 OFFCURVE",
"428 66 OFFCURVE",
"398 2 QCURVE",
"211 0 OFFCURVE",
"25 2 QCURVE"
);
},
{
nodes = (
"439 597 LINE",
"439 595 LINE",
"442 595 LINE",
"442 597 LINE"
);
},
{
nodes = (
"137 560 LINE",
"137 558 LINE",
"140 558 LINE",
"140 560 LINE"
);
},
{
nodes = (
"156 517 LINE",
"156 514 LINE",
"159 514 LINE",
"159 517 LINE"
);
},
{
nodes = (
"156 505 LINE",
"156 502 LINE",
"159 502 LINE",
"159 505 LINE"
);
},
{
nodes = (
"402 320 LINE",
"402 317 LINE",
"405 317 LINE",
"405 320 LINE"
);
},
{
nodes = (
"415 308 LINE",
"415 305 LINE",
"417 305 LINE",
"417 308 LINE"
);
},
{
nodes = (
"119 240 LINE",
"119 237 LINE",
"122 237 LINE",
"122 240 LINE"
);
},
{
nodes = (
"156 222 LINE",
"156 219 LINE",
"159 219 LINE",
"159 222 LINE"
);
},
{
nodes = (
"384 210 LINE",
"384 205 LINE",
"388 203 LINE",
"393 205 LINE",
"393 210 LINE",
"388 213 LINE"
);
},
{
nodes = (
"162 166 LINE",
"162 163 LINE",
"165 163 LINE",
"165 166 LINE"
);
},
{
nodes = (
"328 154 LINE",
"328 151 LINE",
"331 151 LINE",
"331 154 LINE"
);
},
{
nodes = (
"340 148 LINE",
"337 143 LINE",
"340 139 LINE",
"345 139 LINE",
"347 143 LINE",
"345 148 LINE"
);
},
{
nodes = (
"137 129 LINE",
"137 126 LINE",
"140 126 LINE",
"140 129 LINE"
);
},
{
nodes = (
"210 111 OFFCURVE",
"223 105 QCURVE",
"235 112 OFFCURVE",
"223 118 QCURVE"
);
},
{
nodes = (
"267 105 LINE",
"267 102 LINE",
"270 102 LINE",
"270 105 LINE"
);
},
{
nodes = (
"180 92 LINE",
"180 89 LINE",
"183 89 LINE",
"183 92 LINE"
);
}
);
width = 565;
}
);
unicode = 0056;
},
{
glyphname = W;
layers = (
{
layerId = "36F87277-1639-45E8-AAA4-E82D5D969E92";
paths = (
{
nodes = (
"28 695 LINE",
"145 696 OFFCURVE",
"262 695 QCURVE",
"263 579 OFFCURVE",
"262 349 OFFCURVE",
"262 233 QCURVE",
"305 233 LINE",
"306 349 OFFCURVE",
"305 579 OFFCURVE",
"306 695 QCURVE",
"422 696 OFFCURVE",
"539 695 QCURVE",
"540 579 OFFCURVE",
"539 349 OFFCURVE",
"539 233 QCURVE",
"583 233 LINE",
"583 349 OFFCURVE",
"582 579 OFFCURVE",
"583 695 QCURVE",
"700 696 OFFCURVE",
"817 695 QCURVE",
"817 -1 LINE",
"28 -1 LINE"
);
},
{
nodes = (
"159 607 LINE",
"159 605 LINE",
"162 605 LINE",
"162 607 LINE"
);
},
{
nodes = (
"412 503 LINE",
"412 500 LINE",
"415 500 LINE",
"415 503 LINE"
);
},
{
nodes = (
"159 447 LINE",
"159 444 LINE",
"162 444 LINE",
"162 447 LINE"
);
},
{
nodes = (
"689 429 LINE",
"689 426 LINE",
"692 426 LINE",
"692 429 LINE"
);
},
{
nodes = (
"714 429 LINE",
"714 426 LINE",
"716 426 LINE",
"716 429 LINE"
);
},
{
nodes = (
"406 423 LINE",
"406 420 LINE",
"408 420 LINE",
"408 423 LINE"
);
},
{
nodes = (
"153 379 LINE",
"153 377 LINE",
"156 377 LINE",
"156 379 LINE"
);
},
{
nodes = (
"726 349 LINE",
"726 346 LINE",
"729 346 LINE",
"729 349 LINE"
);
},
{
nodes = (
"406 305 LINE",
"406 303 LINE",
"408 303 LINE",
"408 305 LINE"
);
},
{
nodes = (
"398 281 LINE",
"396 276 LINE",
"398 272 LINE",
"403 272 LINE",
"406 276 LINE",
"403 281 LINE"
);
},
{
nodes = (
"412 275 LINE",
"412 272 LINE",
"415 272 LINE",
"415 275 LINE"
);
},
{
nodes = (
"689 262 LINE",
"689 260 LINE",
"692 260 LINE",
"692 262 LINE"
);
},
{
nodes = (
"122 250 LINE",
"122 247 LINE",
"125 247 LINE",
"125 250 LINE"
);
},
{
nodes = (
"414 225 OFFCURVE",
"428 230 QCURVE",
"431 243 OFFCURVE",
"419 238 QCURVE"
);
},
{
nodes = (
"406 232 LINE",
"406 229 LINE",
"408 229 LINE",
"408 232 LINE"
);
},
{
nodes = (
"153 225 LINE",
"153 223 LINE",
"156 223 LINE",
"156 225 LINE"
);
},
{
nodes = (
"128 220 LINE",
"128 215 LINE",
"133 213 LINE",
"137 215 LINE",
"137 220 LINE",
"133 223 LINE"
);
},
{
nodes = (
"392 213 OFFCURVE",
"390 198 OFFCURVE",
"397 198 QCURVE SMOOTH",
"404 198 OFFCURVE",
"406 213 OFFCURVE",
"398 213 QCURVE SMOOTH"
);
},
{
nodes = (
"412 213 LINE",
"412 210 LINE",
"415 210 LINE",
"415 213 LINE"
);
},
{
nodes = (
"138 186 OFFCURVE",
"148 174 OFFCURVE",
"155 179 QCURVE",
"164 183 OFFCURVE",
"153 195 OFFCURVE",
"147 190 QCURVE"
);
},
{
nodes = (
"381 182 LINE",
"381 179 LINE",
"384 179 LINE",
"384 182 LINE"
);
},
{
nodes = (
"461 182 LINE",
"461 179 LINE",
"464 179 LINE",
"464 182 LINE"
);
},
{
nodes = (
"658 182 LINE",
"658 179 LINE",
"661 179 LINE",
"661 182 LINE"
);
},
{
nodes = (
"165 176 LINE",
"165 173 LINE",
"168 173 LINE",
"168 176 LINE"
);
},
{
nodes = (
"393 176 LINE",
"393 173 LINE",
"396 173 LINE",
"396 176 LINE"
);
},
{
nodes = (
"443 176 LINE",
"443 173 LINE",
"445 173 LINE",
"445 176 LINE"
);
},
{
nodes = (
"404 166 OFFCURVE",
"404 152 OFFCURVE",
"409 148 QCURVE",
"413 148 OFFCURVE",
"418 155 OFFCURVE",
"418 164 OFFCURVE",
"413 171 OFFCURVE",
"409 170 QCURVE"
);
},
{
nodes = (
"455 170 LINE",
"455 167 LINE",
"458 167 LINE",
"458 170 LINE"
);
},
{
nodes = (
"651 170 LINE",
"648 165 LINE",
"651 161 LINE",
"656 161 LINE",
"659 165 LINE",
"656 170 LINE"
);
},
{
nodes = (
"381 164 LINE",
"381 161 LINE",
"384 161 LINE",
"384 164 LINE"
);
},
{
nodes = (
"430 164 LINE",
"430 161 LINE",
"433 161 LINE",
"433 164 LINE"
);
},
{
nodes = (
"677 164 LINE",
"677 161 LINE",
"680 161 LINE",
"680 164 LINE"
);
},
{
nodes = (
"122 158 LINE",
"122 155 LINE",
"125 155 LINE",
"125 158 LINE"
);
},
{
nodes = (
"369 158 LINE",
"369 155 LINE",
"371 155 LINE",
"371 158 LINE"
);
},
{
nodes = (
"664 158 LINE",
"664 155 LINE",
"667 155 LINE",
"667 158 LINE"
);
},
{
nodes = (
"135 151 LINE",
"135 149 LINE",
"137 149 LINE",
"137 151 LINE"
);
},
{
nodes = (
"449 151 LINE",
"449 149 LINE",
"452 149 LINE",
"452 151 LINE"
);
},
{
nodes = (
"510 151 LINE",
"510 149 LINE",
"513 149 LINE",
"513 151 LINE"
);
},
{
nodes = (
"141 131 OFFCURVE",
"155 136 QCURVE",
"160 149 OFFCURVE",
"146 144 QCURVE"
);
},
{
nodes = (
"190 145 LINE",
"190 142 LINE",
"193 142 LINE",
"193 145 LINE"
);
},
{
nodes = (
"313 145 LINE",
"313 142 LINE",
"316 142 LINE",
"316 145 LINE"
);
},
{
nodes = (
"338 145 LINE",
"338 142 LINE",
"341 142 LINE",
"341 145 LINE"
);
},
{
nodes = (
"535 145 LINE",
"535 142 LINE",
"538 142 LINE",
"538 145 LINE"
);
},
{
nodes = (
"583 145 LINE",
"581 141 LINE",
"583 136 LINE",
"588 136 LINE",
"591 141 LINE",
"588 145 LINE"
);
},
{
nodes = (
"221 139 LINE",
"221 136 LINE",
"224 136 LINE",
"224 139 LINE"
);
},
{
nodes = (
"276 139 LINE",
"276 136 LINE",
"279 136 LINE",
"279 139 LINE"
);
},
{
nodes = (
"443 139 LINE",
"443 136 LINE",
"445 136 LINE",
"445 139 LINE"
);
},
{
nodes = (
"467 139 LINE",
"467 136 LINE",
"470 136 LINE",
"470 139 LINE"
);
},
{
nodes = (
"651 139 LINE",
"648 135 LINE",
"651 130 LINE",
"656 130 LINE",
"659 135 LINE",
"656 139 LINE"
);
},
{
nodes = (
"689 139 LINE",
"689 136 LINE",
"692 136 LINE",
"692 139 LINE"
);
},
{
nodes = (
"240 120 OFFCURVE",
"254 123 QCURVE",
"257 136 OFFCURVE",
"245 132 QCURVE"
);
},
{
nodes = (
"300 133 LINE",
"297 128 LINE",
"300 124 LINE",
"305 124 LINE",
"307 128 LINE",
"305 133 LINE"
);
},
{
nodes = (
"338 133 LINE",
"338 130 LINE",
"341 130 LINE",
"341 133 LINE"
);
},
{
nodes = (
"350 133 LINE",
"350 130 LINE",
"353 130 LINE",
"353 133 LINE"
);
},
{
nodes = (
"381 133 LINE",
"381 130 LINE",
"384 130 LINE",
"384 133 LINE"
);
},
{
nodes = (
"398 128 OFFCURVE",
"411 121 OFFCURVE",
"415 126 QCURVE SMOOTH",
"419 131 OFFCURVE",
"406 139 OFFCURVE",
"402 134 QCURVE SMOOTH"
);
},
{
nodes = (
"609 133 LINE",
"609 130 LINE",
"612 130 LINE",
"612 133 LINE"
);
},
{
nodes = (
"701 133 LINE",
"701 130 LINE",
"704 130 LINE",
"704 133 LINE"
);
},
{
nodes = (
"178 127 LINE",
"178 124 LINE",
"181 124 LINE",
"181 127 LINE"
);
},
{
nodes = (
"195 127 LINE",
"193 122 LINE",
"195 118 LINE",
"200 118 LINE",
"203 122 LINE",
"200 127 LINE"
);
},
{
nodes = (
"276 127 LINE",
"276 124 LINE",
"279 124 LINE",
"279 127 LINE"
);
},
{
nodes = (
"480 127 LINE",
"480 124 LINE",
"482 124 LINE",
"482 127 LINE"
);
},
{
nodes = (
"498 127 LINE",
"498 124 LINE",
"501 124 LINE",
"501 127 LINE"
);
},
{
nodes = (
"529 127 LINE",
"529 124 LINE",
"532 124 LINE",
"532 127 LINE"
);
},
{
nodes = (
"584 127 LINE",
"584 124 LINE",
"587 124 LINE",
"587 127 LINE"
);
},
{
nodes = (
"393 121 LINE",
"393 118 LINE",
"396 118 LINE",
"396 121 LINE"
);
},
{
nodes = (
"135 114 LINE",
"135 112 LINE",
"137 112 LINE",
"137 114 LINE"
);
},
{
nodes = (
"307 114 LINE",
"307 112 LINE",
"310 112 LINE",
"310 114 LINE"
);
},
{
nodes = (
"449 116 LINE",
"449 111 LINE",
"453 108 LINE",
"458 111 LINE",
"458 116 LINE",
"453 118 LINE"
);
},
{
nodes = (
"491 109 OFFCURVE",
"503 103 QCURVE",
"515 109 OFFCURVE",
"503 115 QCURVE"
);
},
{
nodes = (
"597 108 LINE",
"597 106 LINE",
"599 106 LINE",
"599 108 LINE"
);
},
{
nodes = (
"646 108 LINE",
"646 106 LINE",
"649 106 LINE",
"649 108 LINE"
);
},
{
nodes = (
"246 89 OFFCURVE",
"260 92 QCURVE",
"263 105 OFFCURVE",
"251 101 QCURVE"
);
},
{
nodes = (
"443 102 LINE",
"443 99 LINE",
"445 99 LINE",
"445 102 LINE"
);
},
{
nodes = (
"609 102 LINE",
"609 99 LINE",
"612 99 LINE",
"612 102 LINE"
);
},
{
nodes = (
"239 96 LINE",
"239 93 LINE",
"242 93 LINE",
"242 96 LINE"
);
},
{
nodes = (
"375 96 LINE",
"375 93 LINE",
"378 93 LINE",
"378 96 LINE"
);
},
{
nodes = (
"574 83 OFFCURVE",
"588 88 QCURVE",
"592 101 OFFCURVE",
"579 97 QCURVE"
);
},
{
nodes = (
"326 90 LINE",
"326 87 LINE",
"328 87 LINE",
"328 90 LINE"
);
},
{
nodes = (
"449 90 LINE",
"449 87 LINE",
"452 87 LINE",
"452 90 LINE"
);
}
);
width = 849;
}
);
unicode = 0057;
},
{
glyphname = X;
layers = (
{
layerId = "36F87277-1639-45E8-AAA4-E82D5D969E92";
paths = (
{
nodes = (
"553 46 OFFCURVE",
"565 15 OFFCURVE",
"571 -1 QCURVE",
"507 -2 OFFCURVE",
"381 -1 OFFCURVE",
"318 -2 QCURVE",
"311 13 OFFCURVE",
"299 44 OFFCURVE",
"291 60 QCURVE",
"289 60 OFFCURVE",
"284 59 OFFCURVE",
"282 59 QCURVE",
"274 45 OFFCURVE",
"266 10 OFFCURVE",
"252 -1 QCURVE",
"189 -2 OFFCURVE",
"66 -1 OFFCURVE",
"3 -1 QCURVE",
"9 15 OFFCURVE",
"21 45 OFFCURVE",
"28 61 QCURVE SMOOTH",
"57 124 OFFCURVE",
"113 252 OFFCURVE",
"143 315 QCURVE",
"147 325 OFFCURVE",
"155 345 OFFCURVE",
"156 356 QCURVE",
"154 367 OFFCURVE",
"144 388 OFFCURVE",
"139 399 QCURVE SMOOTH",
"117 444 OFFCURVE",
"79 533 OFFCURVE",
"58 578 QCURVE SMOOTH",
"45 607 OFFCURVE",
"18 664 OFFCURVE",
"9 695 QCURVE",
"72 696 OFFCURVE",
"198 695 OFFCURVE",
"261 696 QCURVE",
"267 684 OFFCURVE",
"277 659 OFFCURVE",
"282 647 QCURVE",
"291 647 LINE",
"297 659 OFFCURVE",
"307 683 OFFCURVE",
"312 696 QCURVE",
"376 695 OFFCURVE",
"502 696 OFFCURVE",
"565 694 QCURVE",
"558 670 OFFCURVE",
"536 626 OFFCURVE",
"526 603 QCURVE SMOOTH",
"503 552 OFFCURVE",
"458 450 OFFCURVE",
"435 399 QCURVE SMOOTH",
"430 387 OFFCURVE",
"420 364 OFFCURVE",
"418 351 QCURVE",
"423 331 OFFCURVE",
"441 296 OFFCURVE",
"449 278 QCURVE SMOOTH",
"474 224 OFFCURVE",
"521 115 OFFCURVE",
"545 61 QCURVE"
);
},
{
nodes = (
"168 121 LINE",
"165 121 LINE",
"165 118 LINE",
"168 118 LINE"
);
},
{
nodes = (
"368 604 LINE",
"371 604 LINE",
"371 607 LINE",
"368 607 LINE"
);
},
{
nodes = (
"352 547 LINE",
"355 543 LINE",
"360 543 LINE",
"362 547 LINE",
"360 552 LINE",
"355 552 LINE"
);
},
{
nodes = (
"350 518 LINE",
"353 518 LINE",
"353 521 LINE",
"350 521 LINE"
);
},
{
nodes = (
"353 221 OFFCURVE",
"352 228 OFFCURVE",
"348 233 OFFCURVE",
"341 234 OFFCURVE",
"338 231 QCURVE SMOOTH",
"331 225 OFFCURVE",
"343 212 OFFCURVE",
"349 218 QCURVE SMOOTH"
);
},
{
nodes = (
"353 241 LINE",
"353 244 LINE",
"350 244 LINE",
"350 241 LINE"
);
},
{
nodes = (
"319 238 LINE",
"319 235 LINE",
"322 235 LINE",
"322 238 LINE"
);
},
{
nodes = (
"311 260 LINE",
"307 257 LINE",
"307 252 LINE",
"311 250 LINE",
"316 252 LINE",
"316 257 LINE"
);
},
{
nodes = (
"303 301 OFFCURVE",
"298 301 OFFCURVE",
"296 302 QCURVE",
"296 296 OFFCURVE",
"297 284 OFFCURVE",
"297 278 QCURVE",
"299 283 OFFCURVE",
"305 294 OFFCURVE",
"305 300 QCURVE"
);
},
{
nodes = (
"242 401 LINE",
"242 404 LINE",
"239 404 LINE",
"239 401 LINE"
);
},
{
nodes = (
"273 268 LINE",
"273 266 LINE"
);
},
{
nodes = (
"314 462 OFFCURVE",
"307 466 QCURVE",
"308 463 OFFCURVE",
"308 456 QCURVE"
);
},
{
nodes = (
"270 216 LINE",
"273 216 LINE",
"273 219 LINE",
"270 219 LINE"
);
},
{
nodes = (
"274 235 LINE",
"276 239 LINE",
"274 244 LINE",
"271 244 LINE",
"271 238 OFFCURVE",
"270 235 QCURVE"
);
},
{
nodes = (
"282 303 LINE",
"285 303 LINE",
"285 304 LINE",
"282 304 LINE"
);
},
{
nodes = (
"294 253 LINE",
"297 253 LINE",
"297 256 LINE",
"294 256 LINE"
);
},
{
nodes = (
"322 420 LINE",
"322 422 LINE",
"319 422 LINE",
"319 420 LINE"
);
},
{
nodes = (
"328 438 LINE",
"328 441 LINE",
"325 441 LINE",
"325 438 LINE"
);
},
{
nodes = (
"331 392 LINE",
"331 389 LINE",
"334 389 LINE",
"334 392 LINE"
);
},
{
nodes = (
"334 420 LINE",
"334 422 LINE",
"331 422 LINE",
"331 420 LINE"
);
},
{
nodes = (
"337 407 LINE",
"340 407 LINE",
"340 410 LINE",
"337 410 LINE"
);
},
{
nodes = (
"319 537 LINE",
"322 537 LINE",
"322 540 LINE",
"319 540 LINE"
);
},
{
nodes = (
"319 512 LINE",
"322 512 LINE",
"322 515 LINE",
"319 515 LINE"
);
},
{
nodes = (
"319 481 LINE",
"322 481 LINE",
"322 484 LINE",
"319 484 LINE"
);
},
{
nodes = (
"326 473 OFFCURVE",
"316 463 OFFCURVE",
"319 458 QCURVE SMOOTH",
"322 455 OFFCURVE",
"330 458 OFFCURVE",
"335 463 OFFCURVE",
"335 470 OFFCURVE",
"331 472 QCURVE"
);
},
{
nodes = (
"318 386 LINE",
"316 389 OFFCURVE",
"314 395 QCURVE",
"314 393 OFFCURVE",
"315 388 OFFCURVE",
"315 386 QCURVE"
);
},
{
nodes = (
"313 438 LINE",
"316 438 LINE",
"316 441 LINE",
"313 441 LINE"
);
},
{
nodes = (
"306 485 LINE",
"318 491 OFFCURVE",
"306 497 QCURVE",
"304 497 LINE",
"305 493 OFFCURVE",
"305 485 QCURVE"
);
},
{
nodes = (
"303 521 LINE",
"301 521 LINE",
"301 520 OFFCURVE",
"302 519 OFFCURVE",
"302 518 QCURVE",
"303 518 LINE"
);
},
{
nodes = (
"251 500 LINE",
"254 500 LINE",
"254 503 LINE",
"251 503 LINE"
);
},
{
nodes = (
"251 475 LINE",
"254 475 LINE",
"254 478 LINE",
"251 478 LINE"
);
},
{
nodes = (
"251 463 LINE",
"254 463 LINE",
"254 466 LINE",
"251 466 LINE"
);
},
{
nodes = (
"245 561 LINE",
"248 561 LINE",
"248 564 LINE",
"245 564 LINE"
);
},
{
nodes = (
"238 423 OFFCURVE",
"250 417 QCURVE",
"252 425 OFFCURVE",
"253 428 QCURVE",
"252 429 OFFCURVE",
"251 429 OFFCURVE",
"250 430 QCURVE"
);
},
{
nodes = (
"239 500 LINE",
"242 500 LINE",
"242 503 LINE",
"239 503 LINE"
);
},
{
nodes = (
"244 480 OFFCURVE",
"232 489 OFFCURVE",
"228 484 QCURVE SMOOTH",
"224 479 OFFCURVE",
"236 470 OFFCURVE",
"240 475 QCURVE SMOOTH"
);
},
{
nodes = (
"223 547 LINE",
"225 543 LINE",
"231 543 LINE",
"233 547 LINE",
"231 552 LINE",
"225 552 LINE"
);
},
{
nodes = (
"227 466 OFFCURVE",
"219 456 OFFCURVE",
"222 451 QCURVE SMOOTH",
"225 448 OFFCURVE",
"233 451 OFFCURVE",
"237 457 OFFCURVE",
"236 464 OFFCURVE",
"232 465 QCURVE SMOOTH"
);
},
{
nodes = (
"214 259 LINE",
"216 255 OFFCURVE",
"216 255 QCURVE",
"216 263 LINE"
);
},
{
nodes = (
"208 216 LINE",
"211 216 LINE",
"211 219 LINE",
"208 219 LINE"
);
},
{
nodes = (
"208 204 LINE",
"211 204 LINE",
"211 207 LINE",
"208 207 LINE"
);
},
{
nodes = (
"202 555 LINE",
"205 555 LINE",
"205 558 LINE",
"202 558 LINE"
);
},
{
nodes = (
"186 521 LINE",
"183 521 LINE",
"183 518 LINE",
"186 518 LINE"
);
},
{
nodes = (
"199 534 LINE",
"194 537 LINE",
"190 534 LINE",
"190 529 LINE",
"194 527 LINE",
"199 529 LINE"
);
},
{
nodes = (
"199 607 LINE",
"196 607 LINE",
"196 604 LINE",
"199 604 LINE"
);
},
{
nodes = (
"205 158 LINE",
"202 158 LINE",
"202 155 LINE",
"205 155 LINE"
);
},
{
nodes = (
"195 183 OFFCURVE",
"207 177 QCURVE",
"211 179 OFFCURVE",
"212 180 QCURVE",
"212 186 LINE",
"211 187 OFFCURVE",
"207 189 QCURVE"
);
},
{
nodes = (
"254 151 LINE",
"251 151 LINE",
"251 149 LINE",
"254 149 LINE"
);
},
{
nodes = (
"254 179 LINE",
"254 182 LINE",
"253 179 LINE"
);
},
{
nodes = (
"263 165 OFFCURVE",
"268 160 OFFCURVE",
"276 158 OFFCURVE",
"284 161 OFFCURVE",
"284 166 QCURVE",
"283 173 OFFCURVE",
"269 175 OFFCURVE",
"266 170 QCURVE SMOOTH"
);
},
{
nodes = (
"301 185 OFFCURVE",
"293 198 OFFCURVE",
"287 193 QCURVE SMOOTH",
"282 189 OFFCURVE",
"290 176 OFFCURVE",
"296 181 QCURVE SMOOTH"
);
},
{
nodes = (
"301 223 OFFCURVE",
"288 232 OFFCURVE",
"284 226 QCURVE SMOOTH",
"279 220 OFFCURVE",
"292 211 OFFCURVE",
"297 217 QCURVE SMOOTH"
);
},
{
nodes = (
"305 262 LINE",
"309 264 LINE",
"309 270 LINE",
"305 272 LINE",
"301 270 LINE",
"301 264 LINE"
);
},
{
nodes = (
"316 164 LINE",
"313 164 LINE",
"313 161 LINE",
"316 161 LINE"
);
},
{
nodes = (
"325 173 OFFCURVE",
"320 190 OFFCURVE",
"312 188 QCURVE SMOOTH",
"304 186 OFFCURVE",
"308 169 OFFCURVE",
"316 172 QCURVE"
);
},
{
nodes = (
"330 211 OFFCURVE",
"318 211 QCURVE",
"309 201 OFFCURVE",
"323 199 QCURVE"
);
},
{
nodes = (
"328 281 LINE",
"325 281 LINE",
"325 278 LINE",
"328 278 LINE"
);
},
{
nodes = (
"334 145 LINE",
"331 145 LINE",
"331 142 LINE",
"334 142 LINE"
);
},
{
nodes = (
"334 176 LINE",
"331 176 LINE",
"331 173 LINE",
"334 173 LINE"
);
},
{
nodes = (
"327 194 OFFCURVE",
"341 199 QCURVE",
"345 211 OFFCURVE",
"332 208 QCURVE"
);
},
{
nodes = (
"354 167 OFFCURVE",
"356 182 OFFCURVE",
"349 182 QCURVE SMOOTH",
"342 182 OFFCURVE",
"340 167 OFFCURVE",
"348 167 QCURVE SMOOTH"
);
},
{
nodes = (
"363 450 OFFCURVE",
"354 462 OFFCURVE",
"349 458 QCURVE SMOOTH",
"346 456 OFFCURVE",
"346 450 OFFCURVE",
"349 446 OFFCURVE",
"354 444 OFFCURVE",
"357 446 QCURVE SMOOTH"
);
},
{
nodes = (
"358 477 OFFCURVE",
"370 482 QCURVE",
"374 495 OFFCURVE",
"361 491 QCURVE"
);
},
{
nodes = (
"365 195 LINE",
"362 195 LINE",
"362 192 LINE",
"365 192 LINE"
);
},
{
nodes = (
"365 225 LINE",
"362 225 LINE",
"362 222 LINE",
"365 222 LINE"
);
},
{
nodes = (
"381 219 OFFCURVE",
"368 214 QCURVE",
"363 200 OFFCURVE",
"376 205 QCURVE"
);
},
{
nodes = (
"396 182 LINE",
"393 182 LINE",
"393 179 LINE",
"396 179 LINE"
);
}
);
width = 584;
}
);
unicode = 0058;
},
{
glyphname = Y;
layers = (
{
layerId = "36F87277-1639-45E8-AAA4-E82D5D969E92";
paths = (
{
nodes = (
"22 696 LINE",
"139 697 OFFCURVE",
"256 696 QCURVE",
"257 627 OFFCURVE",
"255 489 OFFCURVE",
"256 419 QCURVE",
"299 419 LINE",
"300 489 OFFCURVE",
"298 627 OFFCURVE",
"299 696 QCURVE",
"416 697 OFFCURVE",
"533 696 QCURVE",
"533 521 OFFCURVE",
"534 175 OFFCURVE",
"533 0 QCURVE",
"405 0 OFFCURVE",
"151 0 OFFCURVE",
"22 1 QCURVE",
"22 59 OFFCURVE",
"21 175 OFFCURVE",
"22 234 QCURVE",
"91 235 OFFCURVE",
"230 234 OFFCURVE",
"299 234 QCURVE",
"299 278 LINE",
"230 278 OFFCURVE",
"92 277 OFFCURVE",
"22 278 QCURVE"
);
},
{
nodes = (
"399 522 LINE",
"399 519 LINE",
"402 519 LINE",
"402 522 LINE"
);
},
{
nodes = (
"116 479 LINE",
"116 476 LINE",
"119 476 LINE",
"119 479 LINE"
);
},
{
nodes = (
"141 479 LINE",
"141 476 LINE",
"144 476 LINE",
"144 479 LINE"
);
},
{
nodes = (
"147 436 LINE",
"147 433 LINE",
"150 433 LINE",
"150 436 LINE"
);
},
{
nodes = (
"399 374 LINE",
"399 372 LINE",
"402 372 LINE",
"402 374 LINE"
);
},
{
nodes = (
"398 325 LINE",
"396 321 LINE",
"398 316 LINE",
"403 316 LINE",
"406 321 LINE",
"403 325 LINE"
);
},
{
nodes = (
"381 319 LINE",
"381 316 LINE",
"384 316 LINE",
"384 319 LINE"
);
},
{
nodes = (
"436 301 LINE",
"436 298 LINE",
"439 298 LINE",
"439 301 LINE"
);
},
{
nodes = (
"443 288 LINE",
"443 285 LINE",
"445 285 LINE",
"445 288 LINE"
);
},
{
nodes = (
"393 283 LINE",
"393 278 LINE",
"398 276 LINE",
"402 278 LINE",
"402 283 LINE",
"398 286 LINE"
);
},
{
nodes = (
"412 276 LINE",
"412 273 LINE",
"415 273 LINE",
"415 276 LINE"
);
},
{
nodes = (
"424 246 LINE",
"424 241 LINE",
"429 239 LINE",
"433 241 LINE",
"433 246 LINE",
"429 249 LINE"
);
},
{
nodes = (
"424 227 LINE",
"424 224 LINE",
"427 224 LINE",
"427 227 LINE"
);
},
{
nodes = (
"416 191 OFFCURVE",
"429 183 OFFCURVE",
"433 188 QCURVE SMOOTH",
"437 194 OFFCURVE",
"424 202 OFFCURVE",
"420 197 QCURVE SMOOTH"
);
},
{
nodes = (
"412 183 LINE",
"412 181 LINE",
"415 181 LINE",
"415 183 LINE"
);
},
{
nodes = (
"369 177 LINE",
"369 174 LINE",
"371 174 LINE",
"371 177 LINE"
);
},
{
nodes = (
"369 159 LINE",
"369 156 LINE",
"371 156 LINE",
"371 159 LINE"
);
},
{
nodes = (
"332 147 LINE",
"332 144 LINE",
"335 144 LINE",
"335 147 LINE"
);
},
{
nodes = (
"381 148 LINE",
"381 143 LINE",
"385 140 LINE",
"390 143 LINE",
"390 148 LINE",
"385 150 LINE"
);
},
{
nodes = (
"294 140 LINE",
"291 136 LINE",
"294 131 LINE",
"299 131 LINE",
"301 136 LINE",
"299 140 LINE"
);
},
{
nodes = (
"436 134 LINE",
"436 131 LINE",
"439 131 LINE",
"439 134 LINE"
);
},
{
nodes = (
"307 110 LINE",
"307 107 LINE",
"310 107 LINE",
"310 110 LINE"
);
},
{
nodes = (
"366 98 OFFCURVE",
"378 101 QCURVE",
"382 114 OFFCURVE",
"369 110 QCURVE"
);
}
);
width = 565;
}
);
unicode = 0059;
},
{
glyphname = Z;
layers = (
{
layerId = "36F87277-1639-45E8-AAA4-E82D5D969E92";
paths = (
{
nodes = (
"154 698 OFFCURVE",
"408 696 OFFCURVE",
"537 698 QCURVE",
"502 608 OFFCURVE",
"436 430 OFFCURVE",
"401 340 QCURVE",
"392 314 OFFCURVE",
"371 262 OFFCURVE",
"364 235 QCURVE",
"407 234 OFFCURVE",
"493 235 OFFCURVE",
"537 235 QCURVE",
"538 118 OFFCURVE",
"537 1 QCURVE",
"26 1 LINE",
"28 11 OFFCURVE",
"34 29 OFFCURVE",
"37 39 QCURVE",
"78 145 OFFCURVE",
"157 358 OFFCURVE",
"198 465 QCURVE",
"154 463 OFFCURVE",
"69 462 OFFCURVE",
"26 463 QCURVE",
"24 580 OFFCURVE",
"26 697 QCURVE"
);
},
{
nodes = (
"255 609 LINE",
"255 606 LINE",
"258 606 LINE",
"258 609 LINE"
);
},
{
nodes = (
"274 609 LINE",
"274 606 LINE",
"277 606 LINE",
"277 609 LINE"
);
},
{
nodes = (
"280 597 LINE",
"280 594 LINE",
"283 594 LINE",
"283 597 LINE"
);
},
{
nodes = (
"325 582 OFFCURVE",
"337 587 QCURVE",
"341 600 OFFCURVE",
"328 596 QCURVE"
);
},
{
nodes = (
"366 597 LINE",
"366 594 LINE",
"369 594 LINE",
"369 597 LINE"
);
},
{
nodes = (
"249 585 LINE",
"249 580 LINE",
"254 578 LINE",
"258 580 LINE",
"258 585 LINE",
"254 588 LINE"
);
},
{
nodes = (
"188 578 LINE",
"188 575 LINE",
"190 575 LINE",
"190 578 LINE"
);
},
{
nodes = (
"314 568 OFFCURVE",
"326 559 OFFCURVE",
"330 565 QCURVE SMOOTH",
"334 570 OFFCURVE",
"322 578 OFFCURVE",
"318 573 QCURVE SMOOTH"
);
},
{
nodes = (
"188 560 LINE",
"188 557 LINE",
"190 557 LINE",
"190 560 LINE"
);
},
{
nodes = (
"261 560 LINE",
"261 557 LINE",
"264 557 LINE",
"264 560 LINE"
);
},
{
nodes = (
"297 554 OFFCURVE",
"310 548 QCURVE",
"323 554 OFFCURVE",
"310 561 QCURVE"
);
},
{
nodes = (
"322 551 OFFCURVE",
"320 546 OFFCURVE",
"320 544 QCURVE",
"322 541 LINE",
"327 538 OFFCURVE",
"332 544 OFFCURVE",
"332 551 OFFCURVE",
"327 556 OFFCURVE",
"322 553 QCURVE"
);
},
{
nodes = (
"249 547 LINE",
"249 545 LINE",
"252 545 LINE",
"252 547 LINE"
);
},
{
nodes = (
"260 547 LINE",
"258 543 LINE",
"260 538 LINE",
"265 538 LINE",
"268 543 LINE",
"265 547 LINE"
);
},
{
nodes = (
"274 547 LINE",
"274 545 LINE",
"277 545 LINE",
"277 547 LINE"
);
},
{
nodes = (
"292 547 LINE",
"292 545 LINE",
"295 545 LINE",
"295 547 LINE"
);
},
{
nodes = (
"334 541 LINE",
"332 537 LINE",
"334 532 LINE",
"339 532 LINE",
"342 537 LINE",
"339 541 LINE"
);
},
{
nodes = (
"305 535 LINE",
"305 532 LINE",
"307 532 LINE",
"307 535 LINE"
);
},
{
nodes = (
"354 535 LINE",
"354 532 LINE",
"357 532 LINE",
"357 535 LINE"
);
},
{
nodes = (
"265 510 OFFCURVE",
"277 515 QCURVE",
"282 528 OFFCURVE",
"268 523 QCURVE"
);
},
{
nodes = (
"354 523 LINE",
"354 520 LINE",
"357 520 LINE",
"357 523 LINE"
);
},
{
nodes = (
"291 510 LINE",
"289 506 LINE",
"291 502 LINE",
"296 502 LINE",
"299 506 LINE",
"296 510 LINE"
);
},
{
nodes = (
"338 492 OFFCURVE",
"349 501 QCURVE",
"347 514 OFFCURVE",
"337 505 QCURVE"
);
},
{
nodes = (
"317 498 LINE",
"317 495 LINE",
"320 495 LINE",
"320 498 LINE"
);
},
{
nodes = (
"323 473 LINE",
"323 471 LINE",
"326 471 LINE",
"326 473 LINE"
);
},
{
nodes = (
"318 452 OFFCURVE",
"323 446 OFFCURVE",
"330 443 OFFCURVE",
"337 445 OFFCURVE",
"337 450 QCURVE",
"336 455 OFFCURVE",
"324 460 OFFCURVE",
"320 455 QCURVE SMOOTH"
);
},
{
nodes = (
"280 412 LINE",
"280 409 LINE",
"283 409 LINE",
"283 412 LINE"
);
},
{
nodes = (
"310 406 LINE",
"307 401 LINE",
"310 397 LINE",
"315 397 LINE",
"317 401 LINE",
"315 406 LINE"
);
},
{
nodes = (
"292 363 LINE",
"292 360 LINE",
"295 360 LINE",
"295 363 LINE"
);
},
{
nodes = (
"274 307 LINE",
"274 304 LINE",
"277 304 LINE",
"277 307 LINE"
);
},
{
nodes = (
"231 271 LINE",
"231 266 LINE",
"235 264 LINE",
"240 266 LINE",
"240 271 LINE",
"235 274 LINE"
);
},
{
nodes = (
"255 247 LINE",
"255 242 LINE",
"260 239 LINE",
"264 242 LINE",
"264 247 LINE",
"260 249 LINE"
);
},
{
nodes = (
"206 221 LINE",
"206 218 LINE",
"209 218 LINE",
"209 221 LINE"
);
},
{
nodes = (
"268 215 LINE",
"268 212 LINE",
"270 212 LINE",
"270 215 LINE"
);
},
{
nodes = (
"274 182 OFFCURVE",
"288 187 QCURVE",
"293 200 OFFCURVE",
"279 195 QCURVE"
);
},
{
nodes = (
"218 190 LINE",
"218 187 LINE",
"221 187 LINE",
"221 190 LINE"
);
},
{
nodes = (
"249 190 LINE",
"249 187 LINE",
"252 187 LINE",
"252 190 LINE"
);
},
{
nodes = (
"268 190 LINE",
"268 187 LINE",
"270 187 LINE",
"270 190 LINE"
);
},
{
nodes = (
"226 178 OFFCURVE",
"235 166 OFFCURVE",
"240 170 QCURVE SMOOTH",
"245 175 OFFCURVE",
"236 187 OFFCURVE",
"231 182 QCURVE SMOOTH"
);
},
{
nodes = (
"212 159 LINE",
"212 156 LINE",
"215 156 LINE",
"215 159 LINE"
);
},
{
nodes = (
"212 148 OFFCURVE",
"224 142 QCURVE",
"236 148 OFFCURVE",
"224 154 QCURVE"
);
},
{
nodes = (
"250 134 OFFCURVE",
"263 139 QCURVE",
"267 151 OFFCURVE",
"255 148 QCURVE"
);
},
{
nodes = (
"286 147 LINE",
"286 144 LINE",
"289 144 LINE",
"289 147 LINE"
);
},
{
nodes = (
"280 130 LINE",
"280 125 LINE",
"284 122 LINE",
"289 125 LINE",
"289 130 LINE",
"284 132 LINE"
);
},
{
nodes = (
"240 113 OFFCURVE",
"241 107 OFFCURVE",
"244 102 OFFCURVE",
"249 101 OFFCURVE",
"252 103 QCURVE SMOOTH",
"257 107 OFFCURVE",
"248 119 OFFCURVE",
"243 115 QCURVE SMOOTH"
);
},
{
nodes = (
"280 116 LINE",
"280 113 LINE",
"283 113 LINE",
"283 116 LINE"
);
},
{
nodes = (
"311 104 LINE",
"311 101 LINE",
"314 101 LINE",
"314 104 LINE"
);
},
{
nodes = (
"335 98 LINE",
"335 95 LINE",
"338 95 LINE",
"338 98 LINE"
);
}
);
width = 565;
}
);
unicode = 005A;
},
{
glyphname = a;
layers = (
{
layerId = "36F87277-1639-45E8-AAA4-E82D5D969E92";
paths = (
{
nodes = (
"280 700 OFFCURVE",
"535 699 QCURVE",
"536 351 OFFCURVE",
"535 3 QCURVE",
"302 3 LINE",
"302 188 LINE",
"258 188 LINE",
"259 141 OFFCURVE",
"258 50 OFFCURVE",
"258 4 QCURVE",
"199 3 OFFCURVE",
"83 3 OFFCURVE",
"25 3 QCURVE",
"24 212 OFFCURVE",
"25 422 QCURVE",
"83 421 OFFCURVE",
"199 424 OFFCURVE",
"257 420 QCURVE",
"260 324 LINE",
"301 324 LINE",
"302 394 OFFCURVE",
"301 465 QCURVE",
"232 466 OFFCURVE",
"94 464 OFFCURVE",
"25 465 QCURVE",
"23 582 OFFCURVE",
"25 699 QCURVE"
);
},
{
nodes = (
"371 599 LINE",
"371 596 LINE",
"374 596 LINE",
"374 599 LINE"
);
},
{
nodes = (
"322 594 LINE",
"322 589 LINE",
"326 586 LINE",
"331 589 LINE",
"331 594 LINE",
"326 597 LINE"
);
},
{
nodes = (
"369 582 OFFCURVE",
"375 577 OFFCURVE",
"384 576 OFFCURVE",
"393 579 OFFCURVE",
"393 584 QCURVE",
"390 589 OFFCURVE",
"377 590 OFFCURVE",
"373 587 QCURVE"
);
},
{
nodes = (
"414 574 LINE",
"414 572 LINE",
"417 572 LINE",
"417 574 LINE"
);
},
{
nodes = (
"408 562 LINE",
"408 559 LINE",
"411 559 LINE",
"411 562 LINE"
);
},
{
nodes = (
"260 557 LINE",
"260 552 LINE",
"265 550 LINE",
"269 552 LINE",
"269 557 LINE",
"265 560 LINE"
);
},
{
nodes = (
"377 550 LINE",
"377 547 LINE",
"380 547 LINE",
"380 550 LINE"
);
},
{
nodes = (
"353 544 LINE",
"353 541 LINE",
"355 541 LINE",
"355 544 LINE"
);
},
{
nodes = (
"365 531 LINE",
"365 529 LINE",
"368 529 LINE",
"368 531 LINE"
);
},
{
nodes = (
"402 531 LINE",
"402 529 LINE",
"405 529 LINE",
"405 531 LINE"
);
},
{
nodes = (
"380 500 OFFCURVE",
"381 488 OFFCURVE",
"386 485 QCURVE",
"390 485 OFFCURVE",
"394 493 OFFCURVE",
"393 503 OFFCURVE",
"387 508 OFFCURVE",
"383 505 QCURVE"
);
},
{
nodes = (
"402 501 LINE",
"402 498 LINE",
"405 498 LINE",
"405 501 LINE"
);
},
{
nodes = (
"426 445 LINE",
"426 442 LINE",
"429 442 LINE",
"429 445 LINE"
);
},
{
nodes = (
"408 383 LINE",
"408 381 LINE",
"411 381 LINE",
"411 383 LINE"
);
},
{
nodes = (
"395 359 LINE",
"392 354 LINE",
"395 350 LINE",
"400 350 LINE",
"402 354 LINE",
"400 359 LINE"
);
},
{
nodes = (
"414 340 LINE",
"414 338 LINE",
"417 338 LINE",
"417 340 LINE"
);
},
{
nodes = (
"414 328 LINE",
"414 325 LINE",
"417 325 LINE",
"417 328 LINE"
);
},
{
nodes = (
"420 297 LINE",
"420 294 LINE",
"423 294 LINE",
"423 297 LINE"
);
},
{
nodes = (
"396 285 LINE",
"396 282 LINE",
"398 282 LINE",
"398 285 LINE"
);
},
{
nodes = (
"395 267 OFFCURVE",
"407 261 QCURVE",
"419 267 OFFCURVE",
"407 274 QCURVE"
);
},
{
nodes = (
"186 254 LINE",
"186 251 LINE",
"189 251 LINE",
"189 254 LINE"
);
},
{
nodes = (
"396 255 LINE",
"396 250 LINE",
"400 248 LINE",
"405 250 LINE",
"405 255 LINE",
"400 258 LINE"
);
},
{
nodes = (
"118 242 LINE",
"118 239 LINE",
"121 239 LINE",
"121 242 LINE"
);
},
{
nodes = (
"382 242 LINE",
"380 237 LINE",
"382 233 LINE",
"387 233 LINE",
"390 237 LINE",
"387 242 LINE"
);
},
{
nodes = (
"426 236 LINE",
"426 233 LINE",
"429 233 LINE",
"429 236 LINE"
);
},
{
nodes = (
"155 229 LINE",
"155 227 LINE",
"158 227 LINE",
"158 229 LINE"
);
},
{
nodes = (
"118 217 LINE",
"118 214 LINE",
"121 214 LINE",
"121 217 LINE"
);
},
{
nodes = (
"168 211 LINE",
"168 208 LINE",
"171 208 LINE",
"171 211 LINE"
);
},
{
nodes = (
"149 199 LINE",
"149 196 LINE",
"152 196 LINE",
"152 199 LINE"
);
}
);
width = 565;
}
);
unicode = 0061;
},
{
glyphname = b;
layers = (
{
layerId = "36F87277-1639-45E8-AAA4-E82D5D969E92";
paths = (
{
nodes = (
"157 700 OFFCURVE",
"413 698 OFFCURVE",
"542 699 QCURVE",
"536 602 OFFCURVE",
"539 413 OFFCURVE",
"538 317 QCURVE",
"539 237 OFFCURVE",
"536 80 OFFCURVE",
"542 0 QCURVE",
"412 4 OFFCURVE",
"156 1 OFFCURVE",
"27 3 QCURVE",
"25 209 OFFCURVE",
"27 415 QCURVE",
"143 417 OFFCURVE",
"260 415 QCURVE",
"260 407 OFFCURVE",
"261 380 OFFCURVE",
"262 372 QCURVE",
"310 372 LINE",
"310 395 OFFCURVE",
"311 440 OFFCURVE",
"308 463 QCURVE",
"237 466 OFFCURVE",
"98 463 OFFCURVE",
"27 465 QCURVE",
"27 523 OFFCURVE",
"25 639 OFFCURVE",
"28 697 QCURVE"
);
},
{
nodes = (
"268 598 LINE",
"268 596 LINE",
"271 596 LINE",
"271 598 LINE"
);
},
{
nodes = (
"392 578 OFFCURVE",
"406 583 QCURVE",
"410 595 OFFCURVE",
"397 592 QCURVE"
);
},
{
nodes = (
"367 586 LINE",
"367 583 LINE",
"370 583 LINE",
"370 586 LINE"
);
},
{
nodes = (
"286 568 LINE",
"283 563 LINE",
"286 559 LINE",
"291 559 LINE",
"293 563 LINE",
"291 568 LINE"
);
},
{
nodes = (
"349 568 LINE",
"349 565 LINE",
"351 565 LINE",
"351 568 LINE"
);
},
{
nodes = (
"361 568 LINE",
"361 565 LINE",
"364 565 LINE",
"364 568 LINE"
);
},
{
nodes = (
"324 562 LINE",
"324 559 LINE",
"327 559 LINE",
"327 562 LINE"
);
},
{
nodes = (
"379 562 LINE",
"379 559 LINE",
"382 559 LINE",
"382 562 LINE"
);
},
{
nodes = (
"385 549 LINE",
"385 546 LINE",
"388 546 LINE",
"388 549 LINE"
);
},
{
nodes = (
"404 549 LINE",
"404 546 LINE",
"407 546 LINE",
"407 549 LINE"
);
},
{
nodes = (
"367 543 LINE",
"367 540 LINE",
"370 540 LINE",
"370 543 LINE"
);
},
{
nodes = (
"379 531 LINE",
"379 528 LINE",
"382 528 LINE",
"382 531 LINE"
);
},
{
nodes = (
"410 512 LINE",
"410 509 LINE",
"413 509 LINE",
"413 512 LINE"
);
},
{
nodes = (
"422 506 LINE",
"422 503 LINE",
"425 503 LINE",
"425 506 LINE"
);
},
{
nodes = (
"441 494 LINE",
"441 491 LINE",
"444 491 LINE",
"444 494 LINE"
);
},
{
nodes = (
"404 395 LINE",
"404 392 LINE",
"407 392 LINE",
"407 395 LINE"
);
},
{
nodes = (
"431 382 OFFCURVE",
"444 387 QCURVE",
"449 401 OFFCURVE",
"436 396 QCURVE"
);
},
{
nodes = (
"373 309 LINE",
"373 306 LINE",
"376 306 LINE",
"376 309 LINE"
);
},
{
nodes = (
"127 290 LINE",
"127 288 LINE",
"130 288 LINE",
"130 290 LINE"
);
},
{
nodes = (
"410 290 LINE",
"410 288 LINE",
"413 288 LINE",
"413 290 LINE"
);
},
{
nodes = (
"429 272 LINE",
"429 269 LINE",
"431 269 LINE",
"431 272 LINE"
);
},
{
nodes = (
"151 261 LINE",
"151 256 LINE",
"156 253 LINE",
"160 256 LINE",
"160 261 LINE",
"156 263 LINE"
);
},
{
nodes = (
"145 241 LINE",
"145 238 LINE",
"148 238 LINE",
"148 241 LINE"
);
},
{
nodes = (
"399 236 OFFCURVE",
"404 223 OFFCURVE",
"410 225 QCURVE SMOOTH",
"414 226 OFFCURVE",
"416 234 OFFCURVE",
"413 241 OFFCURVE",
"407 243 OFFCURVE",
"403 240 QCURVE SMOOTH"
);
},
{
nodes = (
"164 235 LINE",
"164 232 LINE",
"167 232 LINE",
"167 235 LINE"
);
},
{
nodes = (
"261 231 LINE",
"261 187 LINE",
"310 187 LINE",
"310 231 LINE"
);
},
{
nodes = (
"164 223 LINE",
"164 220 LINE",
"167 220 LINE",
"167 223 LINE"
);
},
{
nodes = (
"415 204 LINE",
"413 200 LINE",
"415 195 LINE",
"420 195 LINE",
"423 200 LINE",
"420 204 LINE"
);
},
{
nodes = (
"404 173 LINE",
"404 171 LINE",
"407 171 LINE",
"407 173 LINE"
);
},
{
nodes = (
"158 155 LINE",
"158 152 LINE",
"160 152 LINE",
"160 155 LINE"
);
}
);
width = 565;
}
);
unicode = 0062;
},
{
glyphname = c;
layers = (
{
layerId = "36F87277-1639-45E8-AAA4-E82D5D969E92";
paths = (
{
nodes = (
"153 697 OFFCURVE",
"407 696 OFFCURVE",
"535 696 QCURVE",
"535 637 OFFCURVE",
"536 521 OFFCURVE",
"535 462 QCURVE",
"466 461 OFFCURVE",
"327 463 OFFCURVE",
"258 462 QCURVE",
"256 345 OFFCURVE",
"258 228 QCURVE",
"327 227 OFFCURVE",
"465 229 OFFCURVE",
"535 228 QCURVE",
"536 114 OFFCURVE",
"535 0 QCURVE",
"24 0 LINE",
"23 140 OFFCURVE",
"24 415 OFFCURVE",
"23 554 QCURVE",
"23 589 OFFCURVE",
"23 660 OFFCURVE",
"25 695 QCURVE"
);
},
{
nodes = (
"210 577 LINE",
"210 575 LINE",
"213 575 LINE",
"213 577 LINE"
);
},
{
nodes = (
"309 577 LINE",
"309 575 LINE",
"312 575 LINE",
"312 577 LINE"
);
},
{
nodes = (
"318 566 OFFCURVE",
"331 569 QCURVE",
"334 582 OFFCURVE",
"322 578 QCURVE"
);
},
{
nodes = (
"426 577 LINE",
"426 575 LINE",
"429 575 LINE",
"429 577 LINE"
);
},
{
nodes = (
"161 566 LINE",
"161 561 LINE",
"165 559 LINE",
"170 561 LINE",
"170 566 LINE",
"165 569 LINE"
);
},
{
nodes = (
"259 559 LINE",
"259 556 LINE",
"262 556 LINE",
"262 559 LINE"
);
},
{
nodes = (
"235 553 LINE",
"235 550 LINE",
"238 550 LINE",
"238 553 LINE"
);
},
{
nodes = (
"129 539 OFFCURVE",
"128 524 OFFCURVE",
"136 524 QCURVE SMOOTH",
"142 524 OFFCURVE",
"143 540 OFFCURVE",
"136 539 QCURVE"
);
},
{
nodes = (
"173 540 LINE",
"173 538 LINE",
"176 538 LINE",
"176 540 LINE"
);
},
{
nodes = (
"155 534 LINE",
"155 531 LINE",
"158 531 LINE",
"158 534 LINE"
);
},
{
nodes = (
"174 514 OFFCURVE",
"172 501 OFFCURVE",
"178 500 QCURVE SMOOTH",
"182 499 OFFCURVE",
"188 505 OFFCURVE",
"189 513 OFFCURVE",
"184 518 OFFCURVE",
"179 516 QCURVE SMOOTH"
);
},
{
nodes = (
"154 460 LINE",
"151 456 LINE",
"154 451 LINE",
"159 451 LINE",
"161 456 LINE",
"159 460 LINE"
);
},
{
nodes = (
"142 442 LINE",
"142 439 LINE",
"145 439 LINE",
"145 442 LINE"
);
},
{
nodes = (
"161 442 LINE",
"161 439 LINE",
"164 439 LINE",
"164 442 LINE"
);
},
{
nodes = (
"149 423 LINE",
"149 421 LINE",
"151 421 LINE",
"151 423 LINE"
);
},
{
nodes = (
"167 399 LINE",
"167 396 LINE",
"170 396 LINE",
"170 399 LINE"
);
},
{
nodes = (
"149 363 LINE",
"149 358 LINE",
"153 355 LINE",
"157 358 LINE",
"157 363 LINE",
"153 365 LINE"
);
},
{
nodes = (
"124 288 LINE",
"124 285 LINE",
"127 285 LINE",
"127 288 LINE"
);
},
{
nodes = (
"142 257 LINE",
"142 254 LINE",
"145 254 LINE",
"145 257 LINE"
);
},
{
nodes = (
"167 232 LINE",
"167 230 LINE",
"170 230 LINE",
"170 232 LINE"
);
},
{
nodes = (
"142 165 LINE",
"142 162 LINE",
"145 162 LINE",
"145 165 LINE"
);
},
{
nodes = (
"136 147 LINE",
"136 142 LINE",
"141 140 LINE",
"145 142 LINE",
"145 147 LINE",
"141 150 LINE"
);
},
{
nodes = (
"204 146 LINE",
"204 143 LINE",
"207 143 LINE",
"207 146 LINE"
);
},
{
nodes = (
"161 134 LINE",
"161 131 LINE",
"164 131 LINE",
"164 134 LINE"
);
},
{
nodes = (
"221 128 OFFCURVE",
"234 122 QCURVE",
"247 128 OFFCURVE",
"234 135 QCURVE"
);
},
{
nodes = (
"259 134 LINE",
"259 131 LINE",
"262 131 LINE",
"262 134 LINE"
);
},
{
nodes = (
"315 134 LINE",
"315 131 LINE",
"318 131 LINE",
"318 134 LINE"
);
},
{
nodes = (
"143 113 OFFCURVE",
"157 118 QCURVE",
"160 130 OFFCURVE",
"148 127 QCURVE"
);
},
{
nodes = (
"179 110 LINE",
"179 105 LINE",
"184 103 LINE",
"188 105 LINE",
"188 110 LINE",
"184 113 LINE"
);
},
{
nodes = (
"346 109 LINE",
"346 106 LINE",
"349 106 LINE",
"349 109 LINE"
);
},
{
nodes = (
"321 103 LINE",
"321 100 LINE",
"324 100 LINE",
"324 103 LINE"
);
},
{
nodes = (
"161 97 LINE",
"161 94 LINE",
"164 94 LINE",
"164 97 LINE"
);
}
);
width = 565;
}
);
unicode = 0063;
},
{
glyphname = d;
layers = (
{
layerId = "36F87277-1639-45E8-AAA4-E82D5D969E92";
paths = (
{
nodes = (
"153 694 OFFCURVE",
"407 696 OFFCURVE",
"535 693 QCURVE",
"537 519 OFFCURVE",
"536 173 OFFCURVE",
"536 -1 QCURVE",
"25 -1 LINE",
"25 411 LINE",
"139 412 OFFCURVE",
"253 411 QCURVE",
"254 365 OFFCURVE",
"251 274 OFFCURVE",
"255 228 QCURVE",
"267 228 OFFCURVE",
"291 227 OFFCURVE",
"303 227 QCURVE",
"302 285 OFFCURVE",
"304 401 OFFCURVE",
"301 459 QCURVE",
"232 462 OFFCURVE",
"94 459 OFFCURVE",
"25 461 QCURVE",
"25 520 OFFCURVE",
"24 636 OFFCURVE",
"25 695 QCURVE"
);
},
{
nodes = (
"396 589 LINE",
"396 586 LINE",
"399 586 LINE",
"399 589 LINE"
);
},
{
nodes = (
"168 582 LINE",
"168 580 LINE",
"171 580 LINE",
"171 582 LINE"
);
},
{
nodes = (
"266 582 LINE",
"263 578 LINE",
"266 573 LINE",
"271 573 LINE",
"273 578 LINE",
"271 582 LINE"
);
},
{
nodes = (
"353 582 LINE",
"353 580 LINE",
"356 580 LINE",
"356 582 LINE"
);
},
{
nodes = (
"236 576 LINE",
"236 573 LINE",
"239 573 LINE",
"239 576 LINE"
);
},
{
nodes = (
"304 576 LINE",
"304 573 LINE",
"307 573 LINE",
"307 576 LINE"
);
},
{
nodes = (
"390 570 LINE",
"390 567 LINE",
"393 567 LINE",
"393 570 LINE"
);
},
{
nodes = (
"267 564 LINE",
"267 561 LINE",
"270 561 LINE",
"270 564 LINE"
);
},
{
nodes = (
"409 558 LINE",
"409 555 LINE",
"412 555 LINE",
"412 558 LINE"
);
},
{
nodes = (
"348 546 OFFCURVE",
"354 534 OFFCURVE",
"360 536 QCURVE SMOOTH",
"364 537 OFFCURVE",
"365 545 OFFCURVE",
"362 551 OFFCURVE",
"356 554 OFFCURVE",
"353 550 QCURVE"
);
},
{
nodes = (
"396 515 LINE",
"396 512 LINE",
"399 512 LINE",
"399 515 LINE"
);
},
{
nodes = (
"384 508 LINE",
"384 506 LINE",
"387 506 LINE",
"387 508 LINE"
);
},
{
nodes = (
"427 484 LINE",
"427 481 LINE",
"430 481 LINE",
"430 484 LINE"
);
},
{
nodes = (
"390 336 LINE",
"390 333 LINE",
"393 333 LINE",
"393 336 LINE"
);
},
{
nodes = (
"440 330 LINE",
"440 327 LINE",
"442 327 LINE",
"442 330 LINE"
);
},
{
nodes = (
"125 324 LINE",
"125 321 LINE",
"128 321 LINE",
"128 324 LINE"
);
},
{
nodes = (
"427 311 LINE",
"427 308 LINE",
"430 308 LINE",
"430 311 LINE"
);
},
{
nodes = (
"119 262 LINE",
"119 259 LINE",
"122 259 LINE",
"122 262 LINE"
);
},
{
nodes = (
"415 250 LINE",
"415 247 LINE",
"418 247 LINE",
"418 250 LINE"
);
},
{
nodes = (
"156 244 LINE",
"156 241 LINE",
"159 241 LINE",
"159 244 LINE"
);
},
{
nodes = (
"144 189 LINE",
"144 184 LINE",
"148 182 LINE",
"153 184 LINE",
"153 189 LINE",
"148 192 LINE"
);
},
{
nodes = (
"162 188 LINE",
"162 185 LINE",
"165 185 LINE",
"165 188 LINE"
);
},
{
nodes = (
"415 176 LINE",
"415 173 LINE",
"418 173 LINE",
"418 176 LINE"
);
},
{
nodes = (
"170 164 OFFCURVE",
"184 155 OFFCURVE",
"188 161 QCURVE SMOOTH",
"193 168 OFFCURVE",
"179 176 OFFCURVE",
"175 170 QCURVE SMOOTH"
);
},
{
nodes = (
"143 163 LINE",
"140 159 LINE",
"143 155 LINE",
"148 155 LINE",
"150 159 LINE",
"148 163 LINE"
);
},
{
nodes = (
"193 157 LINE",
"193 154 LINE",
"196 154 LINE",
"196 157 LINE"
);
},
{
nodes = (
"138 132 OFFCURVE",
"152 135 QCURVE",
"156 148 OFFCURVE",
"143 144 QCURVE"
);
},
{
nodes = (
"162 145 LINE",
"162 142 LINE",
"165 142 LINE",
"165 145 LINE"
);
},
{
nodes = (
"225 145 OFFCURVE",
"215 131 OFFCURVE",
"223 129 QCURVE",
"227 127 OFFCURVE",
"235 132 OFFCURVE",
"238 139 OFFCURVE",
"236 145 OFFCURVE",
"230 145 QCURVE SMOOTH"
);
},
{
nodes = (
"366 145 LINE",
"366 142 LINE",
"368 142 LINE",
"368 145 LINE"
);
},
{
nodes = (
"125 139 LINE",
"125 136 LINE",
"128 136 LINE",
"128 139 LINE"
);
},
{
nodes = (
"189 118 OFFCURVE",
"201 123 QCURVE",
"205 135 OFFCURVE",
"192 132 QCURVE"
);
},
{
nodes = (
"298 133 LINE",
"298 130 LINE",
"301 130 LINE",
"301 133 LINE"
);
},
{
nodes = (
"359 133 LINE",
"359 130 LINE",
"362 130 LINE",
"362 133 LINE"
);
},
{
nodes = (
"279 126 LINE",
"279 124 LINE",
"282 124 LINE",
"282 126 LINE"
);
},
{
nodes = (
"312 115 OFFCURVE",
"326 118 QCURVE",
"330 131 OFFCURVE",
"317 127 QCURVE"
);
},
{
nodes = (
"378 120 LINE",
"378 117 LINE",
"381 117 LINE",
"381 120 LINE"
);
},
{
nodes = (
"359 114 LINE",
"359 111 LINE",
"362 111 LINE",
"362 114 LINE"
);
},
{
nodes = (
"205 102 LINE",
"205 99 LINE",
"208 99 LINE",
"208 102 LINE"
);
},
{
nodes = (
"253 97 OFFCURVE",
"266 89 OFFCURVE",
"270 94 QCURVE SMOOTH",
"274 100 OFFCURVE",
"261 108 OFFCURVE",
"257 103 QCURVE SMOOTH"
);
},
{
nodes = (
"329 87 OFFCURVE",
"343 92 QCURVE",
"347 105 OFFCURVE",
"334 101 QCURVE"
);
},
{
nodes = (
"322 90 LINE",
"322 87 LINE",
"325 87 LINE",
"325 90 LINE"
);
}
);
width = 565;
}
);
unicode = 0064;
},
{
glyphname = e;
layers = (
{
layerId = "36F87277-1639-45E8-AAA4-E82D5D969E92";
paths = (
{
nodes = (
"151 695 OFFCURVE",
"404 698 OFFCURVE",
"532 695 QCURVE",
"534 637 OFFCURVE",
"534 521 OFFCURVE",
"534 463 QCURVE",
"465 461 OFFCURVE",
"328 464 OFFCURVE",
"259 462 QCURVE",
"257 460 OFFCURVE",
"252 456 OFFCURVE",
"250 455 QCURVE",
"250 419 LINE",
"319 418 OFFCURVE",
"456 421 OFFCURVE",
"525 419 QCURVE",
"531 416 LINE",
"537 382 OFFCURVE",
"533 313 OFFCURVE",
"534 278 QCURVE",
"462 276 OFFCURVE",
"322 278 OFFCURVE",
"250 278 QCURVE",
"253 273 OFFCURVE",
"251 259 OFFCURVE",
"249 244 OFFCURVE",
"251 231 OFFCURVE",
"259 229 QCURVE",
"328 227 OFFCURVE",
"465 230 OFFCURVE",
"534 228 QCURVE",
"534 0 LINE",
"23 0 LINE",
"21 348 OFFCURVE",
"23 696 QCURVE"
);
},
{
nodes = (
"320 609 LINE",
"320 606 LINE",
"323 606 LINE",
"323 609 LINE"
);
},
{
nodes = (
"375 596 LINE",
"375 593 LINE",
"378 593 LINE",
"378 596 LINE"
);
},
{
nodes = (
"184 578 LINE",
"184 575 LINE",
"187 575 LINE",
"187 578 LINE"
);
},
{
nodes = (
"234 572 LINE",
"234 569 LINE",
"237 569 LINE",
"237 572 LINE"
);
},
{
nodes = (
"350 566 OFFCURVE",
"362 560 QCURVE",
"374 566 OFFCURVE",
"362 573 QCURVE"
);
},
{
nodes = (
"152 565 LINE",
"150 561 LINE",
"152 556 LINE",
"158 556 LINE",
"160 561 LINE",
"158 565 LINE"
);
},
{
nodes = (
"294 565 LINE",
"292 561 LINE",
"294 556 LINE",
"299 556 LINE",
"302 561 LINE",
"299 565 LINE"
);
},
{
nodes = (
"191 559 LINE",
"191 556 LINE",
"193 556 LINE",
"193 559 LINE"
);
},
{
nodes = (
"203 553 LINE",
"203 550 LINE",
"206 550 LINE",
"206 553 LINE"
);
},
{
nodes = (
"234 553 LINE",
"234 550 LINE",
"237 550 LINE",
"237 553 LINE"
);
},
{
nodes = (
"246 553 LINE",
"246 550 LINE",
"249 550 LINE",
"249 553 LINE"
);
},
{
nodes = (
"166 547 LINE",
"166 544 LINE",
"169 544 LINE",
"169 547 LINE"
);
},
{
nodes = (
"178 547 LINE",
"178 544 LINE",
"181 544 LINE",
"181 547 LINE"
);
},
{
nodes = (
"117 541 LINE",
"117 538 LINE",
"119 538 LINE",
"119 541 LINE"
);
},
{
nodes = (
"144 529 OFFCURVE",
"155 516 OFFCURVE",
"161 520 QCURVE",
"165 524 OFFCURVE",
"155 538 OFFCURVE",
"149 534 QCURVE"
);
},
{
nodes = (
"203 535 LINE",
"203 532 LINE",
"206 532 LINE",
"206 535 LINE"
);
},
{
nodes = (
"159 504 LINE",
"156 499 LINE",
"159 495 LINE",
"164 495 LINE",
"166 499 LINE",
"164 504 LINE"
);
},
{
nodes = (
"123 455 LINE",
"123 452 LINE",
"126 452 LINE",
"126 455 LINE"
);
},
{
nodes = (
"135 430 LINE",
"135 427 LINE",
"138 427 LINE",
"138 430 LINE"
);
},
{
nodes = (
"135 414 OFFCURVE",
"140 407 OFFCURVE",
"150 404 OFFCURVE",
"160 406 OFFCURVE",
"161 411 QCURVE",
"159 417 OFFCURVE",
"146 420 OFFCURVE",
"141 418 QCURVE"
);
},
{
nodes = (
"165 399 LINE",
"162 395 LINE",
"165 390 LINE",
"170 390 LINE",
"172 395 LINE",
"170 399 LINE"
);
},
{
nodes = (
"147 356 LINE",
"147 353 LINE",
"150 353 LINE",
"150 356 LINE"
);
},
{
nodes = (
"110 337 LINE",
"110 335 LINE",
"113 335 LINE",
"113 337 LINE"
);
},
{
nodes = (
"160 313 LINE",
"160 310 LINE",
"163 310 LINE",
"163 313 LINE"
);
},
{
nodes = (
"135 270 LINE",
"135 267 LINE",
"138 267 LINE",
"138 270 LINE"
);
},
{
nodes = (
"129 196 LINE",
"129 193 LINE",
"132 193 LINE",
"132 196 LINE"
);
},
{
nodes = (
"122 171 LINE",
"119 167 LINE",
"122 162 LINE",
"127 162 LINE",
"129 167 LINE",
"127 171 LINE"
);
},
{
nodes = (
"141 159 LINE",
"141 156 LINE",
"144 156 LINE",
"144 159 LINE"
);
},
{
nodes = (
"117 153 LINE",
"117 150 LINE",
"119 150 LINE",
"119 153 LINE"
);
},
{
nodes = (
"166 140 LINE",
"166 138 LINE",
"169 138 LINE",
"169 140 LINE"
);
},
{
nodes = (
"337 134 LINE",
"335 130 LINE",
"337 125 LINE",
"342 125 LINE",
"345 130 LINE",
"342 134 LINE"
);
},
{
nodes = (
"172 128 LINE",
"172 125 LINE",
"175 125 LINE",
"175 128 LINE"
);
},
{
nodes = (
"184 128 LINE",
"184 125 LINE",
"187 125 LINE",
"187 128 LINE"
);
},
{
nodes = (
"221 128 LINE",
"221 125 LINE",
"224 125 LINE",
"224 128 LINE"
);
},
{
nodes = (
"289 128 LINE",
"289 125 LINE",
"292 125 LINE",
"292 128 LINE"
);
},
{
nodes = (
"166 116 LINE",
"166 113 LINE",
"169 113 LINE",
"169 116 LINE"
);
},
{
nodes = (
"264 116 LINE",
"264 113 LINE",
"267 113 LINE",
"267 116 LINE"
);
},
{
nodes = (
"345 116 LINE",
"345 113 LINE",
"347 113 LINE",
"347 116 LINE"
);
},
{
nodes = (
"209 97 LINE",
"209 94 LINE",
"212 94 LINE",
"212 97 LINE"
);
},
{
nodes = (
"252 91 LINE",
"252 88 LINE",
"255 88 LINE",
"255 91 LINE"
);
}
);
width = 565;
}
);
unicode = 0065;
},
{
glyphname = f;
layers = (
{
layerId = "36F87277-1639-45E8-AAA4-E82D5D969E92";
paths = (
{
nodes = (
"155 701 OFFCURVE",
"409 699 OFFCURVE",
"537 700 QCURVE",
"537 641 OFFCURVE",
"538 525 OFFCURVE",
"537 466 QCURVE",
"467 465 OFFCURVE",
"329 467 OFFCURVE",
"260 466 QCURVE",
"260 423 LINE",
"329 422 OFFCURVE",
"467 424 OFFCURVE",
"537 422 QCURVE",
"538 351 OFFCURVE",
"537 281 QCURVE",
"468 280 OFFCURVE",
"329 282 OFFCURVE",
"260 281 QCURVE",
"259 212 OFFCURVE",
"261 73 OFFCURVE",
"260 4 QCURVE",
"143 2 OFFCURVE",
"26 4 QCURVE",
"25 144 OFFCURVE",
"26 419 OFFCURVE",
"25 558 QCURVE",
"25 593 OFFCURVE",
"25 663 OFFCURVE",
"27 698 QCURVE"
);
},
{
nodes = (
"292 606 LINE",
"292 603 LINE",
"295 603 LINE",
"295 606 LINE"
);
},
{
nodes = (
"249 600 LINE",
"249 597 LINE",
"252 597 LINE",
"252 600 LINE"
);
},
{
nodes = (
"280 594 LINE",
"280 591 LINE",
"283 591 LINE",
"283 594 LINE"
);
},
{
nodes = (
"235 581 OFFCURVE",
"233 566 OFFCURVE",
"241 566 QCURVE SMOOTH",
"247 566 OFFCURVE",
"249 581 OFFCURVE",
"242 581 QCURVE SMOOTH"
);
},
{
nodes = (
"268 581 LINE",
"268 578 LINE",
"270 578 LINE",
"270 581 LINE"
);
},
{
nodes = (
"206 576 LINE",
"206 571 LINE",
"210 569 LINE",
"215 571 LINE",
"215 576 LINE",
"210 579 LINE"
);
},
{
nodes = (
"151 570 LINE",
"151 565 LINE",
"155 562 LINE",
"159 565 LINE",
"159 570 LINE",
"155 573 LINE"
);
},
{
nodes = (
"168 569 LINE",
"165 564 LINE",
"168 560 LINE",
"173 560 LINE",
"176 564 LINE",
"173 569 LINE"
);
},
{
nodes = (
"268 569 LINE",
"268 566 LINE",
"270 566 LINE",
"270 569 LINE"
);
},
{
nodes = (
"329 569 LINE",
"329 566 LINE",
"332 566 LINE",
"332 569 LINE"
);
},
{
nodes = (
"126 557 LINE",
"126 554 LINE",
"129 554 LINE",
"129 557 LINE"
);
},
{
nodes = (
"138 526 LINE",
"136 521 LINE",
"138 516 LINE",
"143 514 LINE",
"148 516 LINE",
"150 521 LINE",
"148 526 LINE",
"143 528 LINE"
);
},
{
nodes = (
"157 507 LINE",
"157 504 LINE",
"160 504 LINE",
"160 507 LINE"
);
},
{
nodes = (
"175 501 LINE",
"175 498 LINE",
"178 498 LINE",
"178 501 LINE"
);
},
{
nodes = (
"132 489 LINE",
"132 486 LINE",
"135 486 LINE",
"135 489 LINE"
);
},
{
nodes = (
"143 476 LINE",
"141 472 LINE",
"143 468 LINE",
"148 468 LINE",
"151 472 LINE",
"148 476 LINE"
);
},
{
nodes = (
"169 470 LINE",
"169 467 LINE",
"172 467 LINE",
"172 470 LINE"
);
},
{
nodes = (
"138 391 LINE",
"138 386 LINE",
"143 384 LINE",
"147 386 LINE",
"147 391 LINE",
"143 394 LINE"
);
},
{
nodes = (
"169 384 LINE",
"169 381 LINE",
"172 381 LINE",
"172 384 LINE"
);
},
{
nodes = (
"163 268 LINE",
"163 263 LINE",
"167 261 LINE",
"172 263 LINE",
"172 268 LINE",
"167 271 LINE"
);
},
{
nodes = (
"132 181 LINE",
"132 178 LINE",
"135 178 LINE",
"135 181 LINE"
);
},
{
nodes = (
"144 150 LINE",
"144 147 LINE",
"147 147 LINE",
"147 150 LINE"
);
}
);
width = 565;
}
);
unicode = 0066;
},
{
glyphname = g;
layers = (
{
layerId = "36F87277-1639-45E8-AAA4-E82D5D969E92";
paths = (
{
nodes = (
"30 695 LINE",
"285 697 OFFCURVE",
"541 695 QCURVE",
"541 637 OFFCURVE",
"543 521 OFFCURVE",
"540 463 QCURVE",
"471 460 OFFCURVE",
"333 463 OFFCURVE",
"264 461 QCURVE",
"263 404 OFFCURVE",
"263 291 OFFCURVE",
"265 234 QCURVE",
"287 235 OFFCURVE",
"332 231 OFFCURVE",
"354 236 QCURVE",
"355 244 OFFCURVE",
"356 268 OFFCURVE",
"357 276 QCURVE",
"309 279 LINE",
"307 314 OFFCURVE",
"306 383 OFFCURVE",
"307 418 QCURVE",
"424 419 OFFCURVE",
"541 418 QCURVE",
"540 313 OFFCURVE",
"543 106 OFFCURVE",
"540 1 QCURVE",
"412 -1 OFFCURVE",
"158 0 OFFCURVE",
"30 0 QCURVE"
);
},
{
nodes = (
"266 595 LINE",
"266 592 LINE",
"268 592 LINE",
"268 595 LINE"
);
},
{
nodes = (
"302 589 LINE",
"302 586 LINE",
"305 586 LINE",
"305 589 LINE"
);
},
{
nodes = (
"198 570 OFFCURVE",
"212 575 QCURVE",
"216 587 OFFCURVE",
"203 584 QCURVE"
);
},
{
nodes = (
"272 577 LINE",
"272 574 LINE",
"275 574 LINE",
"275 577 LINE"
);
},
{
nodes = (
"241 564 LINE",
"241 562 LINE",
"244 562 LINE",
"244 564 LINE"
);
},
{
nodes = (
"161 540 LINE",
"161 537 LINE",
"164 537 LINE",
"164 540 LINE"
);
},
{
nodes = (
"172 534 OFFCURVE",
"182 520 OFFCURVE",
"188 525 QCURVE SMOOTH",
"194 530 OFFCURVE",
"184 543 OFFCURVE",
"178 538 QCURVE SMOOTH"
);
},
{
nodes = (
"198 528 LINE",
"198 525 LINE",
"201 525 LINE",
"201 528 LINE"
);
},
{
nodes = (
"142 509 LINE",
"142 506 LINE",
"145 506 LINE",
"145 509 LINE"
);
},
{
nodes = (
"130 497 LINE",
"130 494 LINE",
"133 494 LINE",
"133 497 LINE"
);
},
{
nodes = (
"167 435 LINE",
"167 432 LINE",
"170 432 LINE",
"170 435 LINE"
);
},
{
nodes = (
"142 429 LINE",
"142 426 LINE",
"145 426 LINE",
"145 429 LINE"
);
},
{
nodes = (
"124 423 LINE",
"124 420 LINE",
"127 420 LINE",
"127 423 LINE"
);
},
{
nodes = (
"118 404 LINE",
"118 401 LINE",
"121 401 LINE",
"121 404 LINE"
);
},
{
nodes = (
"130 404 LINE",
"130 401 LINE",
"133 401 LINE",
"133 404 LINE"
);
},
{
nodes = (
"155 282 LINE",
"155 277 LINE",
"159 275 LINE",
"164 277 LINE",
"164 282 LINE",
"159 285 LINE"
);
},
{
nodes = (
"148 245 OFFCURVE",
"160 239 QCURVE",
"172 245 OFFCURVE",
"160 251 QCURVE"
);
},
{
nodes = (
"161 207 LINE",
"161 204 LINE",
"164 204 LINE",
"164 207 LINE"
);
},
{
nodes = (
"148 201 LINE",
"148 198 LINE",
"151 198 LINE",
"151 201 LINE"
);
},
{
nodes = (
"124 189 LINE",
"124 186 LINE",
"127 186 LINE",
"127 189 LINE"
);
},
{
nodes = (
"185 183 LINE",
"185 180 LINE",
"188 180 LINE",
"188 183 LINE"
);
},
{
nodes = (
"124 165 LINE",
"124 160 LINE",
"128 158 LINE",
"133 160 LINE",
"133 165 LINE",
"128 168 LINE"
);
},
{
nodes = (
"173 164 LINE",
"173 161 LINE",
"176 161 LINE",
"176 164 LINE"
);
},
{
nodes = (
"426 152 LINE",
"426 149 LINE",
"429 149 LINE",
"429 152 LINE"
);
},
{
nodes = (
"154 139 LINE",
"151 135 LINE",
"154 130 LINE",
"159 130 LINE",
"161 135 LINE",
"159 139 LINE"
);
},
{
nodes = (
"247 139 LINE",
"247 137 LINE",
"250 137 LINE",
"250 139 LINE"
);
},
{
nodes = (
"222 133 LINE",
"222 130 LINE",
"225 130 LINE",
"225 133 LINE"
);
},
{
nodes = (
"215 118 OFFCURVE",
"214 114 OFFCURVE",
"213 112 QCURVE",
"216 108 LINE",
"221 105 OFFCURVE",
"226 111 OFFCURVE",
"226 119 OFFCURVE",
"221 124 OFFCURVE",
"216 120 QCURVE"
);
},
{
nodes = (
"376 121 LINE",
"376 118 LINE",
"379 118 LINE",
"379 121 LINE"
);
},
{
nodes = (
"198 115 LINE",
"198 112 LINE",
"201 112 LINE",
"201 115 LINE"
);
},
{
nodes = (
"321 115 LINE",
"321 112 LINE",
"324 112 LINE",
"324 115 LINE"
);
}
);
width = 565;
}
);
unicode = 0067;
},
{
glyphname = h;
layers = (
{
layerId = "36F87277-1639-45E8-AAA4-E82D5D969E92";
paths = (
{
nodes = (
"143 701 OFFCURVE",
"260 699 QCURVE",
"261 629 OFFCURVE",
"260 491 OFFCURVE",
"261 421 QCURVE",
"265 425 OFFCURVE",
"279 423 OFFCURVE",
"294 421 OFFCURVE",
"307 423 OFFCURVE",
"309 431 QCURVE",
"311 498 OFFCURVE",
"308 632 OFFCURVE",
"310 699 QCURVE",
"424 700 OFFCURVE",
"538 699 QCURVE",
"538 552 OFFCURVE",
"538 261 OFFCURVE",
"537 114 QCURVE",
"537 87 OFFCURVE",
"539 33 OFFCURVE",
"544 6 QCURVE",
"485 1 OFFCURVE",
"369 3 OFFCURVE",
"310 3 QCURVE",
"309 72 OFFCURVE",
"311 211 OFFCURVE",
"310 280 QCURVE",
"261 280 LINE",
"260 211 OFFCURVE",
"262 73 OFFCURVE",
"260 3 QCURVE",
"202 3 OFFCURVE",
"86 1 OFFCURVE",
"28 4 QCURVE",
"26 179 OFFCURVE",
"27 524 OFFCURVE",
"27 699 QCURVE"
);
},
{
nodes = (
"151 562 LINE",
"151 559 LINE",
"154 559 LINE",
"154 562 LINE"
);
},
{
nodes = (
"139 513 LINE",
"139 510 LINE",
"142 510 LINE",
"142 513 LINE"
);
},
{
nodes = (
"404 494 LINE",
"404 491 LINE",
"407 491 LINE",
"407 494 LINE"
);
},
{
nodes = (
"410 451 LINE",
"410 448 LINE",
"413 448 LINE",
"413 451 LINE"
);
},
{
nodes = (
"404 433 LINE",
"404 430 LINE",
"407 430 LINE",
"407 433 LINE"
);
},
{
nodes = (
"127 415 LINE",
"127 410 LINE",
"131 408 LINE",
"136 410 LINE",
"136 415 LINE",
"131 418 LINE"
);
},
{
nodes = (
"435 414 LINE",
"435 411 LINE",
"438 411 LINE",
"438 414 LINE"
);
},
{
nodes = (
"157 408 LINE",
"157 405 LINE",
"160 405 LINE",
"160 408 LINE"
);
},
{
nodes = (
"416 396 LINE",
"416 393 LINE",
"419 393 LINE",
"419 396 LINE"
);
},
{
nodes = (
"392 371 LINE",
"392 368 LINE",
"394 368 LINE",
"394 371 LINE"
);
},
{
nodes = (
"188 359 LINE",
"188 356 LINE",
"191 356 LINE",
"191 359 LINE"
);
},
{
nodes = (
"398 359 LINE",
"398 356 LINE",
"401 356 LINE",
"401 359 LINE"
);
},
{
nodes = (
"422 359 LINE",
"422 356 LINE",
"425 356 LINE",
"425 359 LINE"
);
},
{
nodes = (
"201 352 LINE",
"201 350 LINE",
"203 350 LINE",
"203 352 LINE"
);
},
{
nodes = (
"416 346 LINE",
"416 343 LINE",
"419 343 LINE",
"419 346 LINE"
);
},
{
nodes = (
"139 340 LINE",
"139 337 LINE",
"142 337 LINE",
"142 340 LINE"
);
},
{
nodes = (
"373 340 LINE",
"373 337 LINE",
"376 337 LINE",
"376 340 LINE"
);
},
{
nodes = (
"447 340 LINE",
"447 337 LINE",
"450 337 LINE",
"450 340 LINE"
);
},
{
nodes = (
"392 334 LINE",
"392 331 LINE",
"394 331 LINE",
"394 334 LINE"
);
},
{
nodes = (
"392 315 LINE",
"392 313 LINE",
"394 313 LINE",
"394 315 LINE"
);
},
{
nodes = (
"145 297 LINE",
"145 294 LINE",
"148 294 LINE",
"148 297 LINE"
);
},
{
nodes = (
"133 260 LINE",
"133 257 LINE",
"136 257 LINE",
"136 260 LINE"
);
},
{
nodes = (
"390 248 OFFCURVE",
"403 242 QCURVE",
"415 249 OFFCURVE",
"403 255 QCURVE"
);
},
{
nodes = (
"447 242 LINE",
"447 239 LINE",
"450 239 LINE",
"450 242 LINE"
);
},
{
nodes = (
"133 205 LINE",
"133 202 LINE",
"136 202 LINE",
"136 205 LINE"
);
}
);
width = 565;
}
);
unicode = 0068;
},
{
glyphname = i;
layers = (
{
layerId = "36F87277-1639-45E8-AAA4-E82D5D969E92";
paths = (
{
nodes = (
"142 704 OFFCURVE",
"259 703 QCURVE",
"260 563 OFFCURVE",
"259 289 OFFCURVE",
"259 149 QCURVE SMOOTH",
"259 112 OFFCURVE",
"260 39 OFFCURVE",
"257 2 QCURVE",
"203 1 OFFCURVE",
"94 -1 OFFCURVE",
"39 1 QCURVE",
"37 2 OFFCURVE",
"29 3 OFFCURVE",
"27 4 QCURVE",
"23 36 OFFCURVE",
"25 98 OFFCURVE",
"25 130 QCURVE",
"26 274 OFFCURVE",
"24 559 OFFCURVE",
"25 703 QCURVE"
);
},
{
nodes = (
"168 474 LINE",
"168 471 LINE",
"171 471 LINE",
"171 474 LINE"
);
},
{
nodes = (
"156 443 LINE",
"156 440 LINE",
"159 440 LINE",
"159 443 LINE"
);
},
{
nodes = (
"149 430 LINE",
"146 426 LINE",
"149 422 LINE",
"154 422 LINE",
"156 426 LINE",
"154 430 LINE"
);
},
{
nodes = (
"125 381 LINE",
"125 378 LINE",
"128 378 LINE",
"128 381 LINE"
);
},
{
nodes = (
"131 227 LINE",
"131 224 LINE",
"134 224 LINE",
"134 227 LINE"
);
}
);
width = 287;
}
);
unicode = 0069;
},
{
glyphname = j;
layers = (
{
layerId = "36F87277-1639-45E8-AAA4-E82D5D969E92";
paths = (
{
nodes = (
"420 700 OFFCURVE",
"537 699 QCURVE",
"537 3 LINE",
"409 4 OFFCURVE",
"155 2 OFFCURVE",
"27 5 QCURVE",
"24 110 OFFCURVE",
"26 317 OFFCURVE",
"26 422 QCURVE",
"142 424 OFFCURVE",
"259 422 QCURVE",
"259 376 OFFCURVE",
"260 284 OFFCURVE",
"259 238 QCURVE",
"267 238 OFFCURVE",
"295 238 OFFCURVE",
"303 237 QCURVE",
"303 353 OFFCURVE",
"302 583 OFFCURVE",
"303 699 QCURVE"
);
},
{
nodes = (
"415 501 LINE",
"415 498 LINE",
"418 498 LINE",
"418 501 LINE"
);
},
{
nodes = (
"415 433 LINE",
"415 430 LINE",
"418 430 LINE",
"418 433 LINE"
);
},
{
nodes = (
"394 366 OFFCURVE",
"406 369 QCURVE",
"410 382 OFFCURVE",
"397 378 QCURVE"
);
},
{
nodes = (
"415 341 LINE",
"415 338 LINE",
"418 338 LINE",
"418 341 LINE"
);
},
{
nodes = (
"169 273 LINE",
"169 270 LINE",
"172 270 LINE",
"172 273 LINE"
);
},
{
nodes = (
"119 254 LINE",
"119 251 LINE",
"122 251 LINE",
"122 254 LINE"
);
},
{
nodes = (
"150 205 LINE",
"150 202 LINE",
"153 202 LINE",
"153 205 LINE"
);
},
{
nodes = (
"163 192 OFFCURVE",
"177 195 QCURVE",
"181 208 OFFCURVE",
"168 204 QCURVE"
);
},
{
nodes = (
"411 192 OFFCURVE",
"423 195 QCURVE",
"427 208 OFFCURVE",
"414 204 QCURVE"
);
},
{
nodes = (
"384 200 LINE",
"384 195 LINE",
"389 192 LINE",
"393 195 LINE",
"393 200 LINE",
"389 202 LINE"
);
},
{
nodes = (
"144 194 LINE",
"144 189 LINE",
"149 186 LINE",
"153 189 LINE",
"153 194 LINE",
"149 196 LINE"
);
},
{
nodes = (
"167 174 OFFCURVE",
"165 159 OFFCURVE",
"173 159 QCURVE SMOOTH",
"179 159 OFFCURVE",
"181 174 OFFCURVE",
"174 174 QCURVE SMOOTH"
);
},
{
nodes = (
"126 168 LINE",
"126 165 LINE",
"128 165 LINE",
"128 168 LINE"
);
},
{
nodes = (
"192 168 LINE",
"190 164 LINE",
"192 159 LINE",
"197 159 LINE",
"200 164 LINE",
"197 168 LINE"
);
},
{
nodes = (
"362 156 OFFCURVE",
"373 164 QCURVE",
"371 178 OFFCURVE",
"361 169 QCURVE"
);
},
{
nodes = (
"421 168 LINE",
"421 165 LINE",
"424 165 LINE",
"424 168 LINE"
);
},
{
nodes = (
"439 162 LINE",
"436 157 LINE",
"439 153 LINE",
"444 153 LINE",
"446 157 LINE",
"444 162 LINE"
);
},
{
nodes = (
"217 156 LINE",
"214 151 LINE",
"217 147 LINE",
"222 147 LINE",
"225 151 LINE",
"222 156 LINE"
);
},
{
nodes = (
"329 156 LINE",
"329 153 LINE",
"332 153 LINE",
"332 156 LINE"
);
},
{
nodes = (
"200 150 LINE",
"200 147 LINE",
"202 147 LINE",
"202 150 LINE"
);
},
{
nodes = (
"267 150 LINE",
"267 147 LINE",
"270 147 LINE",
"270 150 LINE"
);
},
{
nodes = (
"420 149 LINE",
"418 145 LINE",
"420 141 LINE",
"425 141 LINE",
"428 145 LINE",
"425 149 LINE"
);
},
{
nodes = (
"243 143 LINE",
"243 141 LINE",
"246 141 LINE",
"246 143 LINE"
);
},
{
nodes = (
"175 137 LINE",
"175 134 LINE",
"178 134 LINE",
"178 137 LINE"
);
},
{
nodes = (
"217 131 LINE",
"214 127 LINE",
"217 122 LINE",
"222 122 LINE",
"225 127 LINE",
"222 131 LINE"
);
},
{
nodes = (
"285 131 LINE",
"282 127 LINE",
"285 122 LINE",
"290 122 LINE",
"292 127 LINE",
"290 131 LINE"
);
},
{
nodes = (
"354 131 LINE",
"354 128 LINE",
"356 128 LINE",
"356 131 LINE"
);
},
{
nodes = (
"235 119 LINE",
"233 114 LINE",
"235 110 LINE",
"240 110 LINE",
"243 114 LINE",
"240 119 LINE"
);
},
{
nodes = (
"335 119 LINE",
"335 116 LINE",
"338 116 LINE",
"338 119 LINE"
);
},
{
nodes = (
"169 113 LINE",
"169 110 LINE",
"172 110 LINE",
"172 113 LINE"
);
},
{
nodes = (
"384 113 LINE",
"384 110 LINE",
"387 110 LINE",
"387 113 LINE"
);
},
{
nodes = (
"372 106 LINE",
"372 104 LINE",
"375 104 LINE",
"375 106 LINE"
);
}
);
width = 565;
}
);
unicode = 006A;
},
{
glyphname = k;
layers = (
{
layerId = "36F87277-1639-45E8-AAA4-E82D5D969E92";
paths = (
{
nodes = (
"477 252 OFFCURVE",
"558 88 OFFCURVE",
"593 3 QCURVE",
"467 2 OFFCURVE",
"343 3 QCURVE",
"334 10 OFFCURVE",
"324 30 OFFCURVE",
"319 40 QCURVE SMOOTH",
"303 73 OFFCURVE",
"273 140 OFFCURVE",
"256 173 QCURVE",
"253 131 OFFCURVE",
"263 47 OFFCURVE",
"258 5 QCURVE",
"200 2 OFFCURVE",
"84 3 OFFCURVE",
"26 3 QCURVE",
"25 178 OFFCURVE",
"25 524 OFFCURVE",
"25 699 QCURVE",
"84 699 OFFCURVE",
"200 700 OFFCURVE",
"259 698 QCURVE",
"262 657 OFFCURVE",
"255 577 OFFCURVE",
"257 535 QCURVE",
"279 575 OFFCURVE",
"315 658 OFFCURVE",
"335 699 QCURVE",
"400 700 OFFCURVE",
"527 699 OFFCURVE",
"592 699 QCURVE",
"554 614 OFFCURVE",
"474 448 OFFCURVE",
"436 363 QCURVE",
"432 356 OFFCURVE",
"437 343 OFFCURVE",
"439 337 QCURVE"
);
},
{
nodes = (
"310 454 LINE",
"313 454 LINE",
"313 457 LINE",
"310 457 LINE"
);
},
{
nodes = (
"332 365 LINE",
"329 365 LINE",
"329 362 LINE",
"332 362 LINE"
);
},
{
nodes = (
"310 380 LINE",
"313 380 LINE",
"313 383 LINE",
"310 383 LINE"
);
},
{
nodes = (
"310 371 LINE",
"311 370 OFFCURVE",
"312 370 OFFCURVE",
"313 369 QCURVE",
"313 371 LINE"
);
},
{
nodes = (
"150 322 LINE",
"150 319 LINE",
"153 319 LINE",
"153 322 LINE"
);
},
{
nodes = (
"144 383 LINE",
"144 380 LINE",
"147 380 LINE",
"147 383 LINE"
);
},
{
nodes = (
"182 326 LINE",
"178 324 OFFCURVE",
"179 313 OFFCURVE",
"185 313 QCURVE",
"187 313 OFFCURVE",
"188 314 QCURVE"
);
},
{
nodes = (
"288 399 LINE",
"288 402 LINE",
"286 402 LINE",
"286 399 LINE"
);
},
{
nodes = (
"304 442 LINE",
"307 442 LINE",
"307 445 LINE",
"304 445 LINE"
);
},
{
nodes = (
"304 417 LINE",
"307 417 LINE",
"307 420 LINE",
"304 420 LINE"
);
},
{
nodes = (
"286 430 LINE",
"288 430 LINE",
"288 432 LINE",
"286 432 LINE"
);
},
{
nodes = (
"274 407 OFFCURVE",
"288 412 QCURVE",
"291 425 OFFCURVE",
"279 421 QCURVE"
);
},
{
nodes = (
"261 417 LINE",
"264 417 LINE",
"264 420 LINE",
"261 420 LINE"
);
},
{
nodes = (
"258 403 OFFCURVE",
"254 411 QCURVE",
"251 409 OFFCURVE",
"243 405 QCURVE",
"248 403 OFFCURVE",
"256 398 OFFCURVE",
"260 396 QCURVE"
);
},
{
nodes = (
"239 423 LINE",
"239 426 LINE",
"236 426 LINE",
"236 423 LINE"
);
},
{
nodes = (
"229 439 OFFCURVE",
"242 433 QCURVE",
"255 439 OFFCURVE",
"242 446 QCURVE"
);
},
{
nodes = (
"213 427 OFFCURVE",
"215 422 QCURVE",
"221 418 OFFCURVE",
"224 417 QCURVE",
"225 417 LINE",
"230 421 OFFCURVE",
"223 434 OFFCURVE",
"217 430 QCURVE SMOOTH"
);
},
{
nodes = (
"200 438 OFFCURVE",
"214 443 QCURVE",
"217 455 OFFCURVE",
"205 452 QCURVE"
);
},
{
nodes = (
"196 451 LINE",
"193 451 LINE",
"193 448 LINE",
"196 448 LINE"
);
},
{
nodes = (
"178 464 OFFCURVE",
"190 455 OFFCURVE",
"195 460 QCURVE SMOOTH",
"199 465 OFFCURVE",
"187 475 OFFCURVE",
"182 470 QCURVE"
);
},
{
nodes = (
"181 448 LINE",
"184 448 LINE",
"184 451 LINE",
"181 451 LINE"
);
},
{
nodes = (
"174 455 OFFCURVE",
"168 457 QCURVE",
"164 457 LINE",
"166 455 OFFCURVE",
"171 451 OFFCURVE",
"174 449 QCURVE"
);
},
{
nodes = (
"162 516 LINE",
"165 516 LINE",
"165 519 LINE",
"162 519 LINE"
);
},
{
nodes = (
"154 493 OFFCURVE",
"159 479 OFFCURVE",
"166 482 QCURVE",
"174 484 OFFCURVE",
"168 497 OFFCURVE",
"162 495 QCURVE SMOOTH"
);
},
{
nodes = (
"118 260 LINE",
"122 262 LINE",
"122 267 LINE",
"118 270 LINE",
"113 267 LINE",
"113 262 LINE"
);
},
{
nodes = (
"122 229 LINE",
"119 229 LINE",
"119 226 LINE",
"122 226 LINE"
);
},
{
nodes = (
"122 242 LINE",
"119 242 LINE",
"119 239 LINE",
"122 239 LINE"
);
},
{
nodes = (
"122 352 LINE",
"119 352 LINE",
"119 350 LINE",
"122 350 LINE"
);
},
{
nodes = (
"122 439 LINE",
"119 439 LINE",
"119 436 LINE",
"122 436 LINE"
);
},
{
nodes = (
"138 405 LINE",
"140 405 LINE",
"140 406 OFFCURVE",
"139 407 OFFCURVE",
"139 408 QCURVE",
"138 408 LINE"
);
},
{
nodes = (
"147 199 LINE",
"142 202 LINE",
"138 199 LINE",
"138 194 LINE",
"142 192 LINE",
"147 194 LINE"
);
},
{
nodes = (
"147 242 LINE",
"144 242 LINE",
"144 239 LINE",
"147 239 LINE"
);
},
{
nodes = (
"140 273 OFFCURVE",
"154 276 QCURVE",
"157 289 OFFCURVE",
"145 285 QCURVE"
);
},
{
nodes = (
"159 155 LINE",
"156 155 LINE",
"156 152 LINE",
"159 152 LINE"
);
},
{
nodes = (
"165 143 LINE",
"162 143 LINE",
"162 140 LINE",
"165 140 LINE"
);
},
{
nodes = (
"169 241 OFFCURVE",
"156 236 QCURVE",
"151 222 OFFCURVE",
"164 227 QCURVE"
);
},
{
nodes = (
"165 325 LINE",
"165 328 LINE",
"162 328 LINE",
"162 325 LINE"
);
},
{
nodes = (
"155 343 OFFCURVE",
"169 339 OFFCURVE",
"175 342 QCURVE",
"173 345 OFFCURVE",
"170 352 OFFCURVE",
"168 355 QCURVE",
"159 355 OFFCURVE",
"157 350 QCURVE SMOOTH"
);
},
{
nodes = (
"171 205 LINE",
"169 205 LINE",
"169 202 LINE",
"171 202 LINE"
);
},
{
nodes = (
"171 223 LINE",
"169 223 LINE",
"169 220 LINE",
"171 220 LINE"
);
},
{
nodes = (
"192 278 OFFCURVE",
"179 274 QCURVE",
"184 276 OFFCURVE",
"191 285 OFFCURVE",
"188 290 QCURVE",
"184 293 OFFCURVE",
"175 288 OFFCURVE",
"170 280 OFFCURVE",
"172 273 OFFCURVE",
"179 274 QCURVE",
"174 260 OFFCURVE",
"188 265 QCURVE"
);
},
{
nodes = (
"190 303 LINE",
"187 303 LINE",
"187 300 LINE",
"190 300 LINE"
);
},
{
nodes = (
"196 254 LINE",
"193 254 LINE",
"193 251 LINE",
"196 251 LINE"
);
},
{
nodes = (
"206 262 LINE",
"208 263 OFFCURVE",
"210 263 OFFCURVE",
"212 264 QCURVE",
"210 268 OFFCURVE",
"209 271 QCURVE"
);
},
{
nodes = (
"299 271 LINE",
"298 266 OFFCURVE",
"304 261 OFFCURVE",
"313 261 OFFCURVE",
"320 264 OFFCURVE",
"320 269 QCURVE",
"319 271 OFFCURVE",
"314 274 QCURVE",
"306 272 OFFCURVE",
"301 273 QCURVE"
);
},
{
nodes = (
"325 365 OFFCURVE",
"336 373 QCURVE",
"334 387 OFFCURVE",
"324 378 QCURVE"
);
},
{
nodes = (
"338 420 LINE",
"335 420 LINE",
"335 417 LINE",
"338 417 LINE"
);
},
{
nodes = (
"338 469 LINE",
"335 469 LINE",
"335 467 LINE",
"338 467 LINE"
);
},
{
nodes = (
"341 491 LINE",
"344 491 LINE",
"344 494 LINE",
"341 494 LINE"
);
},
{
nodes = (
"344 408 LINE",
"341 408 LINE",
"341 405 LINE",
"344 405 LINE"
);
},
{
nodes = (
"346 473 LINE",
"351 473 LINE",
"354 477 LINE",
"351 482 LINE",
"346 482 LINE",
"344 477 LINE"
);
},
{
nodes = (
"347 442 LINE",
"350 442 LINE",
"350 445 LINE",
"347 445 LINE"
);
},
{
nodes = (
"362 198 LINE",
"360 198 LINE",
"360 196 LINE",
"362 196 LINE"
);
},
{
nodes = (
"368 236 OFFCURVE",
"358 253 OFFCURVE",
"351 249 QCURVE SMOOTH",
"346 245 OFFCURVE",
"354 230 OFFCURVE",
"361 232 QCURVE"
);
},
{
nodes = (
"369 482 LINE",
"366 482 LINE",
"366 479 LINE",
"369 479 LINE"
);
},
{
nodes = (
"369 506 LINE",
"366 506 LINE",
"366 504 LINE",
"369 504 LINE"
);
},
{
nodes = (
"387 180 LINE",
"384 180 LINE",
"384 177 LINE",
"387 177 LINE"
);
},
{
nodes = (
"418 543 LINE",
"415 543 LINE",
"415 541 LINE",
"418 541 LINE"
);
}
);
width = 611;
}
);
unicode = 006B;
},
{
glyphname = l;
layers = (
{
layerId = "36F87277-1639-45E8-AAA4-E82D5D969E92";
paths = (
{
nodes = (
"141 696 OFFCURVE",
"255 695 QCURVE",
"256 579 OFFCURVE",
"254 349 OFFCURVE",
"255 233 QCURVE",
"314 232 OFFCURVE",
"430 234 OFFCURVE",
"489 233 QCURVE",
"489 174 OFFCURVE",
"490 58 OFFCURVE",
"489 -1 QCURVE",
"396 -2 OFFCURVE",
"213 0 OFFCURVE",
"120 -2 QCURVE",
"94 -2 OFFCURVE",
"45 0 OFFCURVE",
"20 3 QCURVE",
"29 66 OFFCURVE",
"26 193 OFFCURVE",
"27 257 QCURVE",
"27 367 OFFCURVE",
"26 585 OFFCURVE",
"27 695 QCURVE"
);
},
{
nodes = (
"164 490 LINE",
"164 487 LINE",
"167 487 LINE",
"167 490 LINE"
);
},
{
nodes = (
"115 176 LINE",
"115 173 LINE",
"118 173 LINE",
"118 176 LINE"
);
},
{
nodes = (
"152 157 LINE",
"152 155 LINE",
"155 155 LINE",
"155 157 LINE"
);
},
{
nodes = (
"245 132 OFFCURVE",
"258 137 QCURVE",
"263 151 OFFCURVE",
"250 146 QCURVE"
);
},
{
nodes = (
"152 139 LINE",
"152 136 LINE",
"155 136 LINE",
"155 139 LINE"
);
},
{
nodes = (
"287 139 LINE",
"287 136 LINE",
"290 136 LINE",
"290 139 LINE"
);
},
{
nodes = (
"213 134 LINE",
"213 129 LINE",
"218 126 LINE",
"222 129 LINE",
"222 134 LINE",
"218 136 LINE"
);
},
{
nodes = (
"263 127 LINE",
"263 124 LINE",
"266 124 LINE",
"266 127 LINE"
);
},
{
nodes = (
"176 109 OFFCURVE",
"188 103 QCURVE",
"200 109 OFFCURVE",
"188 115 QCURVE"
);
},
{
nodes = (
"170 96 LINE",
"170 93 LINE",
"173 93 LINE",
"173 96 LINE"
);
}
);
width = 518;
}
);
unicode = 006C;
},
{
glyphname = m;
layers = (
{
layerId = "36F87277-1639-45E8-AAA4-E82D5D969E92";
paths = (
{
nodes = (
"227 705 OFFCURVE",
"622 703 OFFCURVE",
"821 704 QCURVE",
"822 564 OFFCURVE",
"821 289 OFFCURVE",
"821 149 QCURVE SMOOTH",
"821 113 OFFCURVE",
"822 40 OFFCURVE",
"819 3 QCURVE",
"761 1 OFFCURVE",
"646 1 OFFCURVE",
"587 2 QCURVE",
"586 120 OFFCURVE",
"588 352 OFFCURVE",
"587 470 QCURVE",
"544 470 LINE",
"543 355 OFFCURVE",
"545 125 OFFCURVE",
"544 10 QCURVE",
"542 8 OFFCURVE",
"537 4 OFFCURVE",
"535 2 QCURVE",
"478 0 OFFCURVE",
"367 2 OFFCURVE",
"310 2 QCURVE",
"309 120 OFFCURVE",
"311 352 OFFCURVE",
"310 470 QCURVE",
"260 470 LINE",
"260 352 OFFCURVE",
"261 120 OFFCURVE",
"260 2 QCURVE",
"202 2 OFFCURVE",
"86 0 OFFCURVE",
"28 3 QCURVE",
"25 113 OFFCURVE",
"27 330 OFFCURVE",
"26 439 QCURVE",
"28 505 OFFCURVE",
"24 637 OFFCURVE",
"28 703 QCURVE"
);
},
{
nodes = (
"318 616 LINE",
"318 613 LINE",
"320 613 LINE",
"320 616 LINE"
);
},
{
nodes = (
"367 616 LINE",
"367 613 LINE",
"370 613 LINE",
"370 616 LINE"
);
},
{
nodes = (
"513 607 OFFCURVE",
"515 601 OFFCURVE",
"522 598 OFFCURVE",
"529 599 OFFCURVE",
"531 603 QCURVE SMOOTH",
"533 610 OFFCURVE",
"520 615 OFFCURVE",
"516 611 QCURVE SMOOTH"
);
},
{
nodes = (
"558 610 LINE",
"558 607 LINE",
"561 607 LINE",
"561 610 LINE"
);
},
{
nodes = (
"336 604 LINE",
"336 601 LINE",
"339 601 LINE",
"339 604 LINE"
);
},
{
nodes = (
"274 598 LINE",
"274 595 LINE",
"277 595 LINE",
"277 598 LINE"
);
},
{
nodes = (
"472 598 LINE",
"472 595 LINE",
"474 595 LINE",
"474 598 LINE"
);
},
{
nodes = (
"558 598 OFFCURVE",
"547 593 OFFCURVE",
"545 587 QCURVE",
"546 582 OFFCURVE",
"556 582 OFFCURVE",
"565 587 OFFCURVE",
"568 594 OFFCURVE",
"564 597 QCURVE"
);
},
{
nodes = (
"724 598 LINE",
"724 595 LINE",
"727 595 LINE",
"727 598 LINE"
);
},
{
nodes = (
"194 591 LINE",
"194 589 LINE",
"197 589 LINE",
"197 591 LINE"
);
},
{
nodes = (
"237 591 LINE",
"237 589 LINE",
"240 589 LINE",
"240 591 LINE"
);
},
{
nodes = (
"632 591 LINE",
"632 589 LINE",
"635 589 LINE",
"635 591 LINE"
);
},
{
nodes = (
"675 591 LINE",
"675 589 LINE",
"678 589 LINE",
"678 591 LINE"
);
},
{
nodes = (
"206 580 OFFCURVE",
"218 574 QCURVE",
"230 580 OFFCURVE",
"218 586 QCURVE"
);
},
{
nodes = (
"293 585 LINE",
"293 582 LINE",
"296 582 LINE",
"296 585 LINE"
);
},
{
nodes = (
"342 585 LINE",
"342 582 LINE",
"345 582 LINE",
"345 585 LINE"
);
},
{
nodes = (
"509 585 LINE",
"509 582 LINE",
"511 582 LINE",
"511 585 LINE"
);
},
{
nodes = (
"607 585 LINE",
"607 582 LINE",
"610 582 LINE",
"610 585 LINE"
);
},
{
nodes = (
"644 585 LINE",
"644 582 LINE",
"647 582 LINE",
"647 585 LINE"
);
},
{
nodes = (
"699 585 LINE",
"699 582 LINE",
"702 582 LINE",
"702 585 LINE"
);
},
{
nodes = (
"164 579 LINE",
"164 576 LINE",
"166 576 LINE",
"166 579 LINE"
);
},
{
nodes = (
"398 579 LINE",
"398 576 LINE",
"400 576 LINE",
"400 579 LINE"
);
},
{
nodes = (
"435 580 LINE",
"435 575 LINE",
"439 573 LINE",
"444 575 LINE",
"444 580 LINE",
"439 583 LINE"
);
},
{
nodes = (
"453 580 LINE",
"453 575 LINE",
"458 573 LINE",
"462 575 LINE",
"462 580 LINE",
"458 583 LINE"
);
},
{
nodes = (
"478 579 LINE",
"478 576 LINE",
"481 576 LINE",
"481 579 LINE"
);
},
{
nodes = (
"656 579 LINE",
"656 576 LINE",
"659 576 LINE",
"659 579 LINE"
);
},
{
nodes = (
"250 573 LINE",
"250 570 LINE",
"253 570 LINE",
"253 573 LINE"
);
},
{
nodes = (
"336 573 LINE",
"336 570 LINE",
"339 570 LINE",
"339 573 LINE"
);
},
{
nodes = (
"558 574 LINE",
"558 569 LINE",
"562 567 LINE",
"567 569 LINE",
"567 574 LINE",
"562 577 LINE"
);
},
{
nodes = (
"576 573 LINE",
"576 570 LINE",
"579 570 LINE",
"579 573 LINE"
);
},
{
nodes = (
"661 573 OFFCURVE",
"661 558 OFFCURVE",
"668 558 QCURVE SMOOTH",
"675 558 OFFCURVE",
"675 573 OFFCURVE",
"668 573 QCURVE SMOOTH"
);
},
{
nodes = (
"213 567 LINE",
"213 564 LINE",
"216 564 LINE",
"216 567 LINE"
);
},
{
nodes = (
"416 561 LINE",
"416 558 LINE",
"419 558 LINE",
"419 561 LINE"
);
},
{
nodes = (
"423 548 OFFCURVE",
"436 553 QCURVE",
"441 566 OFFCURVE",
"428 561 QCURVE"
);
},
{
nodes = (
"490 561 LINE",
"490 558 LINE",
"493 558 LINE",
"493 561 LINE"
);
},
{
nodes = (
"502 561 LINE",
"502 558 LINE",
"505 558 LINE",
"505 561 LINE"
);
},
{
nodes = (
"558 561 LINE",
"558 558 LINE",
"561 558 LINE",
"561 561 LINE"
);
},
{
nodes = (
"601 561 LINE",
"601 558 LINE",
"604 558 LINE",
"604 561 LINE"
);
},
{
nodes = (
"632 562 LINE",
"632 557 LINE",
"636 554 LINE",
"641 557 LINE",
"641 562 LINE",
"636 564 LINE"
);
},
{
nodes = (
"391 555 LINE",
"391 552 LINE",
"394 552 LINE",
"394 555 LINE"
);
},
{
nodes = (
"465 555 LINE",
"465 552 LINE",
"468 552 LINE",
"468 555 LINE"
);
},
{
nodes = (
"619 555 LINE",
"619 552 LINE",
"622 552 LINE",
"622 555 LINE"
);
},
{
nodes = (
"655 554 LINE",
"653 550 LINE",
"655 546 LINE",
"660 546 LINE",
"663 550 LINE",
"660 554 LINE"
);
},
{
nodes = (
"188 548 LINE",
"188 546 LINE",
"191 546 LINE",
"191 548 LINE"
);
},
{
nodes = (
"433 549 OFFCURVE",
"431 534 OFFCURVE",
"438 533 QCURVE",
"445 533 OFFCURVE",
"447 548 OFFCURVE",
"440 548 QCURVE"
);
},
{
nodes = (
"133 542 LINE",
"133 539 LINE",
"136 539 LINE",
"136 542 LINE"
);
},
{
nodes = (
"712 542 LINE",
"712 539 LINE",
"715 539 LINE",
"715 542 LINE"
);
},
{
nodes = (
"151 536 LINE",
"151 533 LINE",
"154 533 LINE",
"154 536 LINE"
);
},
{
nodes = (
"373 536 LINE",
"373 533 LINE",
"376 533 LINE",
"376 536 LINE"
);
},
{
nodes = (
"450 532 OFFCURVE",
"457 519 OFFCURVE",
"463 523 QCURVE SMOOTH",
"468 527 OFFCURVE",
"460 540 OFFCURVE",
"455 536 QCURVE SMOOTH"
);
},
{
nodes = (
"650 536 LINE",
"650 533 LINE",
"653 533 LINE",
"653 536 LINE"
);
},
{
nodes = (
"668 536 LINE",
"665 532 LINE",
"668 527 LINE",
"673 527 LINE",
"675 532 LINE",
"673 536 LINE"
);
},
{
nodes = (
"417 515 OFFCURVE",
"430 520 QCURVE",
"435 534 OFFCURVE",
"422 529 QCURVE"
);
},
{
nodes = (
"718 530 LINE",
"718 527 LINE",
"721 527 LINE",
"721 530 LINE"
);
},
{
nodes = (
"441 525 LINE",
"441 520 LINE",
"445 517 LINE",
"450 520 LINE",
"450 525 LINE",
"445 527 LINE"
);
},
{
nodes = (
"379 518 LINE",
"379 515 LINE",
"382 515 LINE",
"382 518 LINE"
);
},
{
nodes = (
"708 506 OFFCURVE",
"722 509 QCURVE",
"725 522 OFFCURVE",
"713 518 QCURVE"
);
},
{
nodes = (
"422 512 LINE",
"422 507 LINE",
"427 505 LINE",
"431 507 LINE",
"431 512 LINE",
"427 515 LINE"
);
},
{
nodes = (
"434 506 OFFCURVE",
"446 500 QCURVE",
"458 506 OFFCURVE",
"446 512 QCURVE"
);
},
{
nodes = (
"453 493 LINE",
"453 490 LINE",
"456 490 LINE",
"456 493 LINE"
);
},
{
nodes = (
"133 487 LINE",
"133 484 LINE",
"136 484 LINE",
"136 487 LINE"
);
},
{
nodes = (
"675 481 LINE",
"675 478 LINE",
"678 478 LINE",
"678 481 LINE"
);
},
{
nodes = (
"170 476 LINE",
"170 470 LINE",
"174 468 LINE",
"179 470 LINE",
"179 476 LINE",
"174 478 LINE"
);
},
{
nodes = (
"428 474 LINE",
"428 472 LINE",
"431 472 LINE",
"431 474 LINE"
);
},
{
nodes = (
"441 474 LINE",
"441 472 LINE",
"444 472 LINE",
"444 474 LINE"
);
},
{
nodes = (
"151 468 LINE",
"151 465 LINE",
"154 465 LINE",
"154 468 LINE"
);
},
{
nodes = (
"127 462 LINE",
"127 459 LINE",
"129 459 LINE",
"129 462 LINE"
);
},
{
nodes = (
"422 462 LINE",
"422 459 LINE",
"425 459 LINE",
"425 462 LINE"
);
},
{
nodes = (
"144 450 LINE",
"141 445 LINE",
"144 441 LINE",
"149 441 LINE",
"151 445 LINE",
"149 450 LINE"
);
},
{
nodes = (
"164 437 LINE",
"164 435 LINE",
"166 435 LINE",
"166 437 LINE"
);
},
{
nodes = (
"151 419 LINE",
"151 416 LINE",
"154 416 LINE",
"154 419 LINE"
);
},
{
nodes = (
"428 414 OFFCURVE",
"440 407 QCURVE",
"452 414 OFFCURVE",
"440 420 QCURVE"
);
},
{
nodes = (
"675 419 LINE",
"675 416 LINE",
"678 416 LINE",
"678 419 LINE"
);
},
{
nodes = (
"120 407 LINE",
"120 404 LINE",
"123 404 LINE",
"123 407 LINE"
);
},
{
nodes = (
"416 407 LINE",
"416 404 LINE",
"419 404 LINE",
"419 407 LINE"
);
},
{
nodes = (
"730 394 LINE",
"730 392 LINE",
"733 392 LINE",
"733 394 LINE"
);
},
{
nodes = (
"133 345 LINE",
"133 342 LINE",
"136 342 LINE",
"136 345 LINE"
);
},
{
nodes = (
"145 259 LINE",
"145 256 LINE",
"148 256 LINE",
"148 259 LINE"
);
},
{
nodes = (
"724 259 LINE",
"724 256 LINE",
"727 256 LINE",
"727 259 LINE"
);
},
{
nodes = (
"151 235 OFFCURVE",
"163 229 QCURVE",
"175 235 OFFCURVE",
"163 241 QCURVE"
);
},
{
nodes = (
"681 191 LINE",
"681 188 LINE",
"684 188 LINE",
"684 191 LINE"
);
},
{
nodes = (
"699 191 LINE",
"699 188 LINE",
"702 188 LINE",
"702 191 LINE"
);
},
{
nodes = (
"699 173 LINE",
"699 170 LINE",
"702 170 LINE",
"702 173 LINE"
);
},
{
nodes = (
"398 154 LINE",
"398 151 LINE",
"400 151 LINE",
"400 154 LINE"
);
},
{
nodes = (
"428 154 LINE",
"428 151 LINE",
"431 151 LINE",
"431 154 LINE"
);
}
);
width = 842;
}
);
unicode = 006D;
},
{
glyphname = n;
layers = (
{
layerId = "36F87277-1639-45E8-AAA4-E82D5D969E92";
paths = (
{
nodes = (
"540 521 OFFCURVE",
"540 173 OFFCURVE",
"539 -4 QCURVE",
"494 -4 OFFCURVE",
"404 -6 OFFCURVE",
"359 -4 QCURVE",
"355 0 OFFCURVE",
"351 2 QCURVE",
"326 41 OFFCURVE",
"286 122 OFFCURVE",
"266 163 QCURVE",
"261 122 OFFCURVE",
"265 40 OFFCURVE",
"260 -1 QCURVE",
"202 -7 OFFCURVE",
"87 -3 OFFCURVE",
"29 -4 QCURVE",
"27 347 OFFCURVE",
"29 698 QCURVE",
"120 699 OFFCURVE",
"212 698 QCURVE",
"238 657 OFFCURVE",
"280 573 OFFCURVE",
"303 531 QCURVE",
"308 573 OFFCURVE",
"305 655 OFFCURVE",
"306 697 QCURVE",
"365 699 OFFCURVE",
"481 698 OFFCURVE",
"540 698 QCURVE"
);
},
{
nodes = (
"119 308 LINE",
"116 308 LINE",
"116 305 LINE",
"119 305 LINE"
);
},
{
nodes = (
"443 262 LINE",
"446 262 LINE",
"446 265 LINE",
"443 265 LINE"
);
},
{
nodes = (
"430 410 LINE",
"433 410 LINE",
"433 413 LINE",
"430 413 LINE"
);
},
{
nodes = (
"430 398 LINE",
"433 398 LINE",
"433 401 LINE",
"430 401 LINE"
);
},
{
nodes = (
"418 472 LINE",
"421 472 LINE",
"421 475 LINE",
"418 475 LINE"
);
},
{
nodes = (
"412 441 OFFCURVE",
"413 436 OFFCURVE",
"418 433 OFFCURVE",
"424 432 OFFCURVE",
"426 435 QCURVE SMOOTH",
"430 440 OFFCURVE",
"418 449 OFFCURVE",
"414 444 QCURVE SMOOTH"
);
},
{
nodes = (
"424 388 LINE",
"424 385 LINE",
"427 385 LINE",
"427 388 LINE"
);
},
{
nodes = (
"399 374 OFFCURVE",
"401 369 OFFCURVE",
"405 366 OFFCURVE",
"411 366 OFFCURVE",
"413 369 QCURVE SMOOTH",
"417 374 OFFCURVE",
"405 382 OFFCURVE",
"401 377 QCURVE SMOOTH"
);
},
{
nodes = (
"397 396 OFFCURVE",
"409 387 OFFCURVE",
"413 392 QCURVE SMOOTH",
"417 397 OFFCURVE",
"405 406 OFFCURVE",
"401 401 QCURVE SMOOTH"
);
},
{
nodes = (
"413 323 OFFCURVE",
"405 311 OFFCURVE",
"408 305 QCURVE",
"412 303 OFFCURVE",
"419 308 OFFCURVE",
"424 315 OFFCURVE",
"423 323 OFFCURVE",
"419 325 QCURVE"
);
},
{
nodes = (
"397 420 OFFCURVE",
"409 423 QCURVE",
"413 436 OFFCURVE",
"400 432 QCURVE"
);
},
{
nodes = (
"403 358 OFFCURVE",
"399 356 OFFCURVE",
"397 356 QCURVE",
"395 352 LINE",
"395 346 OFFCURVE",
"403 345 OFFCURVE",
"409 349 OFFCURVE",
"411 356 OFFCURVE",
"405 358 QCURVE"
);
},
{
nodes = (
"400 333 LINE",
"400 330 LINE",
"402 330 LINE",
"402 333 LINE"
);
},
{
nodes = (
"381 316 OFFCURVE",
"387 314 OFFCURVE",
"394 316 OFFCURVE",
"398 321 OFFCURVE",
"395 325 QCURVE",
"393 326 OFFCURVE",
"388 327 OFFCURVE",
"386 328 QCURVE",
"384 324 OFFCURVE",
"381 321 QCURVE"
);
},
{
nodes = (
"387 302 LINE",
"387 299 LINE",
"390 299 LINE",
"390 302 LINE"
);
},
{
nodes = (
"349 314 OFFCURVE",
"352 308 OFFCURVE",
"354 306 QCURVE",
"357 317 OFFCURVE",
"347 316 QCURVE"
);
},
{
nodes = (
"386 303 OFFCURVE",
"374 309 QCURVE",
"362 303 OFFCURVE",
"374 297 QCURVE"
);
},
{
nodes = (
"375 277 LINE",
"375 275 LINE",
"378 275 LINE",
"378 277 LINE"
);
},
{
nodes = (
"367 313 OFFCURVE",
"372 320 OFFCURVE",
"372 330 OFFCURVE",
"367 337 OFFCURVE",
"363 336 QCURVE",
"359 331 OFFCURVE",
"359 319 OFFCURVE",
"363 315 QCURVE"
);
},
{
nodes = (
"394 466 LINE",
"396 466 LINE",
"396 468 LINE",
"394 468 LINE"
);
},
{
nodes = (
"387 478 LINE",
"390 478 LINE",
"390 481 LINE",
"387 481 LINE"
);
},
{
nodes = (
"382 406 OFFCURVE",
"395 411 QCURVE",
"400 425 OFFCURVE",
"387 420 QCURVE"
);
},
{
nodes = (
"381 429 LINE",
"384 429 LINE",
"384 431 LINE",
"381 431 LINE"
);
},
{
nodes = (
"384 344 OFFCURVE",
"380 346 QCURVE",
"379 344 OFFCURVE",
"376 341 OFFCURVE",
"375 339 QCURVE",
"375 334 OFFCURVE",
"381 332 OFFCURVE",
"388 334 OFFCURVE",
"392 340 OFFCURVE",
"389 344 QCURVE"
);
},
{
nodes = (
"378 367 LINE",
"378 370 LINE",
"375 370 LINE",
"375 367 LINE"
);
},
{
nodes = (
"382 399 OFFCURVE",
"370 395 QCURVE",
"365 383 OFFCURVE",
"379 386 QCURVE"
);
},
{
nodes = (
"375 466 LINE",
"378 466 LINE",
"378 468 LINE",
"375 468 LINE"
);
},
{
nodes = (
"354 417 OFFCURVE",
"359 401 OFFCURVE",
"366 402 QCURVE SMOOTH",
"370 403 OFFCURVE",
"372 409 OFFCURVE",
"370 415 OFFCURVE",
"365 420 OFFCURVE",
"362 419 QCURVE SMOOTH"
);
},
{
nodes = (
"350 383 OFFCURVE",
"358 370 OFFCURVE",
"364 375 QCURVE SMOOTH",
"369 379 OFFCURVE",
"361 391 OFFCURVE",
"356 387 QCURVE SMOOTH"
);
},
{
nodes = (
"350 355 LINE",
"353 355 LINE",
"353 357 LINE",
"350 357 LINE"
);
},
{
nodes = (
"362 334 OFFCURVE",
"350 340 QCURVE",
"337 334 OFFCURVE",
"349 327 QCURVE"
);
},
{
nodes = (
"338 429 LINE",
"341 429 LINE",
"341 431 LINE",
"338 431 LINE"
);
},
{
nodes = (
"329 414 OFFCURVE",
"341 405 OFFCURVE",
"346 410 QCURVE SMOOTH",
"350 415 OFFCURVE",
"338 424 OFFCURVE",
"333 419 QCURVE SMOOTH"
);
},
{
nodes = (
"322 363 OFFCURVE",
"336 351 OFFCURVE",
"341 356 QCURVE SMOOTH",
"346 362 OFFCURVE",
"332 374 OFFCURVE",
"327 369 QCURVE SMOOTH"
);
},
{
nodes = (
"311 406 OFFCURVE",
"323 411 QCURVE",
"327 424 OFFCURVE",
"314 420 QCURVE"
);
},
{
nodes = (
"209 293 LINE",
"212 293 LINE",
"210 295 OFFCURVE",
"210 296 QCURVE",
"209 296 LINE"
);
},
{
nodes = (
"192 343 LINE",
"190 349 OFFCURVE",
"176 355 OFFCURVE",
"172 349 QCURVE",
"170 342 OFFCURVE",
"185 333 OFFCURVE",
"191 337 QCURVE",
"192 339 OFFCURVE",
"192 342 QCURVE"
);
},
{
nodes = (
"177 286 OFFCURVE",
"165 295 OFFCURVE",
"161 290 QCURVE SMOOTH",
"159 287 OFFCURVE",
"161 282 OFFCURVE",
"165 279 OFFCURVE",
"171 278 OFFCURVE",
"173 281 QCURVE SMOOTH"
);
},
{
nodes = (
"168 324 LINE",
"168 327 LINE",
"166 327 LINE",
"166 324 LINE"
);
},
{
nodes = (
"175 299 LINE",
"175 302 LINE",
"172 302 LINE",
"172 299 LINE"
);
},
{
nodes = (
"180 384 LINE",
"183 379 LINE",
"186 379 LINE",
"183 388 LINE"
);
},
{
nodes = (
"189 365 OFFCURVE",
"177 371 QCURVE",
"164 364 OFFCURVE",
"177 358 QCURVE"
);
},
{
nodes = (
"163 468 OFFCURVE",
"175 473 QCURVE",
"180 486 OFFCURVE",
"166 481 QCURVE"
);
},
{
nodes = (
"159 515 LINE",
"162 515 LINE",
"162 518 LINE",
"159 518 LINE"
);
},
{
nodes = (
"153 496 LINE",
"156 496 LINE",
"156 499 LINE",
"153 499 LINE"
);
},
{
nodes = (
"154 428 OFFCURVE",
"146 416 OFFCURVE",
"153 414 QCURVE SMOOTH",
"157 412 OFFCURVE",
"165 416 OFFCURVE",
"168 422 OFFCURVE",
"165 428 OFFCURVE",
"159 427 QCURVE"
);
},
{
nodes = (
"159 367 OFFCURVE",
"146 363 QCURVE",
"143 349 OFFCURVE",
"155 354 QCURVE"
);
},
{
nodes = (
"150 450 LINE",
"147 450 LINE",
"147 447 LINE",
"150 447 LINE"
);
},
{
nodes = (
"141 464 LINE",
"145 462 LINE",
"150 464 LINE",
"150 469 LINE",
"145 472 LINE",
"141 469 LINE"
);
},
{
nodes = (
"122 471 LINE",
"127 468 LINE",
"131 471 LINE",
"131 476 LINE",
"127 478 LINE",
"122 476 LINE"
);
},
{
nodes = (
"117 374 OFFCURVE",
"131 379 QCURVE",
"134 392 OFFCURVE",
"122 387 QCURVE"
);
},
{
nodes = (
"138 266 LINE",
"133 269 LINE",
"129 266 LINE",
"129 261 LINE",
"133 259 LINE",
"138 261 LINE"
);
},
{
nodes = (
"144 148 LINE",
"141 148 LINE",
"141 145 LINE",
"144 145 LINE"
);
},
{
nodes = (
"144 438 LINE",
"141 438 LINE",
"141 435 LINE",
"144 435 LINE"
);
},
{
nodes = (
"143 333 OFFCURVE",
"155 337 QCURVE",
"159 350 OFFCURVE",
"146 346 QCURVE"
);
},
{
nodes = (
"147 247 LINE",
"147 244 LINE",
"150 244 LINE",
"150 247 LINE"
);
},
{
nodes = (
"161 196 OFFCURVE",
"148 192 QCURVE",
"143 178 OFFCURVE",
"157 183 QCURVE"
);
},
{
nodes = (
"158 385 OFFCURVE",
"166 391 OFFCURVE",
"169 399 OFFCURVE",
"166 406 OFFCURVE",
"160 405 QCURVE",
"155 403 OFFCURVE",
"150 392 OFFCURVE",
"154 388 QCURVE SMOOTH"
);
},
{
nodes = (
"162 216 LINE",
"159 216 LINE",
"159 213 LINE",
"162 213 LINE"
);
},
{
nodes = (
"175 191 LINE",
"172 191 LINE",
"172 188 LINE",
"175 188 LINE"
);
},
{
nodes = (
"177 276 OFFCURVE",
"165 272 QCURVE",
"160 258 OFFCURVE",
"174 263 QCURVE"
);
},
{
nodes = (
"170 324 OFFCURVE",
"173 307 OFFCURVE",
"181 311 QCURVE",
"189 313 OFFCURVE",
"185 329 OFFCURVE",
"177 326 QCURVE SMOOTH"
);
},
{
nodes = (
"204 289 LINE",
"198 289 OFFCURVE",
"186 290 OFFCURVE",
"180 291 QCURVE",
"187 284 OFFCURVE",
"200 272 OFFCURVE",
"207 265 QCURVE"
);
},
{
nodes = (
"187 259 LINE",
"184 259 LINE",
"184 256 LINE",
"187 256 LINE"
);
},
{
nodes = (
"205 240 LINE",
"203 240 LINE",
"203 238 LINE",
"205 238 LINE"
);
},
{
nodes = (
"206 249 OFFCURVE",
"214 251 OFFCURVE",
"218 257 OFFCURVE",
"218 263 OFFCURVE",
"214 265 QCURVE",
"209 266 OFFCURVE",
"199 257 OFFCURVE",
"203 252 QCURVE SMOOTH"
);
},
{
nodes = (
"366 179 LINE",
"363 179 LINE",
"363 176 LINE",
"366 176 LINE"
);
},
{
nodes = (
"372 192 LINE",
"367 195 LINE",
"363 192 LINE",
"363 187 LINE",
"367 185 LINE",
"372 187 LINE"
);
},
{
nodes = (
"378 167 LINE",
"375 167 LINE",
"375 164 LINE",
"378 164 LINE"
);
},
{
nodes = (
"384 197 LINE",
"381 197 LINE",
"381 194 LINE",
"384 194 LINE"
);
},
{
nodes = (
"390 148 LINE",
"387 148 LINE",
"387 145 LINE",
"390 145 LINE"
);
},
{
nodes = (
"395 236 OFFCURVE",
"388 241 QCURVE",
"390 233 OFFCURVE",
"390 229 QCURVE"
);
},
{
nodes = (
"403 251 OFFCURVE",
"401 267 OFFCURVE",
"393 265 QCURVE SMOOTH",
"385 264 OFFCURVE",
"387 247 OFFCURVE",
"395 250 QCURVE"
);
},
{
nodes = (
"409 186 LINE",
"404 189 LINE",
"400 186 LINE",
"400 181 LINE",
"404 179 LINE",
"409 181 LINE"
);
},
{
nodes = (
"418 286 OFFCURVE",
"405 283 QCURVE",
"400 269 OFFCURVE",
"414 274 QCURVE"
);
},
{
nodes = (
"421 167 LINE",
"418 167 LINE",
"418 164 LINE",
"421 164 LINE"
);
},
{
nodes = (
"419 272 OFFCURVE",
"432 275 QCURVE",
"437 289 OFFCURVE",
"424 284 QCURVE"
);
},
{
nodes = (
"424 231 LINE",
"427 231 LINE",
"427 234 LINE",
"424 234 LINE"
);
},
{
nodes = (
"433 223 LINE",
"429 226 LINE",
"424 223 LINE",
"424 218 LINE",
"429 215 LINE",
"433 218 LINE"
);
},
{
nodes = (
"437 248 LINE",
"434 253 LINE",
"429 253 LINE",
"427 248 LINE",
"429 244 LINE",
"434 244 LINE"
);
},
{
nodes = (
"449 242 LINE",
"447 247 LINE",
"442 247 LINE",
"439 242 LINE",
"442 238 LINE",
"447 238 LINE"
);
},
{
nodes = (
"452 302 LINE",
"449 302 LINE",
"449 299 LINE",
"452 299 LINE"
);
}
);
width = 569;
}
);
unicode = 006E;
},
{
glyphname = o;
layers = (
{
layerId = "36F87277-1639-45E8-AAA4-E82D5D969E92";
paths = (
{
nodes = (
"153 696 OFFCURVE",
"409 697 OFFCURVE",
"540 696 QCURVE",
"540 556 OFFCURVE",
"539 282 OFFCURVE",
"540 142 QCURVE",
"541 107 OFFCURVE",
"540 37 OFFCURVE",
"538 2 QCURVE",
"467 -1 OFFCURVE",
"327 1 OFFCURVE",
"256 0 QCURVE",
"198 1 OFFCURVE",
"82 -2 OFFCURVE",
"24 2 QCURVE",
"21 176 OFFCURVE",
"23 522 OFFCURVE",
"23 696 QCURVE"
);
},
{
nodes = (
"314 608 LINE",
"314 606 LINE",
"316 606 LINE",
"316 608 LINE"
);
},
{
nodes = (
"240 596 LINE",
"240 593 LINE",
"242 593 LINE",
"242 596 LINE"
);
},
{
nodes = (
"251 591 OFFCURVE",
"263 585 QCURVE",
"275 591 OFFCURVE",
"263 597 QCURVE"
);
},
{
nodes = (
"301 596 LINE",
"301 593 LINE",
"304 593 LINE",
"304 596 LINE"
);
},
{
nodes = (
"314 596 LINE",
"314 593 LINE",
"316 593 LINE",
"316 596 LINE"
);
},
{
nodes = (
"326 590 LINE",
"326 587 LINE",
"329 587 LINE",
"329 590 LINE"
);
},
{
nodes = (
"166 584 LINE",
"166 581 LINE",
"169 581 LINE",
"169 584 LINE"
);
},
{
nodes = (
"217 563 OFFCURVE",
"229 568 QCURVE",
"234 582 OFFCURVE",
"220 577 QCURVE"
);
},
{
nodes = (
"443 571 LINE",
"443 569 LINE",
"446 569 LINE",
"446 571 LINE"
);
},
{
nodes = (
"184 565 LINE",
"184 562 LINE",
"187 562 LINE",
"187 565 LINE"
);
},
{
nodes = (
"128 554 OFFCURVE",
"140 548 QCURVE",
"152 554 OFFCURVE",
"140 560 QCURVE"
);
},
{
nodes = (
"363 553 LINE",
"363 550 LINE",
"366 550 LINE",
"366 553 LINE"
);
},
{
nodes = (
"443 547 LINE",
"443 544 LINE",
"446 544 LINE",
"446 547 LINE"
);
},
{
nodes = (
"412 510 LINE",
"412 507 LINE",
"415 507 LINE",
"415 510 LINE"
);
},
{
nodes = (
"153 485 LINE",
"153 482 LINE",
"156 482 LINE",
"156 485 LINE"
);
},
{
nodes = (
"387 485 LINE",
"387 482 LINE",
"390 482 LINE",
"390 485 LINE"
);
},
{
nodes = (
"160 473 LINE",
"160 470 LINE",
"162 470 LINE",
"162 473 LINE"
);
},
{
nodes = (
"255 394 OFFCURVE",
"257 288 OFFCURVE",
"257 234 QCURVE",
"306 234 LINE",
"305 291 OFFCURVE",
"307 402 OFFCURVE",
"305 459 QCURVE",
"301 465 OFFCURVE",
"299 469 QCURVE",
"293 470 LINE",
"277 482 OFFCURVE",
"254 462 OFFCURVE",
"256 448 QCURVE"
);
},
{
nodes = (
"424 467 LINE",
"424 464 LINE",
"427 464 LINE",
"427 467 LINE"
);
},
{
nodes = (
"160 462 LINE",
"160 457 LINE",
"164 454 LINE",
"168 457 LINE",
"168 462 LINE",
"164 464 LINE"
);
},
{
nodes = (
"141 436 LINE",
"141 433 LINE",
"144 433 LINE",
"144 436 LINE"
);
},
{
nodes = (
"166 436 LINE",
"166 433 LINE",
"169 433 LINE",
"169 436 LINE"
);
},
{
nodes = (
"431 350 LINE",
"431 347 LINE",
"433 347 LINE",
"433 350 LINE"
);
},
{
nodes = (
"406 307 LINE",
"406 304 LINE",
"409 304 LINE",
"409 307 LINE"
);
},
{
nodes = (
"160 239 LINE",
"160 236 LINE",
"162 236 LINE",
"162 239 LINE"
);
},
{
nodes = (
"160 226 LINE",
"160 224 LINE",
"162 224 LINE",
"162 226 LINE"
);
},
{
nodes = (
"412 220 LINE",
"412 217 LINE",
"415 217 LINE",
"415 220 LINE"
);
},
{
nodes = (
"141 215 LINE",
"141 210 LINE",
"146 208 LINE",
"150 210 LINE",
"150 215 LINE",
"146 218 LINE"
);
},
{
nodes = (
"431 202 LINE",
"431 199 LINE",
"433 199 LINE",
"433 202 LINE"
);
},
{
nodes = (
"123 196 LINE",
"123 193 LINE",
"125 193 LINE",
"125 196 LINE"
);
},
{
nodes = (
"400 196 LINE",
"400 193 LINE",
"403 193 LINE",
"403 196 LINE"
);
},
{
nodes = (
"381 189 LINE",
"381 187 LINE",
"384 187 LINE",
"384 189 LINE"
);
},
{
nodes = (
"160 146 OFFCURVE",
"174 151 QCURVE",
"179 164 OFFCURVE",
"165 159 QCURVE"
);
},
{
nodes = (
"184 159 LINE",
"184 156 LINE",
"187 156 LINE",
"187 159 LINE"
);
},
{
nodes = (
"320 141 OFFCURVE",
"334 144 QCURVE",
"338 157 OFFCURVE",
"325 153 QCURVE"
);
},
{
nodes = (
"396 141 OFFCURVE",
"410 144 QCURVE",
"413 157 OFFCURVE",
"401 153 QCURVE"
);
},
{
nodes = (
"184 146 LINE",
"184 144 LINE",
"187 144 LINE",
"187 146 LINE"
);
},
{
nodes = (
"226 144 OFFCURVE",
"225 139 OFFCURVE",
"224 137 QCURVE",
"227 134 LINE",
"232 131 OFFCURVE",
"237 137 OFFCURVE",
"237 144 OFFCURVE",
"232 149 OFFCURVE",
"227 146 QCURVE"
);
},
{
nodes = (
"194 135 OFFCURVE",
"206 123 OFFCURVE",
"212 127 QCURVE",
"216 132 OFFCURVE",
"204 145 OFFCURVE",
"199 140 QCURVE SMOOTH"
);
},
{
nodes = (
"307 140 LINE",
"307 137 LINE",
"310 137 LINE",
"310 140 LINE"
);
},
{
nodes = (
"344 128 LINE",
"344 125 LINE",
"347 125 LINE",
"347 128 LINE"
);
},
{
nodes = (
"375 128 LINE",
"375 125 LINE",
"378 125 LINE",
"378 128 LINE"
);
},
{
nodes = (
"174 107 OFFCURVE",
"186 112 QCURVE",
"190 125 OFFCURVE",
"177 121 QCURVE"
);
},
{
nodes = (
"369 116 LINE",
"369 113 LINE",
"372 113 LINE",
"372 116 LINE"
);
},
{
nodes = (
"252 109 LINE",
"252 107 LINE",
"255 107 LINE",
"255 109 LINE"
);
},
{
nodes = (
"320 109 LINE",
"320 107 LINE",
"323 107 LINE",
"323 109 LINE"
);
},
{
nodes = (
"215 103 LINE",
"215 100 LINE",
"218 100 LINE",
"218 103 LINE"
);
},
{
nodes = (
"301 97 LINE",
"301 94 LINE",
"304 94 LINE",
"304 97 LINE"
);
}
);
width = 565;
}
);
unicode = 006F;
},
{
glyphname = p;
layers = (
{
layerId = "36F87277-1639-45E8-AAA4-E82D5D969E92";
paths = (
{
nodes = (
"284 694 OFFCURVE",
"540 693 QCURVE",
"540 182 LINE",
"470 181 OFFCURVE",
"332 183 OFFCURVE",
"263 182 QCURVE",
"263 -2 LINE",
"146 -4 OFFCURVE",
"29 -2 QCURVE",
"27 207 OFFCURVE",
"29 416 QCURVE",
"145 417 OFFCURVE",
"262 416 QCURVE",
"262 407 OFFCURVE",
"263 383 OFFCURVE",
"263 357 OFFCURVE",
"263 333 OFFCURVE",
"263 324 QCURVE",
"306 324 LINE",
"306 459 LINE",
"236 460 OFFCURVE",
"98 459 OFFCURVE",
"29 460 QCURVE",
"28 576 OFFCURVE",
"29 693 QCURVE"
);
},
{
nodes = (
"357 606 LINE",
"357 603 LINE",
"360 603 LINE",
"360 606 LINE"
);
},
{
nodes = (
"400 594 LINE",
"400 589 LINE",
"404 587 LINE",
"409 589 LINE",
"409 594 LINE",
"404 597 LINE"
);
},
{
nodes = (
"258 587 LINE",
"258 584 LINE",
"261 584 LINE",
"261 587 LINE"
);
},
{
nodes = (
"388 556 LINE",
"388 554 LINE",
"390 554 LINE",
"390 556 LINE"
);
},
{
nodes = (
"418 476 LINE",
"418 473 LINE",
"421 473 LINE",
"421 476 LINE"
);
},
{
nodes = (
"399 461 OFFCURVE",
"397 457 OFFCURVE",
"397 455 QCURVE",
"399 451 LINE",
"404 448 OFFCURVE",
"409 454 OFFCURVE",
"409 462 OFFCURVE",
"404 467 OFFCURVE",
"399 463 QCURVE"
);
},
{
nodes = (
"443 464 LINE",
"443 461 LINE",
"446 461 LINE",
"446 464 LINE"
);
},
{
nodes = (
"437 384 LINE",
"437 381 LINE",
"440 381 LINE",
"440 384 LINE"
);
},
{
nodes = (
"147 218 LINE",
"147 215 LINE",
"150 215 LINE",
"150 218 LINE"
);
}
);
width = 565;
}
);
unicode = 0070;
},
{
glyphname = q;
layers = (
{
layerId = "36F87277-1639-45E8-AAA4-E82D5D969E92";
paths = (
{
nodes = (
"280 708 OFFCURVE",
"536 706 QCURVE",
"537 551 OFFCURVE",
"535 245 OFFCURVE",
"537 90 QCURVE",
"536 70 OFFCURVE",
"537 31 OFFCURVE",
"534 11 QCURVE",
"475 11 LINE",
"486 -5 OFFCURVE",
"504 -40 OFFCURVE",
"513 -57 QCURVE",
"442 -58 OFFCURVE",
"301 -57 OFFCURVE",
"230 -58 QCURVE",
"218 -41 OFFCURVE",
"197 -2 OFFCURVE",
"180 10 QCURVE",
"142 12 OFFCURVE",
"64 10 OFFCURVE",
"26 10 QCURVE",
"24 185 OFFCURVE",
"25 531 OFFCURVE",
"25 706 QCURVE"
);
},
{
nodes = (
"243 593 OFFCURVE",
"256 598 QCURVE",
"261 612 OFFCURVE",
"248 607 QCURVE"
);
},
{
nodes = (
"125 600 LINE",
"125 597 LINE",
"128 597 LINE",
"128 600 LINE"
);
},
{
nodes = (
"218 594 LINE",
"218 591 LINE",
"220 591 LINE",
"220 594 LINE"
);
},
{
nodes = (
"137 588 LINE",
"137 585 LINE",
"140 585 LINE",
"140 588 LINE"
);
},
{
nodes = (
"205 588 LINE",
"205 585 LINE",
"208 585 LINE",
"208 588 LINE"
);
},
{
nodes = (
"241 588 LINE",
"239 583 LINE",
"241 579 LINE",
"246 579 LINE",
"249 583 LINE",
"246 588 LINE"
);
},
{
nodes = (
"291 588 LINE",
"291 585 LINE",
"294 585 LINE",
"294 588 LINE"
);
},
{
nodes = (
"316 582 LINE",
"316 579 LINE",
"319 579 LINE",
"319 582 LINE"
);
},
{
nodes = (
"285 575 LINE",
"285 573 LINE",
"288 573 LINE",
"288 575 LINE"
);
},
{
nodes = (
"230 569 LINE",
"230 566 LINE",
"233 566 LINE",
"233 569 LINE"
);
},
{
nodes = (
"162 563 LINE",
"162 560 LINE",
"165 560 LINE",
"165 563 LINE"
);
},
{
nodes = (
"168 551 LINE",
"168 548 LINE",
"171 548 LINE",
"171 551 LINE"
);
},
{
nodes = (
"427 551 LINE",
"427 548 LINE",
"430 548 LINE",
"430 551 LINE"
);
},
{
nodes = (
"409 545 LINE",
"409 542 LINE",
"411 542 LINE",
"411 545 LINE"
);
},
{
nodes = (
"181 538 LINE",
"181 536 LINE",
"183 536 LINE",
"183 538 LINE"
);
},
{
nodes = (
"193 538 LINE",
"193 536 LINE",
"196 536 LINE",
"196 538 LINE"
);
},
{
nodes = (
"168 514 LINE",
"168 511 LINE",
"171 511 LINE",
"171 514 LINE"
);
},
{
nodes = (
"433 508 LINE",
"433 505 LINE",
"436 505 LINE",
"436 508 LINE"
);
},
{
nodes = (
"125 502 LINE",
"125 499 LINE",
"128 499 LINE",
"128 502 LINE"
);
},
{
nodes = (
"421 495 LINE",
"421 493 LINE",
"424 493 LINE",
"424 495 LINE"
);
},
{
nodes = (
"162 489 LINE",
"162 486 LINE",
"165 486 LINE",
"165 489 LINE"
);
},
{
nodes = (
"113 483 LINE",
"113 480 LINE",
"116 480 LINE",
"116 483 LINE"
);
},
{
nodes = (
"427 483 LINE",
"427 480 LINE",
"430 480 LINE",
"430 483 LINE"
);
},
{
nodes = (
"259 472 LINE",
"259 244 LINE",
"267 244 OFFCURVE",
"294 245 OFFCURVE",
"302 245 QCURVE",
"304 358 OFFCURVE",
"302 472 QCURVE"
);
},
{
nodes = (
"409 471 LINE",
"409 468 LINE",
"411 468 LINE",
"411 471 LINE"
);
},
{
nodes = (
"421 471 LINE",
"421 468 LINE",
"424 468 LINE",
"424 471 LINE"
);
},
{
nodes = (
"421 409 LINE",
"421 406 LINE",
"424 406 LINE",
"424 409 LINE"
);
},
{
nodes = (
"409 397 LINE",
"409 394 LINE",
"411 394 LINE",
"411 397 LINE"
);
},
{
nodes = (
"415 348 LINE",
"415 345 LINE",
"418 345 LINE",
"418 348 LINE"
);
},
{
nodes = (
"162 311 LINE",
"162 308 LINE",
"165 308 LINE",
"165 311 LINE"
);
},
{
nodes = (
"396 280 LINE",
"396 277 LINE",
"399 277 LINE",
"399 280 LINE"
);
},
{
nodes = (
"144 274 LINE",
"144 271 LINE",
"146 271 LINE",
"146 274 LINE"
);
},
{
nodes = (
"409 249 LINE",
"409 246 LINE",
"411 246 LINE",
"411 249 LINE"
);
},
{
nodes = (
"433 249 LINE",
"433 246 LINE",
"436 246 LINE",
"436 249 LINE"
);
},
{
nodes = (
"429 219 OFFCURVE",
"443 222 QCURVE",
"447 235 OFFCURVE",
"434 231 QCURVE"
);
},
{
nodes = (
"174 224 LINE",
"174 221 LINE",
"177 221 LINE",
"177 224 LINE"
);
},
{
nodes = (
"402 200 LINE",
"402 197 LINE",
"405 197 LINE",
"405 200 LINE"
);
},
{
nodes = (
"156 187 LINE",
"156 184 LINE",
"159 184 LINE",
"159 187 LINE"
);
},
{
nodes = (
"421 187 LINE",
"421 184 LINE",
"424 184 LINE",
"424 187 LINE"
);
},
{
nodes = (
"433 181 LINE",
"433 178 LINE",
"436 178 LINE",
"436 181 LINE"
);
},
{
nodes = (
"150 176 LINE",
"150 171 LINE",
"154 169 LINE",
"159 171 LINE",
"159 176 LINE",
"154 179 LINE"
);
},
{
nodes = (
"179 175 OFFCURVE",
"179 160 OFFCURVE",
"186 160 QCURVE SMOOTH",
"193 160 OFFCURVE",
"193 175 OFFCURVE",
"186 175 QCURVE SMOOTH"
);
},
{
nodes = (
"402 175 LINE",
"402 172 LINE",
"405 172 LINE",
"405 175 LINE"
);
},
{
nodes = (
"364 158 OFFCURVE",
"377 150 OFFCURVE",
"381 155 QCURVE SMOOTH",
"385 161 OFFCURVE",
"372 169 OFFCURVE",
"368 163 QCURVE SMOOTH"
);
},
{
nodes = (
"439 163 LINE",
"439 160 LINE",
"442 160 LINE",
"442 163 LINE"
);
},
{
nodes = (
"255 158 LINE",
"255 153 LINE",
"259 150 LINE",
"263 153 LINE",
"263 158 LINE",
"259 160 LINE"
);
},
{
nodes = (
"269 145 OFFCURVE",
"281 148 QCURVE",
"285 161 OFFCURVE",
"272 157 QCURVE"
);
},
{
nodes = (
"341 157 LINE",
"341 154 LINE",
"344 154 LINE",
"344 157 LINE"
);
},
{
nodes = (
"156 150 LINE",
"156 148 LINE",
"159 148 LINE",
"159 150 LINE"
);
},
{
nodes = (
"187 151 LINE",
"187 146 LINE",
"191 144 LINE",
"196 146 LINE",
"196 151 LINE",
"191 154 LINE"
);
},
{
nodes = (
"144 144 LINE",
"144 141 LINE",
"146 141 LINE",
"146 144 LINE"
);
},
{
nodes = (
"353 144 LINE",
"353 141 LINE",
"356 141 LINE",
"356 144 LINE"
);
},
{
nodes = (
"362 128 LINE",
"370 129 OFFCURVE",
"383 129 OFFCURVE",
"390 130 QCURVE",
"392 133 OFFCURVE",
"394 143 OFFCURVE",
"395 146 QCURVE"
);
},
{
nodes = (
"439 144 LINE",
"439 141 LINE",
"442 141 LINE",
"442 144 LINE"
);
},
{
nodes = (
"199 139 LINE",
"199 134 LINE",
"204 132 LINE",
"208 134 LINE",
"208 139 LINE",
"204 142 LINE"
);
},
{
nodes = (
"216 138 LINE",
"214 134 LINE",
"216 129 LINE",
"222 129 LINE",
"224 134 LINE",
"222 138 LINE"
);
},
{
nodes = (
"316 139 LINE",
"316 134 LINE",
"321 132 LINE",
"325 134 LINE",
"325 139 LINE",
"321 142 LINE"
);
},
{
nodes = (
"427 138 LINE",
"427 135 LINE",
"430 135 LINE",
"430 138 LINE"
);
},
{
nodes = (
"279 132 LINE",
"279 129 LINE",
"282 129 LINE",
"282 132 LINE"
);
},
{
nodes = (
"396 126 LINE",
"396 123 LINE",
"399 123 LINE",
"399 126 LINE"
);
},
{
nodes = (
"192 114 OFFCURVE",
"204 108 QCURVE",
"216 114 OFFCURVE",
"204 121 QCURVE"
);
},
{
nodes = (
"150 113 LINE",
"150 111 LINE",
"153 111 LINE",
"153 113 LINE"
);
},
{
nodes = (
"295 102 OFFCURVE",
"307 105 QCURVE",
"311 118 OFFCURVE",
"298 114 QCURVE"
);
},
{
nodes = (
"372 113 LINE",
"372 111 LINE",
"374 111 LINE",
"374 113 LINE"
);
},
{
nodes = (
"281 110 OFFCURVE",
"282 101 OFFCURVE",
"282 99 QCURVE",
"277 96 OFFCURVE",
"267 91 OFFCURVE",
"262 88 QCURVE",
"286 85 LINE",
"287 89 OFFCURVE",
"288 97 OFFCURVE",
"289 102 QCURVE",
"285 106 OFFCURVE",
"281 112 QCURVE"
);
},
{
nodes = (
"322 107 LINE",
"322 104 LINE",
"325 104 LINE",
"325 107 LINE"
);
},
{
nodes = (
"218 101 LINE",
"218 98 LINE",
"220 98 LINE",
"220 101 LINE"
);
},
{
nodes = (
"329 88 OFFCURVE",
"343 93 QCURVE",
"347 106 OFFCURVE",
"334 102 QCURVE"
);
},
{
nodes = (
"310 95 LINE",
"310 92 LINE",
"313 92 LINE",
"313 95 LINE"
);
},
{
nodes = (
"347 89 LINE",
"347 86 LINE",
"350 86 LINE",
"350 89 LINE"
);
},
{
nodes = (
"285 78 LINE",
"285 72 LINE",
"290 70 LINE",
"294 72 LINE",
"294 78 LINE",
"290 80 LINE"
);
},
{
nodes = (
"383 71 OFFCURVE",
"395 65 QCURVE",
"407 71 OFFCURVE",
"395 77 QCURVE"
);
},
{
nodes = (
"372 46 LINE",
"372 43 LINE",
"374 43 LINE",
"374 46 LINE"
);
}
);
width = 565;
}
);
unicode = 0071;
},
{
glyphname = r;
layers = (
{
layerId = "36F87277-1639-45E8-AAA4-E82D5D969E92";
paths = (
{
nodes = (
"537 697 LINE",
"538 603 OFFCURVE",
"536 420 OFFCURVE",
"537 327 QCURVE",
"537 292 OFFCURVE",
"538 222 OFFCURVE",
"535 187 QCURVE",
"523 187 OFFCURVE",
"500 186 OFFCURVE",
"489 186 QCURVE",
"501 140 OFFCURVE",
"524 49 OFFCURVE",
"532 2 QCURVE",
"475 0 OFFCURVE",
"361 0 OFFCURVE",
"304 1 QCURVE",
"290 43 OFFCURVE",
"274 128 OFFCURVE",
"258 170 QCURVE",
"251 128 OFFCURVE",
"255 43 OFFCURVE",
"254 1 QCURVE",
"140 -1 OFFCURVE",
"26 1 QCURVE",
"26 419 LINE",
"139 420 OFFCURVE",
"253 419 QCURVE",
"253 396 OFFCURVE",
"253 352 OFFCURVE",
"255 329 QCURVE",
"267 328 OFFCURVE",
"291 328 OFFCURVE",
"303 327 QCURVE",
"304 361 OFFCURVE",
"303 428 OFFCURVE",
"303 462 QCURVE",
"234 464 OFFCURVE",
"95 462 OFFCURVE",
"26 463 QCURVE",
"24 580 OFFCURVE",
"26 697 QCURVE"
);
},
{
nodes = (
"292 609 LINE",
"292 606 LINE",
"295 606 LINE",
"295 609 LINE"
);
},
{
nodes = (
"311 603 LINE",
"311 600 LINE",
"314 600 LINE",
"314 603 LINE"
);
},
{
nodes = (
"274 578 LINE",
"274 575 LINE",
"277 575 LINE",
"277 578 LINE"
);
},
{
nodes = (
"385 579 LINE",
"385 574 LINE",
"389 572 LINE",
"394 574 LINE",
"394 579 LINE",
"389 582 LINE"
);
},
{
nodes = (
"416 578 LINE",
"416 575 LINE",
"418 575 LINE",
"418 578 LINE"
);
},
{
nodes = (
"200 560 LINE",
"200 557 LINE",
"203 557 LINE",
"203 560 LINE"
);
},
{
nodes = (
"323 560 LINE",
"323 557 LINE",
"326 557 LINE",
"326 560 LINE"
);
},
{
nodes = (
"403 541 LINE",
"403 538 LINE",
"406 538 LINE",
"406 541 LINE"
);
},
{
nodes = (
"371 529 LINE",
"369 524 LINE",
"371 520 LINE",
"376 520 LINE",
"379 524 LINE",
"376 529 LINE"
);
},
{
nodes = (
"422 529 LINE",
"422 526 LINE",
"425 526 LINE",
"425 529 LINE"
);
},
{
nodes = (
"385 505 LINE",
"385 500 LINE",
"389 498 LINE",
"394 500 LINE",
"394 505 LINE",
"389 508 LINE"
);
},
{
nodes = (
"409 504 LINE",
"409 501 LINE",
"412 501 LINE",
"412 504 LINE"
);
},
{
nodes = (
"410 454 OFFCURVE",
"424 457 QCURVE",
"427 470 OFFCURVE",
"415 466 QCURVE"
);
},
{
nodes = (
"416 362 LINE",
"416 360 LINE",
"418 360 LINE",
"418 362 LINE"
);
},
{
nodes = (
"422 325 LINE",
"422 323 LINE",
"425 323 LINE",
"425 325 LINE"
);
},
{
nodes = (
"409 301 LINE",
"409 298 LINE",
"412 298 LINE",
"412 301 LINE"
);
},
{
nodes = (
"427 295 LINE",
"424 290 LINE",
"427 286 LINE",
"432 286 LINE",
"434 290 LINE",
"432 295 LINE"
);
},
{
nodes = (
"379 289 LINE",
"379 286 LINE",
"381 286 LINE",
"381 289 LINE"
);
},
{
nodes = (
"403 277 LINE",
"403 272 LINE",
"408 270 LINE",
"412 272 LINE",
"412 277 LINE",
"408 280 LINE"
);
},
{
nodes = (
"166 258 OFFCURVE",
"181 252 QCURVE",
"193 259 OFFCURVE",
"181 265 QCURVE"
);
},
{
nodes = (
"409 265 LINE",
"409 260 LINE",
"414 257 LINE",
"418 260 LINE",
"418 265 LINE",
"414 268 LINE"
);
},
{
nodes = (
"397 258 LINE",
"397 255 LINE",
"400 255 LINE",
"400 258 LINE"
);
},
{
nodes = (
"422 252 LINE",
"422 249 LINE",
"425 249 LINE",
"425 252 LINE"
);
},
{
nodes = (
"397 245 LINE",
"397 243 LINE",
"400 243 LINE",
"400 245 LINE"
);
},
{
nodes = (
"379 220 OFFCURVE",
"393 223 QCURVE",
"397 236 OFFCURVE",
"384 232 QCURVE"
);
},
{
nodes = (
"336 221 LINE",
"336 218 LINE",
"338 218 LINE",
"338 221 LINE"
);
},
{
nodes = (
"367 206 OFFCURVE",
"381 211 QCURVE",
"384 224 OFFCURVE",
"372 220 QCURVE"
);
},
{
nodes = (
"360 178 LINE",
"360 175 LINE",
"363 175 LINE",
"363 178 LINE"
);
}
);
width = 565;
}
);
unicode = 0072;
},
{
glyphname = s;
layers = (
{
layerId = "36F87277-1639-45E8-AAA4-E82D5D969E92";
paths = (
{
nodes = (
"86 704 OFFCURVE",
"195 700 OFFCURVE",
"250 701 QCURVE",
"324 699 OFFCURVE",
"465 703 OFFCURVE",
"539 699 QCURVE",
"541 645 OFFCURVE",
"543 536 OFFCURVE",
"541 481 QCURVE",
"540 479 OFFCURVE",
"539 471 OFFCURVE",
"538 469 QCURVE",
"468 464 OFFCURVE",
"333 469 OFFCURVE",
"263 467 QCURVE",
"263 459 OFFCURVE",
"262 432 OFFCURVE",
"262 424 QCURVE",
"331 422 OFFCURVE",
"463 426 OFFCURVE",
"532 424 QCURVE",
"534 422 OFFCURVE",
"539 417 OFFCURVE",
"541 415 QCURVE",
"543 338 OFFCURVE",
"539 187 OFFCURVE",
"541 110 QCURVE",
"539 84 OFFCURVE",
"544 32 OFFCURVE",
"538 7 QCURVE",
"483 2 OFFCURVE",
"379 6 OFFCURVE",
"324 5 QCURVE",
"250 6 OFFCURVE",
"104 3 OFFCURVE",
"30 6 QCURVE",
"28 61 OFFCURVE",
"27 170 OFFCURVE",
"29 225 QCURVE",
"29 231 OFFCURVE",
"31 237 QCURVE",
"101 242 OFFCURVE",
"241 237 OFFCURVE",
"312 239 QCURVE",
"312 282 LINE",
"243 284 OFFCURVE",
"106 280 OFFCURVE",
"37 282 QCURVE",
"35 284 OFFCURVE",
"31 289 OFFCURVE",
"29 291 QCURVE",
"27 367 OFFCURVE",
"30 519 OFFCURVE",
"28 596 QCURVE",
"30 622 OFFCURVE",
"25 674 OFFCURVE",
"31 699 QCURVE"
);
},
{
nodes = (
"246 582 LINE",
"246 579 LINE",
"249 579 LINE",
"249 582 LINE"
);
},
{
nodes = (
"306 582 LINE",
"304 578 LINE",
"306 573 LINE",
"311 573 LINE",
"314 578 LINE",
"311 582 LINE"
);
},
{
nodes = (
"221 576 LINE",
"221 573 LINE",
"224 573 LINE",
"224 576 LINE"
);
},
{
nodes = (
"153 545 LINE",
"153 542 LINE",
"156 542 LINE",
"156 545 LINE"
);
},
{
nodes = (
"128 539 LINE",
"125 535 LINE",
"128 530 LINE",
"133 530 LINE",
"135 535 LINE",
"133 539 LINE"
);
},
{
nodes = (
"166 539 LINE",
"166 536 LINE",
"168 536 LINE",
"168 539 LINE"
);
},
{
nodes = (
"144 521 OFFCURVE",
"140 519 OFFCURVE",
"138 519 QCURVE",
"136 515 LINE",
"136 509 OFFCURVE",
"144 508 OFFCURVE",
"150 512 OFFCURVE",
"152 519 OFFCURVE",
"146 521 QCURVE"
);
},
{
nodes = (
"159 465 LINE",
"159 462 LINE",
"162 462 LINE",
"162 465 LINE"
);
},
{
nodes = (
"406 213 LINE",
"406 210 LINE",
"409 210 LINE",
"409 213 LINE"
);
},
{
nodes = (
"424 200 LINE",
"424 197 LINE",
"427 197 LINE",
"427 200 LINE"
);
},
{
nodes = (
"424 188 LINE",
"424 185 LINE",
"427 185 LINE",
"427 188 LINE"
);
},
{
nodes = (
"388 176 LINE",
"393 169 OFFCURVE",
"411 169 OFFCURVE",
"418 173 QCURVE",
"416 180 OFFCURVE",
"398 182 OFFCURVE",
"392 180 QCURVE"
);
},
{
nodes = (
"328 138 OFFCURVE",
"342 143 QCURVE",
"345 156 OFFCURVE",
"333 152 QCURVE"
);
},
{
nodes = (
"344 146 OFFCURVE",
"356 139 QCURVE",
"368 146 OFFCURVE",
"356 152 QCURVE"
);
},
{
nodes = (
"375 151 LINE",
"375 148 LINE",
"378 148 LINE",
"378 151 LINE"
);
},
{
nodes = (
"406 151 LINE",
"406 148 LINE",
"409 148 LINE",
"409 151 LINE"
);
},
{
nodes = (
"420 132 OFFCURVE",
"434 137 QCURVE",
"438 149 OFFCURVE",
"425 146 QCURVE"
);
},
{
nodes = (
"270 126 LINE",
"270 124 LINE",
"273 124 LINE",
"273 126 LINE"
);
},
{
nodes = (
"307 114 LINE",
"307 111 LINE",
"310 111 LINE",
"310 114 LINE"
);
},
{
nodes = (
"270 102 LINE",
"270 99 LINE",
"273 99 LINE",
"273 102 LINE"
);
},
{
nodes = (
"412 96 LINE",
"412 93 LINE",
"415 93 LINE",
"415 96 LINE"
);
}
);
width = 565;
}
);
unicode = 0073;
},
{
glyphname = t;
layers = (
{
layerId = "36F87277-1639-45E8-AAA4-E82D5D969E92";
paths = (
{
nodes = (
"525 699 LINE",
"525 640 OFFCURVE",
"525 524 OFFCURVE",
"524 465 QCURVE",
"383 465 LINE",
"382 349 OFFCURVE",
"384 119 OFFCURVE",
"383 3 QCURVE",
"266 1 OFFCURVE",
"149 3 QCURVE",
"148 119 OFFCURVE",
"150 349 OFFCURVE",
"149 464 QCURVE",
"115 465 OFFCURVE",
"48 465 OFFCURVE",
"14 465 QCURVE",
"12 582 OFFCURVE",
"14 699 QCURVE"
);
},
{
nodes = (
"251 599 LINE",
"251 596 LINE",
"254 596 LINE",
"254 599 LINE"
);
},
{
nodes = (
"362 600 LINE",
"362 595 LINE",
"367 592 LINE",
"371 595 LINE",
"371 600 LINE",
"367 602 LINE"
);
},
{
nodes = (
"219 592 LINE",
"217 588 LINE",
"219 583 LINE",
"224 583 LINE",
"227 588 LINE",
"224 592 LINE"
);
},
{
nodes = (
"251 586 LINE",
"251 583 LINE",
"254 583 LINE",
"254 586 LINE"
);
},
{
nodes = (
"368 586 LINE",
"368 583 LINE",
"371 583 LINE",
"371 586 LINE"
);
},
{
nodes = (
"239 580 LINE",
"239 577 LINE",
"242 577 LINE",
"242 580 LINE"
);
},
{
nodes = (
"272 567 OFFCURVE",
"286 572 QCURVE",
"289 585 OFFCURVE",
"277 581 QCURVE"
);
},
{
nodes = (
"202 574 LINE",
"202 571 LINE",
"205 571 LINE",
"205 574 LINE"
);
},
{
nodes = (
"190 568 LINE",
"190 565 LINE",
"193 565 LINE",
"193 568 LINE"
);
},
{
nodes = (
"159 562 LINE",
"159 559 LINE",
"162 559 LINE",
"162 562 LINE"
);
},
{
nodes = (
"350 562 LINE",
"350 559 LINE",
"353 559 LINE",
"353 562 LINE"
);
},
{
nodes = (
"327 544 OFFCURVE",
"339 547 QCURVE",
"344 561 OFFCURVE",
"331 556 QCURVE"
);
},
{
nodes = (
"245 549 LINE",
"245 546 LINE",
"248 546 LINE",
"248 549 LINE"
);
},
{
nodes = (
"270 549 LINE",
"270 546 LINE",
"273 546 LINE",
"273 549 LINE"
);
},
{
nodes = (
"190 543 LINE",
"190 540 LINE",
"193 540 LINE",
"193 543 LINE"
);
},
{
nodes = (
"202 543 LINE",
"202 540 LINE",
"205 540 LINE",
"205 543 LINE"
);
},
{
nodes = (
"307 543 LINE",
"307 540 LINE",
"310 540 LINE",
"310 543 LINE"
);
},
{
nodes = (
"213 537 LINE",
"211 532 LINE",
"213 528 LINE",
"218 528 LINE",
"221 532 LINE",
"218 537 LINE"
);
},
{
nodes = (
"234 535 OFFCURVE",
"231 522 OFFCURVE",
"238 521 QCURVE SMOOTH",
"242 520 OFFCURVE",
"247 527 OFFCURVE",
"248 534 OFFCURVE",
"244 539 OFFCURVE",
"239 537 QCURVE SMOOTH"
);
},
{
nodes = (
"285 536 OFFCURVE",
"287 519 OFFCURVE",
"294 521 QCURVE SMOOTH",
"302 523 OFFCURVE",
"299 540 OFFCURVE",
"291 538 QCURVE SMOOTH"
);
},
{
nodes = (
"313 531 LINE",
"313 528 LINE",
"316 528 LINE",
"316 531 LINE"
);
},
{
nodes = (
"227 513 LINE",
"227 508 LINE",
"231 506 LINE",
"236 508 LINE",
"236 513 LINE",
"231 516 LINE"
);
},
{
nodes = (
"256 512 LINE",
"254 508 LINE",
"256 503 LINE",
"261 503 LINE",
"264 508 LINE",
"261 512 LINE"
);
},
{
nodes = (
"247 459 OFFCURVE",
"270 459 OFFCURVE",
"279 468 QCURVE",
"268 468 OFFCURVE",
"247 466 OFFCURVE",
"236 463 QCURVE"
);
},
{
nodes = (
"288 463 LINE",
"288 460 LINE",
"291 460 LINE",
"291 463 LINE"
);
},
{
nodes = (
"233 445 LINE",
"233 442 LINE",
"236 442 LINE",
"236 445 LINE"
);
},
{
nodes = (
"245 420 LINE",
"245 417 LINE",
"248 417 LINE",
"248 420 LINE"
);
},
{
nodes = (
"282 408 LINE",
"282 405 LINE",
"285 405 LINE",
"285 408 LINE"
);
},
{
nodes = (
"282 352 LINE",
"282 349 LINE",
"285 349 LINE",
"285 352 LINE"
);
},
{
nodes = (
"245 266 LINE",
"245 263 LINE",
"248 263 LINE",
"248 266 LINE"
);
},
{
nodes = (
"239 254 LINE",
"239 251 LINE",
"242 251 LINE",
"242 254 LINE"
);
}
);
width = 540;
}
);
unicode = 0074;
},
{
glyphname = u;
layers = (
{
layerId = "36F87277-1639-45E8-AAA4-E82D5D969E92";
paths = (
{
nodes = (
"139 694 OFFCURVE",
"253 693 QCURVE",
"255 578 OFFCURVE",
"252 349 OFFCURVE",
"254 234 QCURVE",
"258 230 OFFCURVE",
"260 224 QCURVE",
"296 224 LINE",
"298 230 OFFCURVE",
"302 234 QCURVE",
"304 349 OFFCURVE",
"301 578 OFFCURVE",
"303 693 QCURVE",
"420 694 OFFCURVE",
"537 693 QCURVE",
"537 -2 LINE",
"281 -3 OFFCURVE",
"26 -2 QCURVE",
"25 345 OFFCURVE",
"26 693 QCURVE"
);
},
{
nodes = (
"428 513 LINE",
"428 510 LINE",
"430 510 LINE",
"430 513 LINE"
);
},
{
nodes = (
"434 365 LINE",
"434 363 LINE",
"437 363 LINE",
"437 365 LINE"
);
},
{
nodes = (
"397 328 LINE",
"397 326 LINE",
"400 326 LINE",
"400 328 LINE"
);
},
{
nodes = (
"138 317 LINE",
"138 312 LINE",
"143 310 LINE",
"147 312 LINE",
"147 317 LINE",
"143 320 LINE"
);
},
{
nodes = (
"434 298 LINE",
"434 295 LINE",
"437 295 LINE",
"437 298 LINE"
);
},
{
nodes = (
"409 291 LINE",
"409 289 LINE",
"412 289 LINE",
"412 291 LINE"
);
},
{
nodes = (
"169 224 LINE",
"169 221 LINE",
"172 221 LINE",
"172 224 LINE"
);
},
{
nodes = (
"405 212 OFFCURVE",
"417 216 QCURVE",
"422 229 OFFCURVE",
"408 224 QCURVE"
);
},
{
nodes = (
"163 211 LINE",
"163 209 LINE",
"166 209 LINE",
"166 211 LINE"
);
},
{
nodes = (
"421 205 LINE",
"421 202 LINE",
"424 202 LINE",
"424 205 LINE"
);
},
{
nodes = (
"126 180 OFFCURVE",
"140 185 QCURVE",
"144 197 OFFCURVE",
"131 194 QCURVE"
);
},
{
nodes = (
"146 180 OFFCURVE",
"160 185 QCURVE",
"164 197 OFFCURVE",
"151 194 QCURVE"
);
},
{
nodes = (
"144 181 LINE",
"144 178 LINE",
"147 178 LINE",
"147 181 LINE"
);
},
{
nodes = (
"169 181 LINE",
"169 178 LINE",
"172 178 LINE",
"172 181 LINE"
);
},
{
nodes = (
"378 182 LINE",
"378 177 LINE",
"383 174 LINE",
"387 177 LINE",
"387 182 LINE",
"383 184 LINE"
);
},
{
nodes = (
"366 174 LINE",
"366 172 LINE",
"369 172 LINE",
"369 174 LINE"
);
},
{
nodes = (
"421 174 LINE",
"421 172 LINE",
"424 172 LINE",
"424 174 LINE"
);
},
{
nodes = (
"434 174 LINE",
"434 172 LINE",
"437 172 LINE",
"437 174 LINE"
);
},
{
nodes = (
"341 150 LINE",
"341 147 LINE",
"344 147 LINE",
"344 150 LINE"
);
},
{
nodes = (
"206 145 LINE",
"206 140 LINE",
"210 137 LINE",
"215 140 LINE",
"215 145 LINE",
"210 147 LINE"
);
},
{
nodes = (
"384 144 LINE",
"384 141 LINE",
"387 141 LINE",
"387 144 LINE"
);
},
{
nodes = (
"261 137 LINE",
"261 135 LINE",
"264 135 LINE",
"264 137 LINE"
);
},
{
nodes = (
"157 131 LINE",
"157 128 LINE",
"159 128 LINE",
"159 131 LINE"
);
},
{
nodes = (
"360 131 LINE",
"360 128 LINE",
"363 128 LINE",
"363 131 LINE"
);
},
{
nodes = (
"249 125 LINE",
"249 122 LINE",
"252 122 LINE",
"252 125 LINE"
);
},
{
nodes = (
"304 125 LINE",
"304 122 LINE",
"307 122 LINE",
"307 125 LINE"
);
},
{
nodes = (
"384 125 LINE",
"384 122 LINE",
"387 122 LINE",
"387 125 LINE"
);
},
{
nodes = (
"132 119 LINE",
"132 116 LINE",
"135 116 LINE",
"135 119 LINE"
);
},
{
nodes = (
"200 119 LINE",
"200 116 LINE",
"202 116 LINE",
"202 119 LINE"
);
},
{
nodes = (
"339 113 OFFCURVE",
"337 109 OFFCURVE",
"335 108 QCURVE",
"337 104 LINE",
"341 100 OFFCURVE",
"348 103 OFFCURVE",
"350 110 OFFCURVE",
"347 116 OFFCURVE",
"341 115 QCURVE"
);
},
{
nodes = (
"378 113 LINE",
"378 110 LINE",
"381 110 LINE",
"381 113 LINE"
);
},
{
nodes = (
"280 94 LINE",
"280 91 LINE",
"283 91 LINE",
"283 94 LINE"
);
}
);
width = 565;
}
);
unicode = 0075;
},
{
glyphname = v;
layers = (
{
layerId = "36F87277-1639-45E8-AAA4-E82D5D969E92";
paths = (
{
nodes = (
"25 697 LINE",
"142 698 OFFCURVE",
"259 697 QCURVE",
"259 604 OFFCURVE",
"259 421 OFFCURVE",
"258 327 QCURVE",
"260 303 OFFCURVE",
"254 251 OFFCURVE",
"262 228 QCURVE",
"272 250 OFFCURVE",
"292 292 OFFCURVE",
"299 315 QCURVE",
"302 363 OFFCURVE",
"303 458 OFFCURVE",
"302 553 OFFCURVE",
"301 648 OFFCURVE",
"304 696 QCURVE",
"362 698 OFFCURVE",
"477 698 OFFCURVE",
"536 697 QCURVE",
"537 612 OFFCURVE",
"536 444 OFFCURVE",
"536 359 QCURVE",
"540 333 OFFCURVE",
"521 284 OFFCURVE",
"511 260 QCURVE SMOOTH",
"482 195 OFFCURVE",
"428 66 OFFCURVE",
"398 2 QCURVE",
"211 0 OFFCURVE",
"25 2 QCURVE"
);
},
{
nodes = (
"439 597 LINE",
"439 595 LINE",
"442 595 LINE",
"442 597 LINE"
);
},
{
nodes = (
"137 560 LINE",
"137 558 LINE",
"140 558 LINE",
"140 560 LINE"
);
},
{
nodes = (
"156 517 LINE",
"156 514 LINE",
"159 514 LINE",
"159 517 LINE"
);
},
{
nodes = (
"156 505 LINE",
"156 502 LINE",
"159 502 LINE",
"159 505 LINE"
);
},
{
nodes = (
"402 320 LINE",
"402 317 LINE",
"405 317 LINE",
"405 320 LINE"
);
},
{
nodes = (
"415 308 LINE",
"415 305 LINE",
"417 305 LINE",
"417 308 LINE"
);
},
{
nodes = (
"119 240 LINE",
"119 237 LINE",
"122 237 LINE",
"122 240 LINE"
);
},
{
nodes = (
"156 222 LINE",
"156 219 LINE",
"159 219 LINE",
"159 222 LINE"
);
},
{
nodes = (
"384 210 LINE",
"384 205 LINE",
"388 203 LINE",
"393 205 LINE",
"393 210 LINE",
"388 213 LINE"
);
},
{
nodes = (
"162 166 LINE",
"162 163 LINE",
"165 163 LINE",
"165 166 LINE"
);
},
{
nodes = (
"328 154 LINE",
"328 151 LINE",
"331 151 LINE",
"331 154 LINE"
);
},
{
nodes = (
"340 148 LINE",
"337 143 LINE",
"340 139 LINE",
"345 139 LINE",
"347 143 LINE",
"345 148 LINE"
);
},
{
nodes = (
"137 129 LINE",
"137 126 LINE",
"140 126 LINE",
"140 129 LINE"
);
},
{
nodes = (
"210 111 OFFCURVE",
"223 105 QCURVE",
"235 112 OFFCURVE",
"223 118 QCURVE"
);
},
{
nodes = (
"267 105 LINE",
"267 102 LINE",
"270 102 LINE",
"270 105 LINE"
);
},
{
nodes = (
"180 92 LINE",
"180 89 LINE",
"183 89 LINE",
"183 92 LINE"
);
}
);
width = 565;
}
);
unicode = 0076;
},
{
glyphname = w;
layers = (
{
layerId = "36F87277-1639-45E8-AAA4-E82D5D969E92";
paths = (
{
nodes = (
"28 695 LINE",
"145 696 OFFCURVE",
"262 695 QCURVE",
"263 579 OFFCURVE",
"262 349 OFFCURVE",
"262 233 QCURVE",
"305 233 LINE",
"306 349 OFFCURVE",
"305 579 OFFCURVE",
"306 695 QCURVE",
"422 696 OFFCURVE",
"539 695 QCURVE",
"540 579 OFFCURVE",
"539 349 OFFCURVE",
"539 233 QCURVE",
"583 233 LINE",
"583 349 OFFCURVE",
"582 579 OFFCURVE",
"583 695 QCURVE",
"700 696 OFFCURVE",
"817 695 QCURVE",
"817 -1 LINE",
"28 -1 LINE"
);
},
{
nodes = (
"159 607 LINE",
"159 605 LINE",
"162 605 LINE",
"162 607 LINE"
);
},
{
nodes = (
"412 503 LINE",
"412 500 LINE",
"415 500 LINE",
"415 503 LINE"
);
},
{
nodes = (
"159 447 LINE",
"159 444 LINE",
"162 444 LINE",
"162 447 LINE"
);
},
{
nodes = (
"689 429 LINE",
"689 426 LINE",
"692 426 LINE",
"692 429 LINE"
);
},
{
nodes = (
"714 429 LINE",
"714 426 LINE",
"716 426 LINE",
"716 429 LINE"
);
},
{
nodes = (
"406 423 LINE",
"406 420 LINE",
"408 420 LINE",
"408 423 LINE"
);
},
{
nodes = (
"153 379 LINE",
"153 377 LINE",
"156 377 LINE",
"156 379 LINE"
);
},
{
nodes = (
"726 349 LINE",
"726 346 LINE",
"729 346 LINE",
"729 349 LINE"
);
},
{
nodes = (
"406 305 LINE",
"406 303 LINE",
"408 303 LINE",
"408 305 LINE"
);
},
{
nodes = (
"398 281 LINE",
"396 276 LINE",
"398 272 LINE",
"403 272 LINE",
"406 276 LINE",
"403 281 LINE"
);
},
{
nodes = (
"412 275 LINE",
"412 272 LINE",
"415 272 LINE",
"415 275 LINE"
);
},
{
nodes = (
"689 262 LINE",
"689 260 LINE",
"692 260 LINE",
"692 262 LINE"
);
},
{
nodes = (
"122 250 LINE",
"122 247 LINE",
"125 247 LINE",
"125 250 LINE"
);
},
{
nodes = (
"414 225 OFFCURVE",
"428 230 QCURVE",
"431 243 OFFCURVE",
"419 238 QCURVE"
);
},
{
nodes = (
"406 232 LINE",
"406 229 LINE",
"408 229 LINE",
"408 232 LINE"
);
},
{
nodes = (
"153 225 LINE",
"153 223 LINE",
"156 223 LINE",
"156 225 LINE"
);
},
{
nodes = (
"128 220 LINE",
"128 215 LINE",
"133 213 LINE",
"137 215 LINE",
"137 220 LINE",
"133 223 LINE"
);
},
{
nodes = (
"392 213 OFFCURVE",
"390 198 OFFCURVE",
"397 198 QCURVE SMOOTH",
"404 198 OFFCURVE",
"406 213 OFFCURVE",
"398 213 QCURVE SMOOTH"
);
},
{
nodes = (
"412 213 LINE",
"412 210 LINE",
"415 210 LINE",
"415 213 LINE"
);
},
{
nodes = (
"138 186 OFFCURVE",
"148 174 OFFCURVE",
"155 179 QCURVE",
"164 183 OFFCURVE",
"153 195 OFFCURVE",
"147 190 QCURVE"
);
},
{
nodes = (
"381 182 LINE",
"381 179 LINE",
"384 179 LINE",
"384 182 LINE"
);
},
{
nodes = (
"461 182 LINE",
"461 179 LINE",
"464 179 LINE",
"464 182 LINE"
);
},
{
nodes = (
"658 182 LINE",
"658 179 LINE",
"661 179 LINE",
"661 182 LINE"
);
},
{
nodes = (
"165 176 LINE",
"165 173 LINE",
"168 173 LINE",
"168 176 LINE"
);
},
{
nodes = (
"393 176 LINE",
"393 173 LINE",
"396 173 LINE",
"396 176 LINE"
);
},
{
nodes = (
"443 176 LINE",
"443 173 LINE",
"445 173 LINE",
"445 176 LINE"
);
},
{
nodes = (
"404 166 OFFCURVE",
"404 152 OFFCURVE",
"409 148 QCURVE",
"413 148 OFFCURVE",
"418 155 OFFCURVE",
"418 164 OFFCURVE",
"413 171 OFFCURVE",
"409 170 QCURVE"
);
},
{
nodes = (
"455 170 LINE",
"455 167 LINE",
"458 167 LINE",
"458 170 LINE"
);
},
{
nodes = (
"651 170 LINE",
"648 165 LINE",
"651 161 LINE",
"656 161 LINE",
"659 165 LINE",
"656 170 LINE"
);
},
{
nodes = (
"381 164 LINE",
"381 161 LINE",
"384 161 LINE",
"384 164 LINE"
);
},
{
nodes = (
"430 164 LINE",
"430 161 LINE",
"433 161 LINE",
"433 164 LINE"
);
},
{
nodes = (
"677 164 LINE",
"677 161 LINE",
"680 161 LINE",
"680 164 LINE"
);
},
{
nodes = (
"122 158 LINE",
"122 155 LINE",
"125 155 LINE",
"125 158 LINE"
);
},
{
nodes = (
"369 158 LINE",
"369 155 LINE",
"371 155 LINE",
"371 158 LINE"
);
},
{
nodes = (
"664 158 LINE",
"664 155 LINE",
"667 155 LINE",
"667 158 LINE"
);
},
{
nodes = (
"135 151 LINE",
"135 149 LINE",
"137 149 LINE",
"137 151 LINE"
);
},
{
nodes = (
"449 151 LINE",
"449 149 LINE",
"452 149 LINE",
"452 151 LINE"
);
},
{
nodes = (
"510 151 LINE",
"510 149 LINE",
"513 149 LINE",
"513 151 LINE"
);
},
{
nodes = (
"141 131 OFFCURVE",
"155 136 QCURVE",
"160 149 OFFCURVE",
"146 144 QCURVE"
);
},
{
nodes = (
"190 145 LINE",
"190 142 LINE",
"193 142 LINE",
"193 145 LINE"
);
},
{
nodes = (
"313 145 LINE",
"313 142 LINE",
"316 142 LINE",
"316 145 LINE"
);
},
{
nodes = (
"338 145 LINE",
"338 142 LINE",
"341 142 LINE",
"341 145 LINE"
);
},
{
nodes = (
"535 145 LINE",
"535 142 LINE",
"538 142 LINE",
"538 145 LINE"
);
},
{
nodes = (
"583 145 LINE",
"581 141 LINE",
"583 136 LINE",
"588 136 LINE",
"591 141 LINE",
"588 145 LINE"
);
},
{
nodes = (
"221 139 LINE",
"221 136 LINE",
"224 136 LINE",
"224 139 LINE"
);
},
{
nodes = (
"276 139 LINE",
"276 136 LINE",
"279 136 LINE",
"279 139 LINE"
);
},
{
nodes = (
"443 139 LINE",
"443 136 LINE",
"445 136 LINE",
"445 139 LINE"
);
},
{
nodes = (
"467 139 LINE",
"467 136 LINE",
"470 136 LINE",
"470 139 LINE"
);
},
{
nodes = (
"651 139 LINE",
"648 135 LINE",
"651 130 LINE",
"656 130 LINE",
"659 135 LINE",
"656 139 LINE"
);
},
{
nodes = (
"689 139 LINE",
"689 136 LINE",
"692 136 LINE",
"692 139 LINE"
);
},
{
nodes = (
"240 120 OFFCURVE",
"254 123 QCURVE",
"257 136 OFFCURVE",
"245 132 QCURVE"
);
},
{
nodes = (
"300 133 LINE",
"297 128 LINE",
"300 124 LINE",
"305 124 LINE",
"307 128 LINE",
"305 133 LINE"
);
},
{
nodes = (
"338 133 LINE",
"338 130 LINE",
"341 130 LINE",
"341 133 LINE"
);
},
{
nodes = (
"350 133 LINE",
"350 130 LINE",
"353 130 LINE",
"353 133 LINE"
);
},
{
nodes = (
"381 133 LINE",
"381 130 LINE",
"384 130 LINE",
"384 133 LINE"
);
},
{
nodes = (
"398 128 OFFCURVE",
"411 121 OFFCURVE",
"415 126 QCURVE SMOOTH",
"419 131 OFFCURVE",
"406 139 OFFCURVE",
"402 134 QCURVE SMOOTH"
);
},
{
nodes = (
"609 133 LINE",
"609 130 LINE",
"612 130 LINE",
"612 133 LINE"
);
},
{
nodes = (
"701 133 LINE",
"701 130 LINE",
"704 130 LINE",
"704 133 LINE"
);
},
{
nodes = (
"178 127 LINE",
"178 124 LINE",
"181 124 LINE",
"181 127 LINE"
);
},
{
nodes = (
"195 127 LINE",
"193 122 LINE",
"195 118 LINE",
"200 118 LINE",
"203 122 LINE",
"200 127 LINE"
);
},
{
nodes = (
"276 127 LINE",
"276 124 LINE",
"279 124 LINE",
"279 127 LINE"
);
},
{
nodes = (
"480 127 LINE",
"480 124 LINE",
"482 124 LINE",
"482 127 LINE"
);
},
{
nodes = (
"498 127 LINE",
"498 124 LINE",
"501 124 LINE",
"501 127 LINE"
);
},
{
nodes = (
"529 127 LINE",
"529 124 LINE",
"532 124 LINE",
"532 127 LINE"
);
},
{
nodes = (
"584 127 LINE",
"584 124 LINE",
"587 124 LINE",
"587 127 LINE"
);
},
{
nodes = (
"393 121 LINE",
"393 118 LINE",
"396 118 LINE",
"396 121 LINE"
);
},
{
nodes = (
"135 114 LINE",
"135 112 LINE",
"137 112 LINE",
"137 114 LINE"
);
},
{
nodes = (
"307 114 LINE",
"307 112 LINE",
"310 112 LINE",
"310 114 LINE"
);
},
{
nodes = (
"449 116 LINE",
"449 111 LINE",
"453 108 LINE",
"458 111 LINE",
"458 116 LINE",
"453 118 LINE"
);
},
{
nodes = (
"491 109 OFFCURVE",
"503 103 QCURVE",
"515 109 OFFCURVE",
"503 115 QCURVE"
);
},
{
nodes = (
"597 108 LINE",
"597 106 LINE",
"599 106 LINE",
"599 108 LINE"
);
},
{
nodes = (
"646 108 LINE",
"646 106 LINE",
"649 106 LINE",
"649 108 LINE"
);
},
{
nodes = (
"246 89 OFFCURVE",
"260 92 QCURVE",
"263 105 OFFCURVE",
"251 101 QCURVE"
);
},
{
nodes = (
"443 102 LINE",
"443 99 LINE",
"445 99 LINE",
"445 102 LINE"
);
},
{
nodes = (
"609 102 LINE",
"609 99 LINE",
"612 99 LINE",
"612 102 LINE"
);
},
{
nodes = (
"239 96 LINE",
"239 93 LINE",
"242 93 LINE",
"242 96 LINE"
);
},
{
nodes = (
"375 96 LINE",
"375 93 LINE",
"378 93 LINE",
"378 96 LINE"
);
},
{
nodes = (
"574 83 OFFCURVE",
"588 88 QCURVE",
"592 101 OFFCURVE",
"579 97 QCURVE"
);
},
{
nodes = (
"326 90 LINE",
"326 87 LINE",
"328 87 LINE",
"328 90 LINE"
);
},
{
nodes = (
"449 90 LINE",
"449 87 LINE",
"452 87 LINE",
"452 90 LINE"
);
}
);
width = 849;
}
);
unicode = 0077;
},
